<ttFont>
    <TTGlyph name=".notdef" xMin="42" yMin="0" xMax="1052" yMax="1446">
      <contour>
        <pt x="239" y="1147" on="1"/>
        <pt x="296" y="1193" on="0"/>
        <pt x="441" y="1256" on="0"/>
        <pt x="540" y="1256" on="1"/>
        <pt x="610" y="1256" on="0"/>
        <pt x="722" y="1218" on="0"/>
        <pt x="800" y="1149" on="0"/>
        <pt x="841" y="1052" on="0"/>
        <pt x="841" y="993" on="1"/>
        <pt x="841" y="938" on="0"/>
        <pt x="813" y="859" on="0"/>
        <pt x="771" y="800" on="0"/>
        <pt x="721" y="758" on="0"/>
        <pt x="675" y="721" on="0"/>
        <pt x="640" y="685" on="0"/>
        <pt x="635" y="663" on="1"/>
        <pt x="613" y="567" on="1"/>
        <pt x="444" y="567" on="1"/>
        <pt x="427" y="681" on="1"/>
        <pt x="421" y="718" on="0"/>
        <pt x="444" y="771" on="0"/>
        <pt x="485" y="814" on="0"/>
        <pt x="536" y="851" on="0"/>
        <pt x="581" y="892" on="0"/>
        <pt x="612" y="943" on="0"/>
        <pt x="612" y="978" on="1"/>
        <pt x="612" y="1013" on="0"/>
        <pt x="564" y="1057" on="0"/>
        <pt x="518" y="1057" on="1"/>
        <pt x="482" y="1057" on="0"/>
        <pt x="433" y="1043" on="0"/>
        <pt x="397" y="1027" on="0"/>
        <pt x="370" y="1013" on="0"/>
        <pt x="355" y="1013" on="1"/>
        <pt x="321" y="1013" on="0"/>
        <pt x="305" y="1042" on="1"/>
      </contour>
      <contour>
        <pt x="385" y="313" on="1"/>
        <pt x="385" y="341" on="0"/>
        <pt x="406" y="391" on="0"/>
        <pt x="442" y="428" on="0"/>
        <pt x="492" y="449" on="0"/>
        <pt x="521" y="449" on="1"/>
        <pt x="549" y="449" on="0"/>
        <pt x="598" y="428" on="0"/>
        <pt x="635" y="391" on="0"/>
        <pt x="656" y="341" on="0"/>
        <pt x="656" y="313" on="1"/>
        <pt x="656" y="284" on="0"/>
        <pt x="635" y="235" on="0"/>
        <pt x="598" y="199" on="0"/>
        <pt x="549" y="178" on="0"/>
        <pt x="521" y="178" on="1"/>
        <pt x="492" y="178" on="0"/>
        <pt x="442" y="199" on="0"/>
        <pt x="406" y="235" on="0"/>
        <pt x="385" y="284" on="0"/>
      </contour>
      <contour>
        <pt x="42" y="1446" on="1"/>
        <pt x="1052" y="1446" on="1"/>
        <pt x="1052" y="0" on="1"/>
        <pt x="42" y="0" on="1"/>
      </contour>
      <contour>
        <pt x="107" y="69" on="1"/>
        <pt x="980" y="69" on="1"/>
        <pt x="980" y="1378" on="1"/>
        <pt x="107" y="1378" on="1"/>
      </contour>
    </TTGlyph>
    <TTGlyph name="A" xMin="6" yMin="0" xMax="1417" yMax="1446">
      <contour>
        <pt x="1417" y="0" on="1"/>
        <pt x="1209" y="0" on="1"/>
        <pt x="1174" y="0" on="0"/>
        <pt x="1129" y="35" on="0"/>
        <pt x="1119" y="61" on="1"/>
        <pt x="1011" y="356" on="1"/>
        <pt x="412" y="356" on="1"/>
        <pt x="304" y="61" on="1"/>
        <pt x="296" y="38" on="0"/>
        <pt x="249" y="0" on="0"/>
        <pt x="215" y="0" on="1"/>
        <pt x="6" y="0" on="1"/>
        <pt x="574" y="1446" on="1"/>
        <pt x="849" y="1446" on="1"/>
      </contour>
      <contour>
        <pt x="481" y="546" on="1"/>
        <pt x="942" y="546" on="1"/>
        <pt x="766" y="1027" on="1"/>
        <pt x="754" y="1059" on="0"/>
        <pt x="725" y="1146" on="0"/>
        <pt x="711" y="1197" on="1"/>
        <pt x="697" y="1146" on="0"/>
        <pt x="670" y="1058" on="0"/>
        <pt x="657" y="1025" on="1"/>
      </contour>
    </TTGlyph>
    <TTGlyph name="AE" xMin="-28" yMin="0" xMax="1780" yMax="1446">
      <contour>
        <pt x="1780" y="1232" on="1"/>
        <pt x="1086" y="1232" on="1"/>
        <pt x="1136" y="831" on="1"/>
        <pt x="1645" y="831" on="1"/>
        <pt x="1645" y="624" on="1"/>
        <pt x="1161" y="624" on="1"/>
        <pt x="1211" y="215" on="1"/>
        <pt x="1780" y="215" on="1"/>
        <pt x="1780" y="0" on="1"/>
        <pt x="983" y="0" on="1"/>
        <pt x="939" y="356" on="1"/>
        <pt x="419" y="356" on="1"/>
        <pt x="277" y="60" on="1"/>
        <pt x="264" y="33" on="0"/>
        <pt x="212" y="0" on="0"/>
        <pt x="176" y="0" on="1"/>
        <pt x="-28" y="0" on="1"/>
        <pt x="707" y="1446" on="1"/>
        <pt x="1780" y="1446" on="1"/>
      </contour>
      <contour>
        <pt x="511" y="546" on="1"/>
        <pt x="916" y="546" on="1"/>
        <pt x="830" y="1246" on="1"/>
        <pt x="814" y="1195" on="0"/>
        <pt x="779" y="1105" on="0"/>
        <pt x="762" y="1067" on="1"/>
      </contour>
    </TTGlyph>
    <TTGlyph name="Aacute" xMin="6" yMin="0" xMax="1417" yMax="1791">
      <component glyphName="A" x="0" y="0" flags="0x204"/>
      <component glyphName="acute.case" x="376" y="0" flags="0x4"/>
    </TTGlyph>
    <TTGlyph name="Acircumflex" xMin="6" yMin="0" xMax="1417" yMax="1768">
      <component glyphName="A" x="0" y="0" flags="0x204"/>
      <component glyphName="circumflex.case" x="392" y="0" flags="0x4"/>
    </TTGlyph>
    <TTGlyph name="Adieresis" xMin="6" yMin="0" xMax="1417" yMax="1802">
      <component glyphName="A" x="0" y="0" flags="0x204"/>
      <component glyphName="dieresis.case" x="392" y="0" flags="0x4"/>
    </TTGlyph>
    <TTGlyph name="Agrave" xMin="6" yMin="0" xMax="1417" yMax="1791">
      <component glyphName="A" x="0" y="0" flags="0x204"/>
      <component glyphName="grave.case" x="376" y="0" flags="0x4"/>
    </TTGlyph>
    <TTGlyph name="Aogonek" xMin="6" yMin="-345" xMax="1465" yMax="1446">
      <contour>
        <pt x="1404" y="-187" on="1"/>
        <pt x="1422" y="-187" on="0"/>
        <pt x="1427" y="-203" on="1"/>
        <pt x="1465" y="-294" on="1"/>
        <pt x="1432" y="-316" on="0"/>
        <pt x="1333" y="-345" on="0"/>
        <pt x="1278" y="-345" on="1"/>
        <pt x="1180" y="-345" on="0"/>
        <pt x="1074" y="-263" on="0"/>
        <pt x="1074" y="-198" on="1"/>
        <pt x="1074" y="-143" on="0"/>
        <pt x="1147" y="-41" on="0"/>
        <pt x="1215" y="0" on="1"/>
        <pt x="1209" y="0" on="1"/>
        <pt x="1174" y="0" on="0"/>
        <pt x="1129" y="35" on="0"/>
        <pt x="1119" y="61" on="1"/>
        <pt x="1011" y="356" on="1"/>
        <pt x="412" y="356" on="1"/>
        <pt x="304" y="61" on="1"/>
        <pt x="296" y="38" on="0"/>
        <pt x="249" y="0" on="0"/>
        <pt x="215" y="0" on="1"/>
        <pt x="6" y="0" on="1"/>
        <pt x="574" y="1446" on="1"/>
        <pt x="849" y="1446" on="1"/>
        <pt x="1417" y="0" on="1"/>
        <pt x="1364" y="0" on="1"/>
        <pt x="1344" y="-11" on="0"/>
        <pt x="1306" y="-39" on="0"/>
        <pt x="1276" y="-74" on="0"/>
        <pt x="1258" y="-114" on="0"/>
        <pt x="1258" y="-136" on="1"/>
        <pt x="1258" y="-166" on="0"/>
        <pt x="1296" y="-201" on="0"/>
        <pt x="1330" y="-201" on="1"/>
        <pt x="1349" y="-201" on="0"/>
        <pt x="1373" y="-197" on="0"/>
        <pt x="1388" y="-191" on="0"/>
        <pt x="1399" y="-187" on="0"/>
      </contour>
      <contour>
        <pt x="481" y="546" on="1"/>
        <pt x="942" y="546" on="1"/>
        <pt x="766" y="1027" on="1"/>
        <pt x="754" y="1059" on="0"/>
        <pt x="725" y="1146" on="0"/>
        <pt x="711" y="1197" on="1"/>
        <pt x="697" y="1146" on="0"/>
        <pt x="669" y="1058" on="0"/>
        <pt x="657" y="1025" on="1"/>
      </contour>
    </TTGlyph>
    <TTGlyph name="Aring" xMin="6" yMin="0" xMax="1417" yMax="1874">
      <component glyphName="A" x="0" y="0" flags="0x204"/>
      <component glyphName="ring.case" x="393" y="0" flags="0x4"/>
    </TTGlyph>
    <TTGlyph name="Atilde" xMin="6" yMin="0" xMax="1417" yMax="1769">
      <component glyphName="A" x="0" y="0" flags="0x204"/>
      <component glyphName="tilde.case" x="392" y="0" flags="0x4"/>
    </TTGlyph>
    <TTGlyph name="B" xMin="146" yMin="0" xMax="1218" yMax="1446">
      <contour>
        <pt x="146" y="0" on="1"/>
        <pt x="146" y="1446" on="1"/>
        <pt x="645" y="1446" on="1"/>
        <pt x="787" y="1446" on="0"/>
        <pt x="988" y="1392" on="0"/>
        <pt x="1117" y="1292" on="0"/>
        <pt x="1177" y="1150" on="0"/>
        <pt x="1177" y="1061" on="1"/>
        <pt x="1177" y="1010" on="0"/>
        <pt x="1147" y="917" on="0"/>
        <pt x="1084" y="836" on="0"/>
        <pt x="987" y="770" on="0"/>
        <pt x="920" y="747" on="1"/>
        <pt x="1218" y="680" on="0"/>
        <pt x="1218" y="425" on="1"/>
        <pt x="1218" y="333" on="0"/>
        <pt x="1148" y="177" on="0"/>
        <pt x="1014" y="64" on="0"/>
        <pt x="818" y="0" on="0"/>
        <pt x="692" y="0" on="1"/>
      </contour>
      <contour>
        <pt x="415" y="634" on="1"/>
        <pt x="415" y="210" on="1"/>
        <pt x="688" y="210" on="1"/>
        <pt x="763" y="210" on="0"/>
        <pt x="864" y="246" on="0"/>
        <pt x="925" y="306" on="0"/>
        <pt x="952" y="386" on="0"/>
        <pt x="952" y="431" on="1"/>
        <pt x="952" y="478" on="0"/>
        <pt x="922" y="553" on="0"/>
        <pt x="858" y="606" on="0"/>
        <pt x="758" y="634" on="0"/>
        <pt x="687" y="634" on="1"/>
      </contour>
      <contour>
        <pt x="415" y="820" on="1"/>
        <pt x="630" y="820" on="1"/>
        <pt x="767" y="820" on="0"/>
        <pt x="909" y="920" on="0"/>
        <pt x="909" y="1029" on="1"/>
        <pt x="909" y="1142" on="0"/>
        <pt x="781" y="1238" on="0"/>
        <pt x="645" y="1238" on="1"/>
        <pt x="415" y="1238" on="1"/>
      </contour>
    </TTGlyph>
    <TTGlyph name="C" xMin="62" yMin="-16" xMax="1292" yMax="1462">
      <contour>
        <pt x="1140" y="341" on="1"/>
        <pt x="1162" y="341" on="0"/>
        <pt x="1178" y="324" on="1"/>
        <pt x="1284" y="209" on="1"/>
        <pt x="1196" y="100" on="0"/>
        <pt x="939" y="-16" on="0"/>
        <pt x="759" y="-16" on="1"/>
        <pt x="598" y="-16" on="0"/>
        <pt x="341" y="94" on="0"/>
        <pt x="159" y="290" on="0"/>
        <pt x="62" y="562" on="0"/>
        <pt x="62" y="723" on="1"/>
        <pt x="62" y="886" on="0"/>
        <pt x="170" y="1157" on="0"/>
        <pt x="366" y="1353" on="0"/>
        <pt x="639" y="1462" on="0"/>
        <pt x="804" y="1462" on="1"/>
        <pt x="965" y="1462" on="0"/>
        <pt x="1206" y="1359" on="0"/>
        <pt x="1292" y="1274" on="1"/>
        <pt x="1202" y="1149" on="1"/>
        <pt x="1194" y="1137" on="0"/>
        <pt x="1169" y="1119" on="0"/>
        <pt x="1147" y="1119" on="1"/>
        <pt x="1124" y="1119" on="0"/>
        <pt x="1076" y="1155" on="0"/>
        <pt x="1002" y="1197" on="0"/>
        <pt x="889" y="1233" on="0"/>
        <pt x="802" y="1233" on="1"/>
        <pt x="700" y="1233" on="0"/>
        <pt x="529" y="1162" on="0"/>
        <pt x="406" y="1030" on="0"/>
        <pt x="337" y="841" on="0"/>
        <pt x="337" y="723" on="1"/>
        <pt x="337" y="601" on="0"/>
        <pt x="406" y="411" on="0"/>
        <pt x="524" y="281" on="0"/>
        <pt x="684" y="212" on="0"/>
        <pt x="776" y="212" on="1"/>
        <pt x="831" y="212" on="0"/>
        <pt x="920" y="224" on="0"/>
        <pt x="995" y="250" on="0"/>
        <pt x="1062" y="291" on="0"/>
        <pt x="1095" y="321" on="1"/>
        <pt x="1105" y="330" on="0"/>
        <pt x="1127" y="341" on="0"/>
      </contour>
    </TTGlyph>
    <TTGlyph name="Cacute" xMin="62" yMin="-16" xMax="1292" yMax="1791">
      <component glyphName="C" x="0" y="0" flags="0x204"/>
      <component glyphName="acute.case" x="462" y="0" flags="0x4"/>
    </TTGlyph>
    <TTGlyph name="Ccedilla" xMin="62" yMin="-349" xMax="1292" yMax="1462">
      <contour>
        <pt x="632" y="-227" on="1"/>
        <pt x="639" y="-227" on="0"/>
        <pt x="654" y="-231" on="0"/>
        <pt x="673" y="-237" on="0"/>
        <pt x="696" y="-241" on="0"/>
        <pt x="712" y="-241" on="1"/>
        <pt x="745" y="-241" on="0"/>
        <pt x="778" y="-216" on="0"/>
        <pt x="778" y="-198" on="1"/>
        <pt x="778" y="-169" on="0"/>
        <pt x="706" y="-144" on="0"/>
        <pt x="631" y="-134" on="1"/>
        <pt x="668" y="-11" on="1"/>
        <pt x="527" y="4" on="0"/>
        <pt x="303" y="125" on="0"/>
        <pt x="146" y="318" on="0"/>
        <pt x="62" y="573" on="0"/>
        <pt x="62" y="723" on="1"/>
        <pt x="62" y="886" on="0"/>
        <pt x="170" y="1157" on="0"/>
        <pt x="366" y="1353" on="0"/>
        <pt x="639" y="1462" on="0"/>
        <pt x="804" y="1462" on="1"/>
        <pt x="965" y="1462" on="0"/>
        <pt x="1206" y="1359" on="0"/>
        <pt x="1292" y="1274" on="1"/>
        <pt x="1202" y="1149" on="1"/>
        <pt x="1194" y="1137" on="0"/>
        <pt x="1169" y="1119" on="0"/>
        <pt x="1147" y="1119" on="1"/>
        <pt x="1124" y="1119" on="0"/>
        <pt x="1076" y="1155" on="0"/>
        <pt x="1002" y="1197" on="0"/>
        <pt x="889" y="1233" on="0"/>
        <pt x="802" y="1233" on="1"/>
        <pt x="700" y="1233" on="0"/>
        <pt x="529" y="1162" on="0"/>
        <pt x="406" y="1030" on="0"/>
        <pt x="337" y="841" on="0"/>
        <pt x="337" y="723" on="1"/>
        <pt x="337" y="601" on="0"/>
        <pt x="406" y="411" on="0"/>
        <pt x="524" y="281" on="0"/>
        <pt x="684" y="212" on="0"/>
        <pt x="776" y="212" on="1"/>
        <pt x="831" y="212" on="0"/>
        <pt x="920" y="224" on="0"/>
        <pt x="995" y="250" on="0"/>
        <pt x="1062" y="291" on="0"/>
        <pt x="1095" y="321" on="1"/>
        <pt x="1105" y="330" on="0"/>
        <pt x="1127" y="341" on="0"/>
        <pt x="1140" y="341" on="1"/>
        <pt x="1162" y="341" on="0"/>
        <pt x="1178" y="324" on="1"/>
        <pt x="1284" y="209" on="1"/>
        <pt x="1204" y="109" on="0"/>
        <pt x="977" y="-4" on="0"/>
        <pt x="822" y="-14" on="1"/>
        <pt x="810" y="-55" on="1"/>
        <pt x="899" y="-77" on="0"/>
        <pt x="971" y="-152" on="0"/>
        <pt x="971" y="-203" on="1"/>
        <pt x="971" y="-236" on="0"/>
        <pt x="936" y="-290" on="0"/>
        <pt x="872" y="-328" on="0"/>
        <pt x="782" y="-349" on="0"/>
        <pt x="728" y="-349" on="1"/>
        <pt x="687" y="-349" on="0"/>
        <pt x="616" y="-337" on="0"/>
        <pt x="581" y="-326" on="1"/>
        <pt x="604" y="-250" on="1"/>
        <pt x="610" y="-227" on="0"/>
      </contour>
    </TTGlyph>
    <TTGlyph name="D" xMin="146" yMin="0" xMax="1430" yMax="1446">
      <contour>
        <pt x="1430" y="723" on="1"/>
        <pt x="1430" y="564" on="0"/>
        <pt x="1324" y="298" on="0"/>
        <pt x="1132" y="106" on="0"/>
        <pt x="862" y="0" on="0"/>
        <pt x="698" y="0" on="1"/>
        <pt x="146" y="0" on="1"/>
        <pt x="146" y="1446" on="1"/>
        <pt x="698" y="1446" on="1"/>
        <pt x="862" y="1446" on="0"/>
        <pt x="1132" y="1339" on="0"/>
        <pt x="1324" y="1148" on="0"/>
        <pt x="1430" y="882" on="0"/>
      </contour>
      <contour>
        <pt x="1155" y="723" on="1"/>
        <pt x="1155" y="842" on="0"/>
        <pt x="1091" y="1031" on="0"/>
        <pt x="973" y="1162" on="0"/>
        <pt x="804" y="1232" on="0"/>
        <pt x="698" y="1232" on="1"/>
        <pt x="417" y="1232" on="1"/>
        <pt x="417" y="214" on="1"/>
        <pt x="698" y="214" on="1"/>
        <pt x="804" y="214" on="0"/>
        <pt x="973" y="284" on="0"/>
        <pt x="1091" y="415" on="0"/>
        <pt x="1155" y="604" on="0"/>
      </contour>
    </TTGlyph>
    <TTGlyph name="Delta" xMin="12" yMin="0" xMax="1454" yMax="1446">
      <contour>
        <pt x="612" y="1446" on="1"/>
        <pt x="855" y="1446" on="1"/>
        <pt x="1454" y="0" on="1"/>
        <pt x="12" y="0" on="1"/>
      </contour>
      <contour>
        <pt x="370" y="213" on="1"/>
        <pt x="1097" y="213" on="1"/>
        <pt x="781" y="1027" on="1"/>
        <pt x="770" y="1055" on="0"/>
        <pt x="746" y="1129" on="0"/>
        <pt x="734" y="1172" on="1"/>
        <pt x="722" y="1128" on="0"/>
        <pt x="698" y="1054" on="0"/>
        <pt x="687" y="1025" on="1"/>
      </contour>
    </TTGlyph>
    <TTGlyph name="E" xMin="146" yMin="0" xMax="1058" yMax="1446">
      <contour>
        <pt x="1058" y="1446" on="1"/>
        <pt x="1058" y="1232" on="1"/>
        <pt x="417" y="1232" on="1"/>
        <pt x="417" y="831" on="1"/>
        <pt x="922" y="831" on="1"/>
        <pt x="922" y="624" on="1"/>
        <pt x="417" y="624" on="1"/>
        <pt x="417" y="215" on="1"/>
        <pt x="1058" y="215" on="1"/>
        <pt x="1058" y="0" on="1"/>
        <pt x="146" y="0" on="1"/>
        <pt x="146" y="1446" on="1"/>
      </contour>
    </TTGlyph>
    <TTGlyph name="Eacute" xMin="146" yMin="0" xMax="1058" yMax="1791">
      <component glyphName="E" x="0" y="0" flags="0x204"/>
      <component glyphName="acute.case" x="282" y="0" flags="0x4"/>
    </TTGlyph>
    <TTGlyph name="Ecircumflex" xMin="146" yMin="0" xMax="1058" yMax="1768">
      <component glyphName="E" x="0" y="0" flags="0x204"/>
      <component glyphName="circumflex.case" x="298" y="0" flags="0x4"/>
    </TTGlyph>
    <TTGlyph name="Edieresis" xMin="146" yMin="0" xMax="1058" yMax="1802">
      <component glyphName="E" x="0" y="0" flags="0x204"/>
      <component glyphName="dieresis.case" x="298" y="0" flags="0x4"/>
    </TTGlyph>
    <TTGlyph name="Egrave" xMin="146" yMin="0" xMax="1058" yMax="1791">
      <component glyphName="E" x="0" y="0" flags="0x204"/>
      <component glyphName="grave.case" x="282" y="0" flags="0x4"/>
    </TTGlyph>
    <TTGlyph name="Eogonek" xMin="146" yMin="-345" xMax="1068" yMax="1446">
      <contour>
        <pt x="1007" y="-187" on="1"/>
        <pt x="1025" y="-187" on="0"/>
        <pt x="1030" y="-203" on="1"/>
        <pt x="1068" y="-294" on="1"/>
        <pt x="1035" y="-316" on="0"/>
        <pt x="936" y="-345" on="0"/>
        <pt x="881" y="-345" on="1"/>
        <pt x="783" y="-345" on="0"/>
        <pt x="677" y="-263" on="0"/>
        <pt x="677" y="-198" on="1"/>
        <pt x="677" y="-143" on="0"/>
        <pt x="750" y="-41" on="0"/>
        <pt x="818" y="0" on="1"/>
        <pt x="146" y="0" on="1"/>
        <pt x="146" y="1446" on="1"/>
        <pt x="1058" y="1446" on="1"/>
        <pt x="1058" y="1232" on="1"/>
        <pt x="417" y="1232" on="1"/>
        <pt x="417" y="831" on="1"/>
        <pt x="922" y="831" on="1"/>
        <pt x="922" y="624" on="1"/>
        <pt x="417" y="624" on="1"/>
        <pt x="417" y="215" on="1"/>
        <pt x="1058" y="215" on="1"/>
        <pt x="1058" y="0" on="1"/>
        <pt x="967" y="0" on="1"/>
        <pt x="947" y="-11" on="0"/>
        <pt x="909" y="-39" on="0"/>
        <pt x="879" y="-74" on="0"/>
        <pt x="861" y="-114" on="0"/>
        <pt x="861" y="-136" on="1"/>
        <pt x="861" y="-166" on="0"/>
        <pt x="899" y="-201" on="0"/>
        <pt x="933" y="-201" on="1"/>
        <pt x="952" y="-201" on="0"/>
        <pt x="976" y="-197" on="0"/>
        <pt x="991" y="-191" on="0"/>
        <pt x="1002" y="-187" on="0"/>
      </contour>
    </TTGlyph>
    <TTGlyph name="Eth" xMin="53" yMin="0" xMax="1517" yMax="1446">
      <contour>
        <pt x="53" y="804" on="1"/>
        <pt x="233" y="804" on="1"/>
        <pt x="233" y="1446" on="1"/>
        <pt x="785" y="1446" on="1"/>
        <pt x="949" y="1446" on="0"/>
        <pt x="1219" y="1339" on="0"/>
        <pt x="1411" y="1148" on="0"/>
        <pt x="1517" y="882" on="0"/>
        <pt x="1517" y="723" on="1"/>
        <pt x="1517" y="564" on="0"/>
        <pt x="1411" y="298" on="0"/>
        <pt x="1219" y="106" on="0"/>
        <pt x="949" y="0" on="0"/>
        <pt x="785" y="0" on="1"/>
        <pt x="233" y="0" on="1"/>
        <pt x="233" y="651" on="1"/>
        <pt x="53" y="651" on="1"/>
      </contour>
      <contour>
        <pt x="1241" y="723" on="1"/>
        <pt x="1241" y="842" on="0"/>
        <pt x="1178" y="1031" on="0"/>
        <pt x="1060" y="1162" on="0"/>
        <pt x="891" y="1232" on="0"/>
        <pt x="785" y="1232" on="1"/>
        <pt x="504" y="1232" on="1"/>
        <pt x="504" y="804" on="1"/>
        <pt x="865" y="804" on="1"/>
        <pt x="865" y="651" on="1"/>
        <pt x="504" y="651" on="1"/>
        <pt x="504" y="214" on="1"/>
        <pt x="785" y="214" on="1"/>
        <pt x="891" y="214" on="0"/>
        <pt x="1060" y="284" on="0"/>
        <pt x="1178" y="415" on="0"/>
        <pt x="1241" y="604" on="0"/>
      </contour>
    </TTGlyph>
    <TTGlyph name="Euro" xMin="37" yMin="-14" xMax="1141" yMax="1460">
      <contour>
        <pt x="37" y="928" on="1"/>
        <pt x="170" y="928" on="1"/>
        <pt x="193" y="1050" on="0"/>
        <pt x="293" y="1247" on="0"/>
        <pt x="437" y="1385" on="0"/>
        <pt x="619" y="1460" on="0"/>
        <pt x="726" y="1460" on="1"/>
        <pt x="865" y="1460" on="0"/>
        <pt x="1063" y="1353" on="0"/>
        <pt x="1130" y="1262" on="1"/>
        <pt x="1043" y="1168" on="1"/>
        <pt x="1033" y="1157" on="0"/>
        <pt x="1011" y="1140" on="0"/>
        <pt x="991" y="1140" on="1"/>
        <pt x="977" y="1140" on="0"/>
        <pt x="954" y="1156" on="0"/>
        <pt x="926" y="1180" on="0"/>
        <pt x="892" y="1208" on="0"/>
        <pt x="845" y="1232" on="0"/>
        <pt x="781" y="1248" on="0"/>
        <pt x="737" y="1248" on="1"/>
        <pt x="619" y="1248" on="0"/>
        <pt x="457" y="1086" on="0"/>
        <pt x="425" y="928" on="1"/>
        <pt x="927" y="928" on="1"/>
        <pt x="927" y="852" on="1"/>
        <pt x="927" y="829" on="0"/>
        <pt x="890" y="790" on="0"/>
        <pt x="858" y="790" on="1"/>
        <pt x="408" y="790" on="1"/>
        <pt x="407" y="773" on="0"/>
        <pt x="407" y="740" on="0"/>
        <pt x="407" y="723" on="1"/>
        <pt x="407" y="711" on="0"/>
        <pt x="407" y="687" on="0"/>
        <pt x="408" y="676" on="1"/>
        <pt x="832" y="676" on="1"/>
        <pt x="832" y="601" on="1"/>
        <pt x="832" y="578" on="0"/>
        <pt x="795" y="539" on="0"/>
        <pt x="764" y="539" on="1"/>
        <pt x="420" y="539" on="1"/>
        <pt x="448" y="367" on="0"/>
        <pt x="607" y="198" on="0"/>
        <pt x="725" y="198" on="1"/>
        <pt x="797" y="198" on="0"/>
        <pt x="884" y="237" on="0"/>
        <pt x="939" y="285" on="0"/>
        <pt x="976" y="324" on="0"/>
        <pt x="998" y="324" on="1"/>
        <pt x="1009" y="324" on="0"/>
        <pt x="1026" y="317" on="0"/>
        <pt x="1034" y="307" on="1"/>
        <pt x="1141" y="209" on="1"/>
        <pt x="1071" y="101" on="0"/>
        <pt x="855" y="-14" on="0"/>
        <pt x="712" y="-14" on="1"/>
        <pt x="595" y="-14" on="0"/>
        <pt x="408" y="65" on="0"/>
        <pt x="270" y="209" on="0"/>
        <pt x="182" y="413" on="0"/>
        <pt x="164" y="539" on="1"/>
        <pt x="37" y="539" on="1"/>
        <pt x="37" y="676" on="1"/>
        <pt x="153" y="676" on="1"/>
        <pt x="152" y="687" on="0"/>
        <pt x="152" y="711" on="0"/>
        <pt x="152" y="723" on="1"/>
        <pt x="152" y="740" on="0"/>
        <pt x="152" y="773" on="0"/>
        <pt x="153" y="790" on="1"/>
        <pt x="37" y="790" on="1"/>
      </contour>
    </TTGlyph>
    <TTGlyph name="F" xMin="146" yMin="0" xMax="1058" yMax="1446">
      <contour>
        <pt x="1058" y="1446" on="1"/>
        <pt x="1058" y="1232" on="1"/>
        <pt x="417" y="1232" on="1"/>
        <pt x="417" y="804" on="1"/>
        <pt x="958" y="804" on="1"/>
        <pt x="958" y="589" on="1"/>
        <pt x="417" y="589" on="1"/>
        <pt x="417" y="0" on="1"/>
        <pt x="146" y="0" on="1"/>
        <pt x="146" y="1446" on="1"/>
      </contour>
    </TTGlyph>
    <TTGlyph name="G" xMin="62" yMin="-16" xMax="1341" yMax="1462">
      <contour>
        <pt x="810" y="198" on="1"/>
        <pt x="901" y="198" on="0"/>
        <pt x="1036" y="231" on="0"/>
        <pt x="1097" y="260" on="1"/>
        <pt x="1097" y="523" on="1"/>
        <pt x="916" y="523" on="1"/>
        <pt x="890" y="523" on="0"/>
        <pt x="860" y="552" on="0"/>
        <pt x="860" y="573" on="1"/>
        <pt x="860" y="725" on="1"/>
        <pt x="1341" y="725" on="1"/>
        <pt x="1341" y="140" on="1"/>
        <pt x="1286" y="100" on="0"/>
        <pt x="1167" y="41" on="0"/>
        <pt x="1032" y="3" on="0"/>
        <pt x="878" y="-16" on="0"/>
        <pt x="789" y="-16" on="1"/>
        <pt x="631" y="-16" on="0"/>
        <pt x="365" y="94" on="0"/>
        <pt x="171" y="290" on="0"/>
        <pt x="62" y="562" on="0"/>
        <pt x="62" y="723" on="1"/>
        <pt x="62" y="886" on="0"/>
        <pt x="168" y="1158" on="0"/>
        <pt x="363" y="1354" on="0"/>
        <pt x="641" y="1462" on="0"/>
        <pt x="814" y="1462" on="1"/>
        <pt x="991" y="1462" on="0"/>
        <pt x="1250" y="1357" on="0"/>
        <pt x="1340" y="1273" on="1"/>
        <pt x="1262" y="1151" on="1"/>
        <pt x="1239" y="1114" on="0"/>
        <pt x="1201" y="1114" on="1"/>
        <pt x="1177" y="1114" on="0"/>
        <pt x="1152" y="1130" on="1"/>
        <pt x="1120" y="1149" on="0"/>
        <pt x="1053" y="1187" on="0"/>
        <pt x="972" y="1215" on="0"/>
        <pt x="871" y="1233" on="0"/>
        <pt x="805" y="1233" on="1"/>
        <pt x="698" y="1233" on="0"/>
        <pt x="525" y="1161" on="0"/>
        <pt x="403" y="1027" on="0"/>
        <pt x="337" y="839" on="0"/>
        <pt x="337" y="723" on="1"/>
        <pt x="337" y="598" on="0"/>
        <pt x="407" y="403" on="0"/>
        <pt x="533" y="269" on="0"/>
        <pt x="707" y="198" on="0"/>
      </contour>
    </TTGlyph>
    <TTGlyph name="H" xMin="146" yMin="0" xMax="1366" yMax="1446">
      <contour>
        <pt x="1366" y="0" on="1"/>
        <pt x="1095" y="0" on="1"/>
        <pt x="1095" y="632" on="1"/>
        <pt x="417" y="632" on="1"/>
        <pt x="417" y="0" on="1"/>
        <pt x="146" y="0" on="1"/>
        <pt x="146" y="1446" on="1"/>
        <pt x="417" y="1446" on="1"/>
        <pt x="417" y="824" on="1"/>
        <pt x="1095" y="824" on="1"/>
        <pt x="1095" y="1446" on="1"/>
        <pt x="1366" y="1446" on="1"/>
      </contour>
    </TTGlyph>
    <TTGlyph name="I" xMin="179" yMin="0" xMax="449" yMax="1446">
      <contour>
        <pt x="449" y="0" on="1"/>
        <pt x="179" y="0" on="1"/>
        <pt x="179" y="1446" on="1"/>
        <pt x="449" y="1446" on="1"/>
      </contour>
    </TTGlyph>
    <TTGlyph name="Iacute" xMin="129" yMin="0" xMax="703" yMax="1791">
      <component glyphName="I" x="0" y="0" flags="0x204"/>
      <component glyphName="acute.case" x="-16" y="0" flags="0x4"/>
    </TTGlyph>
    <TTGlyph name="Icircumflex" xMin="-47" yMin="0" xMax="683" yMax="1768">
      <component glyphName="I" x="0" y="0" flags="0x204"/>
      <component glyphName="circumflex.case" x="-1" y="0" flags="0x4"/>
    </TTGlyph>
    <TTGlyph name="Idieresis" xMin="-32" yMin="0" xMax="668" yMax="1802">
      <component glyphName="I" x="0" y="0" flags="0x204"/>
      <component glyphName="dieresis.case" x="-1" y="0" flags="0x4"/>
    </TTGlyph>
    <TTGlyph name="Igrave" xMin="-98" yMin="0" xMax="476" yMax="1791">
      <component glyphName="I" x="0" y="0" flags="0x204"/>
      <component glyphName="grave.case" x="-16" y="0" flags="0x4"/>
    </TTGlyph>
    <TTGlyph name="J" xMin="38" yMin="-16" xMax="728" yMax="1446">
      <contour>
        <pt x="728" y="514" on="1"/>
        <pt x="728" y="392" on="0"/>
        <pt x="668" y="196" on="0"/>
        <pt x="549" y="58" on="0"/>
        <pt x="371" y="-16" on="0"/>
        <pt x="253" y="-16" on="1"/>
        <pt x="199" y="-16" on="0"/>
        <pt x="95" y="-3" on="0"/>
        <pt x="38" y="11" on="1"/>
        <pt x="52" y="171" on="1"/>
        <pt x="54" y="193" on="0"/>
        <pt x="83" y="220" on="0"/>
        <pt x="111" y="220" on="1"/>
        <pt x="128" y="220" on="0"/>
        <pt x="183" y="206" on="0"/>
        <pt x="225" y="206" on="1"/>
        <pt x="282" y="206" on="0"/>
        <pt x="370" y="239" on="0"/>
        <pt x="429" y="311" on="0"/>
        <pt x="459" y="426" on="0"/>
        <pt x="459" y="508" on="1"/>
        <pt x="459" y="1446" on="1"/>
        <pt x="728" y="1446" on="1"/>
      </contour>
    </TTGlyph>
    <TTGlyph name="K" xMin="155" yMin="0" xMax="1383" yMax="1447">
      <contour>
        <pt x="424" y="840" on="1"/>
        <pt x="487" y="840" on="1"/>
        <pt x="525" y="840" on="0"/>
        <pt x="575" y="861" on="0"/>
        <pt x="593" y="884" on="1"/>
        <pt x="992" y="1389" on="1"/>
        <pt x="1017" y="1421" on="0"/>
        <pt x="1072" y="1446" on="0"/>
        <pt x="1114" y="1446" on="1"/>
        <pt x="1346" y="1446" on="1"/>
        <pt x="859" y="845" on="1"/>
        <pt x="836" y="817" on="0"/>
        <pt x="794" y="779" on="0"/>
        <pt x="770" y="767" on="1"/>
        <pt x="803" y="755" on="0"/>
        <pt x="856" y="711" on="0"/>
        <pt x="881" y="677" on="1"/>
        <pt x="1383" y="0" on="1"/>
        <pt x="1145" y="0" on="1"/>
        <pt x="1097" y="0" on="0"/>
        <pt x="1050" y="27" on="0"/>
        <pt x="1034" y="53" on="1"/>
        <pt x="625" y="587" on="1"/>
        <pt x="605" y="613" on="0"/>
        <pt x="555" y="636" on="0"/>
        <pt x="509" y="636" on="1"/>
        <pt x="424" y="636" on="1"/>
        <pt x="424" y="0" on="1"/>
        <pt x="155" y="0" on="1"/>
        <pt x="155" y="1447" on="1"/>
        <pt x="424" y="1447" on="1"/>
      </contour>
    </TTGlyph>
    <TTGlyph name="L" xMin="146" yMin="0" xMax="994" yMax="1446">
      <contour>
        <pt x="415" y="222" on="1"/>
        <pt x="994" y="222" on="1"/>
        <pt x="994" y="0" on="1"/>
        <pt x="146" y="0" on="1"/>
        <pt x="146" y="1446" on="1"/>
        <pt x="415" y="1446" on="1"/>
      </contour>
    </TTGlyph>
    <TTGlyph name="Lslash" xMin="34" yMin="0" xMax="1062" yMax="1446">
      <contour>
        <pt x="483" y="870" on="1"/>
        <pt x="841" y="1049" on="1"/>
        <pt x="841" y="869" on="1"/>
        <pt x="841" y="832" on="0"/>
        <pt x="808" y="815" on="1"/>
        <pt x="483" y="646" on="1"/>
        <pt x="483" y="222" on="1"/>
        <pt x="1062" y="222" on="1"/>
        <pt x="1062" y="0" on="1"/>
        <pt x="214" y="0" on="1"/>
        <pt x="214" y="528" on="1"/>
        <pt x="34" y="438" on="1"/>
        <pt x="34" y="623" on="1"/>
        <pt x="34" y="655" on="0"/>
        <pt x="65" y="671" on="1"/>
        <pt x="214" y="748" on="1"/>
        <pt x="214" y="1446" on="1"/>
        <pt x="483" y="1446" on="1"/>
      </contour>
    </TTGlyph>
    <TTGlyph name="M" xMin="146" yMin="0" xMax="1714" yMax="1446">
      <contour>
        <pt x="872" y="600" on="1"/>
        <pt x="889" y="568" on="0"/>
        <pt x="918" y="499" on="0"/>
        <pt x="932" y="464" on="1"/>
        <pt x="946" y="500" on="0"/>
        <pt x="976" y="570" on="0"/>
        <pt x="993" y="602" on="1"/>
        <pt x="1421" y="1403" on="1"/>
        <pt x="1429" y="1418" on="0"/>
        <pt x="1446" y="1436" on="0"/>
        <pt x="1467" y="1444" on="0"/>
        <pt x="1493" y="1446" on="0"/>
        <pt x="1511" y="1446" on="1"/>
        <pt x="1714" y="1446" on="1"/>
        <pt x="1714" y="0" on="1"/>
        <pt x="1477" y="0" on="1"/>
        <pt x="1477" y="934" on="1"/>
        <pt x="1477" y="960" on="0"/>
        <pt x="1480" y="1022" on="0"/>
        <pt x="1483" y="1054" on="1"/>
        <pt x="1046" y="234" on="1"/>
        <pt x="1031" y="206" on="0"/>
        <pt x="983" y="175" on="0"/>
        <pt x="951" y="175" on="1"/>
        <pt x="914" y="175" on="1"/>
        <pt x="882" y="175" on="0"/>
        <pt x="834" y="206" on="0"/>
        <pt x="819" y="234" on="1"/>
        <pt x="376" y="1057" on="1"/>
        <pt x="380" y="1024" on="0"/>
        <pt x="383" y="961" on="0"/>
        <pt x="383" y="934" on="1"/>
        <pt x="383" y="0" on="1"/>
        <pt x="146" y="0" on="1"/>
        <pt x="146" y="1446" on="1"/>
        <pt x="349" y="1446" on="1"/>
        <pt x="367" y="1446" on="0"/>
        <pt x="393" y="1444" on="0"/>
        <pt x="414" y="1436" on="0"/>
        <pt x="432" y="1418" on="0"/>
        <pt x="440" y="1403" on="1"/>
        <pt x="872" y="600" on="1"/>
      </contour>
    </TTGlyph>
    <TTGlyph name="N" xMin="146" yMin="0" xMax="1366" yMax="1446">
      <contour>
        <pt x="287" y="1446" on="1"/>
        <pt x="305" y="1446" on="0"/>
        <pt x="329" y="1443" on="0"/>
        <pt x="348" y="1434" on="0"/>
        <pt x="366" y="1417" on="0"/>
        <pt x="377" y="1403" on="1"/>
        <pt x="1136" y="436" on="1"/>
        <pt x="1132" y="471" on="0"/>
        <pt x="1129" y="538" on="0"/>
        <pt x="1129" y="567" on="1"/>
        <pt x="1129" y="1446" on="1"/>
        <pt x="1366" y="1446" on="1"/>
        <pt x="1366" y="0" on="1"/>
        <pt x="1227" y="0" on="1"/>
        <pt x="1195" y="0" on="0"/>
        <pt x="1153" y="20" on="0"/>
        <pt x="1133" y="46" on="1"/>
        <pt x="377" y="1009" on="1"/>
        <pt x="380" y="977" on="0"/>
        <pt x="383" y="914" on="0"/>
        <pt x="383" y="888" on="1"/>
        <pt x="383" y="0" on="1"/>
        <pt x="146" y="0" on="1"/>
        <pt x="146" y="1446" on="1"/>
        <pt x="287" y="1446" on="1"/>
      </contour>
    </TTGlyph>
    <TTGlyph name="Nacute" xMin="146" yMin="0" xMax="1366" yMax="1791">
      <component glyphName="N" x="0" y="0" flags="0x204"/>
      <component glyphName="acute.case" x="438" y="0" flags="0x4"/>
    </TTGlyph>
    <TTGlyph name="Ntilde" xMin="146" yMin="0" xMax="1366" yMax="1769">
      <component glyphName="N" x="0" y="0" flags="0x204"/>
      <component glyphName="tilde.case" x="453" y="0" flags="0x4"/>
    </TTGlyph>
    <TTGlyph name="O" xMin="67" yMin="-16" xMax="1533" yMax="1462">
      <contour>
        <pt x="1533" y="723" on="1"/>
        <pt x="1533" y="564" on="0"/>
        <pt x="1427" y="293" on="0"/>
        <pt x="1235" y="95" on="0"/>
        <pt x="965" y="-16" on="0"/>
        <pt x="801" y="-16" on="1"/>
        <pt x="637" y="-16" on="0"/>
        <pt x="366" y="95" on="0"/>
        <pt x="173" y="293" on="0"/>
        <pt x="67" y="564" on="0"/>
        <pt x="67" y="723" on="1"/>
        <pt x="67" y="882" on="0"/>
        <pt x="173" y="1153" on="0"/>
        <pt x="366" y="1351" on="0"/>
        <pt x="637" y="1462" on="0"/>
        <pt x="801" y="1462" on="1"/>
        <pt x="965" y="1462" on="0"/>
        <pt x="1235" y="1350" on="0"/>
        <pt x="1427" y="1153" on="0"/>
        <pt x="1533" y="882" on="0"/>
      </contour>
      <contour>
        <pt x="1257" y="723" on="1"/>
        <pt x="1257" y="842" on="0"/>
        <pt x="1194" y="1031" on="0"/>
        <pt x="1076" y="1163" on="0"/>
        <pt x="907" y="1233" on="0"/>
        <pt x="801" y="1233" on="1"/>
        <pt x="695" y="1233" on="0"/>
        <pt x="525" y="1163" on="0"/>
        <pt x="406" y="1031" on="0"/>
        <pt x="342" y="842" on="0"/>
        <pt x="342" y="723" on="1"/>
        <pt x="342" y="604" on="0"/>
        <pt x="406" y="415" on="0"/>
        <pt x="525" y="284" on="0"/>
        <pt x="695" y="214" on="0"/>
        <pt x="801" y="214" on="1"/>
        <pt x="907" y="214" on="0"/>
        <pt x="1076" y="284" on="0"/>
        <pt x="1194" y="415" on="0"/>
        <pt x="1257" y="604" on="0"/>
      </contour>
    </TTGlyph>
    <TTGlyph name="OE" xMin="67" yMin="-15" xMax="2075" yMax="1462">
      <contour>
        <pt x="2075" y="1446" on="1"/>
        <pt x="2075" y="1232" on="1"/>
        <pt x="1434" y="1232" on="1"/>
        <pt x="1434" y="831" on="1"/>
        <pt x="1940" y="831" on="1"/>
        <pt x="1940" y="624" on="1"/>
        <pt x="1434" y="624" on="1"/>
        <pt x="1434" y="215" on="1"/>
        <pt x="2075" y="215" on="1"/>
        <pt x="2075" y="0" on="1"/>
        <pt x="1195" y="0" on="1"/>
        <pt x="1195" y="185" on="1"/>
        <pt x="1108" y="91" on="0"/>
        <pt x="873" y="-15" on="0"/>
        <pt x="727" y="-15" on="1"/>
        <pt x="579" y="-15" on="0"/>
        <pt x="336" y="96" on="0"/>
        <pt x="162" y="293" on="0"/>
        <pt x="67" y="564" on="0"/>
        <pt x="67" y="723" on="1"/>
        <pt x="67" y="882" on="0"/>
        <pt x="162" y="1153" on="0"/>
        <pt x="336" y="1351" on="0"/>
        <pt x="579" y="1462" on="0"/>
        <pt x="727" y="1462" on="1"/>
        <pt x="872" y="1462" on="0"/>
        <pt x="1108" y="1356" on="0"/>
        <pt x="1195" y="1261" on="1"/>
        <pt x="1195" y="1446" on="1"/>
      </contour>
      <contour>
        <pt x="1164" y="723" on="1"/>
        <pt x="1164" y="842" on="0"/>
        <pt x="1108" y="1033" on="0"/>
        <pt x="1002" y="1168" on="0"/>
        <pt x="850" y="1240" on="0"/>
        <pt x="755" y="1240" on="1"/>
        <pt x="659" y="1240" on="0"/>
        <pt x="505" y="1168" on="0"/>
        <pt x="399" y="1033" on="0"/>
        <pt x="342" y="842" on="0"/>
        <pt x="342" y="723" on="1"/>
        <pt x="342" y="604" on="0"/>
        <pt x="399" y="413" on="0"/>
        <pt x="505" y="279" on="0"/>
        <pt x="659" y="207" on="0"/>
        <pt x="755" y="207" on="1"/>
        <pt x="850" y="207" on="0"/>
        <pt x="1002" y="279" on="0"/>
        <pt x="1108" y="413" on="0"/>
        <pt x="1164" y="604" on="0"/>
      </contour>
    </TTGlyph>
    <TTGlyph name="Oacute" xMin="67" yMin="-16" xMax="1533" yMax="1791">
      <component glyphName="O" x="0" y="0" flags="0x204"/>
      <component glyphName="acute.case" x="468" y="0" flags="0x4"/>
    </TTGlyph>
    <TTGlyph name="Ocircumflex" xMin="67" yMin="-16" xMax="1533" yMax="1768">
      <component glyphName="O" x="0" y="0" flags="0x204"/>
      <component glyphName="circumflex.case" x="484" y="0" flags="0x4"/>
    </TTGlyph>
    <TTGlyph name="Odieresis" xMin="67" yMin="-16" xMax="1533" yMax="1802">
      <component glyphName="O" x="0" y="0" flags="0x204"/>
      <component glyphName="dieresis.case" x="484" y="0" flags="0x4"/>
    </TTGlyph>
    <TTGlyph name="Ograve" xMin="67" yMin="-16" xMax="1533" yMax="1791">
      <component glyphName="O" x="0" y="0" flags="0x204"/>
      <component glyphName="grave.case" x="468" y="0" flags="0x4"/>
    </TTGlyph>
    <TTGlyph name="Omega" xMin="71" yMin="0" xMax="1409" yMax="1462">
      <contour>
        <pt x="811" y="0" on="1"/>
        <pt x="811" y="497" on="1"/>
        <pt x="880" y="508" on="0"/>
        <pt x="998" y="562" on="0"/>
        <pt x="1085" y="652" on="0"/>
        <pt x="1134" y="780" on="0"/>
        <pt x="1134" y="866" on="1"/>
        <pt x="1134" y="959" on="0"/>
        <pt x="1079" y="1101" on="0"/>
        <pt x="976" y="1198" on="0"/>
        <pt x="830" y="1248" on="0"/>
        <pt x="740" y="1248" on="1"/>
        <pt x="650" y="1248" on="0"/>
        <pt x="504" y="1198" on="0"/>
        <pt x="402" y="1101" on="0"/>
        <pt x="347" y="959" on="0"/>
        <pt x="347" y="866" on="1"/>
        <pt x="347" y="780" on="0"/>
        <pt x="396" y="652" on="0"/>
        <pt x="482" y="562" on="0"/>
        <pt x="600" y="508" on="0"/>
        <pt x="669" y="497" on="1"/>
        <pt x="669" y="0" on="1"/>
        <pt x="162" y="0" on="1"/>
        <pt x="120" y="0" on="0"/>
        <pt x="72" y="47" on="0"/>
        <pt x="72" y="84" on="1"/>
        <pt x="72" y="221" on="1"/>
        <pt x="461" y="221" on="1"/>
        <pt x="461" y="360" on="1"/>
        <pt x="368" y="384" on="0"/>
        <pt x="222" y="482" on="0"/>
        <pt x="123" y="618" on="0"/>
        <pt x="71" y="785" on="0"/>
        <pt x="71" y="880" on="1"/>
        <pt x="71" y="1001" on="0"/>
        <pt x="168" y="1213" on="0"/>
        <pt x="344" y="1371" on="0"/>
        <pt x="590" y="1462" on="0"/>
        <pt x="740" y="1462" on="1"/>
        <pt x="890" y="1462" on="0"/>
        <pt x="1136" y="1371" on="0"/>
        <pt x="1312" y="1213" on="0"/>
        <pt x="1409" y="1001" on="0"/>
        <pt x="1409" y="880" on="1"/>
        <pt x="1409" y="785" on="0"/>
        <pt x="1357" y="618" on="0"/>
        <pt x="1258" y="482" on="0"/>
        <pt x="1112" y="384" on="0"/>
        <pt x="1019" y="360" on="1"/>
        <pt x="1019" y="221" on="1"/>
        <pt x="1409" y="221" on="1"/>
        <pt x="1409" y="84" on="1"/>
        <pt x="1409" y="47" on="0"/>
        <pt x="1360" y="0" on="0"/>
        <pt x="1319" y="0" on="1"/>
      </contour>
    </TTGlyph>
    <TTGlyph name="Oslash" xMin="67" yMin="-111" xMax="1533" yMax="1512">
      <contour>
        <pt x="1533" y="723" on="1"/>
        <pt x="1533" y="564" on="0"/>
        <pt x="1427" y="293" on="0"/>
        <pt x="1235" y="95" on="0"/>
        <pt x="965" y="-16" on="0"/>
        <pt x="801" y="-16" on="1"/>
        <pt x="700" y="-16" on="0"/>
        <pt x="522" y="26" on="0"/>
        <pt x="444" y="66" on="1"/>
        <pt x="368" y="-39" on="1"/>
        <pt x="339" y="-79" on="0"/>
        <pt x="258" y="-111" on="0"/>
        <pt x="220" y="-111" on="1"/>
        <pt x="114" y="-111" on="1"/>
        <pt x="309" y="157" on="1"/>
        <pt x="194" y="257" on="0"/>
        <pt x="67" y="547" on="0"/>
        <pt x="67" y="723" on="1"/>
        <pt x="67" y="882" on="0"/>
        <pt x="173" y="1153" on="0"/>
        <pt x="366" y="1351" on="0"/>
        <pt x="637" y="1462" on="0"/>
        <pt x="801" y="1462" on="1"/>
        <pt x="911" y="1462" on="0"/>
        <pt x="1104" y="1412" on="0"/>
        <pt x="1186" y="1364" on="1"/>
        <pt x="1245" y="1446" on="1"/>
        <pt x="1258" y="1464" on="0"/>
        <pt x="1280" y="1490" on="0"/>
        <pt x="1305" y="1505" on="0"/>
        <pt x="1335" y="1512" on="0"/>
        <pt x="1357" y="1512" on="1"/>
        <pt x="1495" y="1512" on="1"/>
        <pt x="1316" y="1266" on="1"/>
        <pt x="1420" y="1166" on="0"/>
        <pt x="1533" y="889" on="0"/>
      </contour>
      <contour>
        <pt x="342" y="723" on="1"/>
        <pt x="342" y="608" on="0"/>
        <pt x="400" y="426" on="0"/>
        <pt x="456" y="360" on="1"/>
        <pt x="1045" y="1170" on="1"/>
        <pt x="941" y="1233" on="0"/>
        <pt x="801" y="1233" on="1"/>
        <pt x="695" y="1233" on="0"/>
        <pt x="525" y="1163" on="0"/>
        <pt x="406" y="1031" on="0"/>
        <pt x="342" y="842" on="0"/>
      </contour>
      <contour>
        <pt x="1257" y="723" on="1"/>
        <pt x="1257" y="826" on="0"/>
        <pt x="1210" y="994" on="0"/>
        <pt x="1165" y="1058" on="1"/>
        <pt x="585" y="260" on="1"/>
        <pt x="680" y="214" on="0"/>
        <pt x="801" y="214" on="1"/>
        <pt x="907" y="214" on="0"/>
        <pt x="1076" y="284" on="0"/>
        <pt x="1194" y="415" on="0"/>
        <pt x="1257" y="604" on="0"/>
      </contour>
    </TTGlyph>
    <TTGlyph name="Otilde" xMin="67" yMin="-16" xMax="1533" yMax="1769">
      <component glyphName="O" x="0" y="0" flags="0x204"/>
      <component glyphName="tilde.case" x="484" y="0" flags="0x4"/>
    </TTGlyph>
    <TTGlyph name="P" xMin="155" yMin="0" xMax="1187" yMax="1446">
      <contour>
        <pt x="424" y="509" on="1"/>
        <pt x="424" y="0" on="1"/>
        <pt x="155" y="0" on="1"/>
        <pt x="155" y="1446" on="1"/>
        <pt x="626" y="1446" on="1"/>
        <pt x="771" y="1446" on="0"/>
        <pt x="983" y="1378" on="0"/>
        <pt x="1121" y="1256" on="0"/>
        <pt x="1187" y="1086" on="0"/>
        <pt x="1187" y="985" on="1"/>
        <pt x="1187" y="880" on="0"/>
        <pt x="1117" y="705" on="0"/>
        <pt x="977" y="579" on="0"/>
        <pt x="767" y="509" on="0"/>
        <pt x="626" y="509" on="1"/>
      </contour>
      <contour>
        <pt x="424" y="719" on="1"/>
        <pt x="626" y="719" on="1"/>
        <pt x="700" y="719" on="0"/>
        <pt x="810" y="756" on="0"/>
        <pt x="882" y="825" on="0"/>
        <pt x="918" y="924" on="0"/>
        <pt x="918" y="985" on="1"/>
        <pt x="918" y="1043" on="0"/>
        <pt x="882" y="1137" on="0"/>
        <pt x="810" y="1203" on="0"/>
        <pt x="700" y="1238" on="0"/>
        <pt x="626" y="1238" on="1"/>
        <pt x="424" y="1238" on="1"/>
      </contour>
    </TTGlyph>
    <TTGlyph name="Q" xMin="67" yMin="-283" xMax="1608" yMax="1462">
      <contour>
        <pt x="1533" y="723" on="1"/>
        <pt x="1533" y="626" on="0"/>
        <pt x="1493" y="449" on="0"/>
        <pt x="1418" y="295" on="0"/>
        <pt x="1310" y="166" on="0"/>
        <pt x="1241" y="117" on="1"/>
        <pt x="1608" y="-283" on="1"/>
        <pt x="1386" y="-283" on="1"/>
        <pt x="1338" y="-283" on="0"/>
        <pt x="1261" y="-257" on="0"/>
        <pt x="1229" y="-222" on="1"/>
        <pt x="1017" y="12" on="1"/>
        <pt x="966" y="-2" on="0"/>
        <pt x="859" y="-16" on="0"/>
        <pt x="801" y="-16" on="1"/>
        <pt x="637" y="-16" on="0"/>
        <pt x="366" y="95" on="0"/>
        <pt x="173" y="293" on="0"/>
        <pt x="67" y="564" on="0"/>
        <pt x="67" y="723" on="1"/>
        <pt x="67" y="882" on="0"/>
        <pt x="173" y="1153" on="0"/>
        <pt x="366" y="1351" on="0"/>
        <pt x="637" y="1462" on="0"/>
        <pt x="801" y="1462" on="1"/>
        <pt x="965" y="1462" on="0"/>
        <pt x="1235" y="1350" on="0"/>
        <pt x="1427" y="1153" on="0"/>
        <pt x="1533" y="882" on="0"/>
      </contour>
      <contour>
        <pt x="1257" y="723" on="1"/>
        <pt x="1257" y="842" on="0"/>
        <pt x="1194" y="1031" on="0"/>
        <pt x="1076" y="1163" on="0"/>
        <pt x="907" y="1233" on="0"/>
        <pt x="801" y="1233" on="1"/>
        <pt x="695" y="1233" on="0"/>
        <pt x="525" y="1163" on="0"/>
        <pt x="406" y="1031" on="0"/>
        <pt x="342" y="842" on="0"/>
        <pt x="342" y="723" on="1"/>
        <pt x="342" y="604" on="0"/>
        <pt x="406" y="415" on="0"/>
        <pt x="525" y="284" on="0"/>
        <pt x="695" y="214" on="0"/>
        <pt x="801" y="214" on="1"/>
        <pt x="907" y="214" on="0"/>
        <pt x="1076" y="284" on="0"/>
        <pt x="1194" y="415" on="0"/>
        <pt x="1257" y="604" on="0"/>
      </contour>
    </TTGlyph>
    <TTGlyph name="R" xMin="155" yMin="0" xMax="1284" yMax="1446">
      <contour>
        <pt x="424" y="565" on="1"/>
        <pt x="424" y="0" on="1"/>
        <pt x="155" y="0" on="1"/>
        <pt x="155" y="1446" on="1"/>
        <pt x="596" y="1446" on="1"/>
        <pt x="744" y="1446" on="0"/>
        <pt x="955" y="1385" on="0"/>
        <pt x="1090" y="1275" on="0"/>
        <pt x="1153" y="1122" on="0"/>
        <pt x="1153" y="1030" on="1"/>
        <pt x="1153" y="957" on="0"/>
        <pt x="1110" y="827" on="0"/>
        <pt x="1029" y="721" on="0"/>
        <pt x="910" y="641" on="0"/>
        <pt x="834" y="617" on="1"/>
        <pt x="885" y="588" on="0"/>
        <pt x="922" y="534" on="1"/>
        <pt x="1284" y="0" on="1"/>
        <pt x="1042" y="0" on="1"/>
        <pt x="1007" y="0" on="0"/>
        <pt x="958" y="28" on="0"/>
        <pt x="941" y="54" on="1"/>
        <pt x="637" y="517" on="1"/>
        <pt x="620" y="543" on="0"/>
        <pt x="579" y="565" on="0"/>
        <pt x="539" y="565" on="1"/>
      </contour>
      <contour>
        <pt x="424" y="758" on="1"/>
        <pt x="592" y="758" on="1"/>
        <pt x="668" y="758" on="0"/>
        <pt x="781" y="796" on="0"/>
        <pt x="854" y="863" on="0"/>
        <pt x="890" y="955" on="0"/>
        <pt x="890" y="1010" on="1"/>
        <pt x="890" y="1120" on="0"/>
        <pt x="745" y="1238" on="0"/>
        <pt x="596" y="1238" on="1"/>
        <pt x="424" y="1238" on="1"/>
      </contour>
    </TTGlyph>
    <TTGlyph name="S" xMin="36" yMin="-16" xMax="1013" yMax="1462">
      <contour>
        <pt x="921" y="1183" on="1"/>
        <pt x="910" y="1161" on="0"/>
        <pt x="881" y="1143" on="0"/>
        <pt x="861" y="1143" on="1"/>
        <pt x="841" y="1143" on="0"/>
        <pt x="791" y="1174" on="0"/>
        <pt x="723" y="1212" on="0"/>
        <pt x="632" y="1243" on="0"/>
        <pt x="570" y="1243" on="1"/>
        <pt x="514" y="1243" on="0"/>
        <pt x="431" y="1216" on="0"/>
        <pt x="374" y="1168" on="0"/>
        <pt x="346" y="1101" on="0"/>
        <pt x="346" y="1061" on="1"/>
        <pt x="346" y="1010" on="0"/>
        <pt x="403" y="942" on="0"/>
        <pt x="497" y="894" on="0"/>
        <pt x="617" y="856" on="0"/>
        <pt x="742" y="813" on="0"/>
        <pt x="862" y="756" on="0"/>
        <pt x="956" y="669" on="0"/>
        <pt x="1013" y="543" on="0"/>
        <pt x="1013" y="453" on="1"/>
        <pt x="1013" y="355" on="0"/>
        <pt x="946" y="184" on="0"/>
        <pt x="817" y="57" on="0"/>
        <pt x="631" y="-16" on="0"/>
        <pt x="511" y="-16" on="1"/>
        <pt x="442" y="-16" on="0"/>
        <pt x="308" y="11" on="0"/>
        <pt x="185" y="61" on="0"/>
        <pt x="78" y="131" on="0"/>
        <pt x="36" y="174" on="1"/>
        <pt x="114" y="303" on="1"/>
        <pt x="125" y="317" on="0"/>
        <pt x="156" y="336" on="0"/>
        <pt x="175" y="336" on="1"/>
        <pt x="200" y="336" on="0"/>
        <pt x="258" y="295" on="0"/>
        <pt x="337" y="245" on="0"/>
        <pt x="444" y="204" on="0"/>
        <pt x="519" y="204" on="1"/>
        <pt x="634" y="204" on="0"/>
        <pt x="760" y="313" on="0"/>
        <pt x="760" y="415" on="1"/>
        <pt x="760" y="472" on="0"/>
        <pt x="703" y="544" on="0"/>
        <pt x="609" y="593" on="0"/>
        <pt x="489" y="627" on="0"/>
        <pt x="365" y="667" on="0"/>
        <pt x="245" y="723" on="0"/>
        <pt x="151" y="813" on="0"/>
        <pt x="94" y="948" on="0"/>
        <pt x="94" y="1047" on="1"/>
        <pt x="94" y="1126" on="0"/>
        <pt x="157" y="1276" on="0"/>
        <pt x="278" y="1392" on="0"/>
        <pt x="454" y="1462" on="0"/>
        <pt x="567" y="1462" on="1"/>
        <pt x="695" y="1462" on="0"/>
        <pt x="911" y="1382" on="0"/>
        <pt x="987" y="1310" on="1"/>
      </contour>
    </TTGlyph>
    <TTGlyph name="Sacute" xMin="36" yMin="-16" xMax="1013" yMax="1791">
      <component glyphName="S" x="0" y="0" flags="0x4"/>
      <component glyphName="acute.case" x="258" y="0" flags="0x4"/>
    </TTGlyph>
    <TTGlyph name="Scaron" xMin="36" yMin="-16" xMax="1013" yMax="1768">
      <component glyphName="S" x="0" y="0" flags="0x204"/>
      <component glyphName="caron.case" x="263" y="0" flags="0x4"/>
    </TTGlyph>
    <TTGlyph name="T" xMin="24" yMin="0" xMax="1165" yMax="1446">
      <contour>
        <pt x="1165" y="1446" on="1"/>
        <pt x="1165" y="1225" on="1"/>
        <pt x="730" y="1225" on="1"/>
        <pt x="730" y="0" on="1"/>
        <pt x="461" y="0" on="1"/>
        <pt x="461" y="1225" on="1"/>
        <pt x="24" y="1225" on="1"/>
        <pt x="24" y="1446" on="1"/>
      </contour>
    </TTGlyph>
    <TTGlyph name="Thorn" xMin="155" yMin="0" xMax="1187" yMax="1446">
      <contour>
        <pt x="424" y="261" on="1"/>
        <pt x="424" y="0" on="1"/>
        <pt x="155" y="0" on="1"/>
        <pt x="155" y="1446" on="1"/>
        <pt x="424" y="1446" on="1"/>
        <pt x="424" y="1198" on="1"/>
        <pt x="626" y="1198" on="1"/>
        <pt x="771" y="1198" on="0"/>
        <pt x="983" y="1130" on="0"/>
        <pt x="1121" y="1008" on="0"/>
        <pt x="1187" y="838" on="0"/>
        <pt x="1187" y="737" on="1"/>
        <pt x="1187" y="632" on="0"/>
        <pt x="1117" y="457" on="0"/>
        <pt x="977" y="331" on="0"/>
        <pt x="767" y="261" on="0"/>
        <pt x="626" y="261" on="1"/>
      </contour>
      <contour>
        <pt x="424" y="471" on="1"/>
        <pt x="626" y="471" on="1"/>
        <pt x="700" y="471" on="0"/>
        <pt x="810" y="508" on="0"/>
        <pt x="882" y="577" on="0"/>
        <pt x="918" y="676" on="0"/>
        <pt x="918" y="737" on="1"/>
        <pt x="918" y="795" on="0"/>
        <pt x="882" y="889" on="0"/>
        <pt x="810" y="955" on="0"/>
        <pt x="700" y="990" on="0"/>
        <pt x="626" y="990" on="1"/>
        <pt x="424" y="990" on="1"/>
      </contour>
    </TTGlyph>
    <TTGlyph name="U" xMin="129" yMin="-16" xMax="1328" yMax="1446">
      <contour>
        <pt x="728" y="217" on="1"/>
        <pt x="806" y="217" on="0"/>
        <pt x="929" y="269" on="0"/>
        <pt x="1014" y="363" on="0"/>
        <pt x="1059" y="497" on="0"/>
        <pt x="1059" y="580" on="1"/>
        <pt x="1059" y="1446" on="1"/>
        <pt x="1328" y="1446" on="1"/>
        <pt x="1328" y="580" on="1"/>
        <pt x="1328" y="451" on="0"/>
        <pt x="1245" y="232" on="0"/>
        <pt x="1089" y="73" on="0"/>
        <pt x="867" y="-16" on="0"/>
        <pt x="728" y="-16" on="1"/>
        <pt x="589" y="-16" on="0"/>
        <pt x="367" y="73" on="0"/>
        <pt x="212" y="232" on="0"/>
        <pt x="129" y="451" on="0"/>
        <pt x="129" y="580" on="1"/>
        <pt x="129" y="1446" on="1"/>
        <pt x="398" y="1446" on="1"/>
        <pt x="398" y="581" on="1"/>
        <pt x="398" y="498" on="0"/>
        <pt x="443" y="364" on="0"/>
        <pt x="527" y="269" on="0"/>
        <pt x="650" y="217" on="0"/>
      </contour>
    </TTGlyph>
    <TTGlyph name="Uacute" xMin="129" yMin="-16" xMax="1328" yMax="1791">
      <component glyphName="U" x="0" y="0" flags="0x204"/>
      <component glyphName="acute.case" x="394" y="0" flags="0x4"/>
    </TTGlyph>
    <TTGlyph name="Ucircumflex" xMin="129" yMin="-16" xMax="1328" yMax="1768">
      <component glyphName="U" x="0" y="0" flags="0x204"/>
      <component glyphName="circumflex.case" x="409" y="0" flags="0x4"/>
    </TTGlyph>
    <TTGlyph name="Udieresis" xMin="129" yMin="-16" xMax="1328" yMax="1802">
      <component glyphName="U" x="0" y="0" flags="0x204"/>
      <component glyphName="dieresis.case" x="409" y="0" flags="0x4"/>
    </TTGlyph>
    <TTGlyph name="Ugrave" xMin="129" yMin="-16" xMax="1328" yMax="1791">
      <component glyphName="U" x="0" y="0" flags="0x204"/>
      <component glyphName="grave.case" x="394" y="0" flags="0x4"/>
    </TTGlyph>
    <TTGlyph name="V" xMin="4" yMin="0" xMax="1415" yMax="1446">
      <contour>
        <pt x="4" y="1446" on="1"/>
        <pt x="221" y="1446" on="1"/>
        <pt x="256" y="1446" on="0"/>
        <pt x="300" y="1412" on="0"/>
        <pt x="311" y="1385" on="1"/>
        <pt x="651" y="503" on="1"/>
        <pt x="668" y="460" on="0"/>
        <pt x="699" y="357" on="0"/>
        <pt x="713" y="300" on="1"/>
        <pt x="736" y="415" on="0"/>
        <pt x="770" y="503" on="1"/>
        <pt x="1109" y="1385" on="1"/>
        <pt x="1118" y="1408" on="0"/>
        <pt x="1164" y="1446" on="0"/>
        <pt x="1198" y="1446" on="1"/>
        <pt x="1415" y="1446" on="1"/>
        <pt x="831" y="0" on="1"/>
        <pt x="588" y="0" on="1"/>
      </contour>
    </TTGlyph>
    <TTGlyph name="W" xMin="12" yMin="0" xMax="2081" yMax="1446">
      <contour>
        <pt x="12" y="1446" on="1"/>
        <pt x="238" y="1446" on="1"/>
        <pt x="273" y="1446" on="0"/>
        <pt x="320" y="1413" on="0"/>
        <pt x="328" y="1385" on="1"/>
        <pt x="574" y="520" on="1"/>
        <pt x="583" y="488" on="0"/>
        <pt x="598" y="413" on="0"/>
        <pt x="605" y="371" on="1"/>
        <pt x="613" y="413" on="0"/>
        <pt x="632" y="488" on="0"/>
        <pt x="643" y="520" on="1"/>
        <pt x="927" y="1385" on="1"/>
        <pt x="935" y="1408" on="0"/>
        <pt x="982" y="1446" on="0"/>
        <pt x="1016" y="1446" on="1"/>
        <pt x="1095" y="1446" on="1"/>
        <pt x="1130" y="1446" on="0"/>
        <pt x="1176" y="1413" on="0"/>
        <pt x="1185" y="1385" on="1"/>
        <pt x="1467" y="520" on="1"/>
        <pt x="1489" y="456" on="0"/>
        <pt x="1505" y="378" on="1"/>
        <pt x="1512" y="417" on="0"/>
        <pt x="1527" y="489" on="0"/>
        <pt x="1535" y="520" on="1"/>
        <pt x="1781" y="1385" on="1"/>
        <pt x="1788" y="1410" on="0"/>
        <pt x="1836" y="1446" on="0"/>
        <pt x="1870" y="1446" on="1"/>
        <pt x="2081" y="1446" on="1"/>
        <pt x="1632" y="0" on="1"/>
        <pt x="1389" y="0" on="1"/>
        <pt x="1073" y="988" on="1"/>
        <pt x="1067" y="1007" on="0"/>
        <pt x="1054" y="1051" on="0"/>
        <pt x="1048" y="1076" on="1"/>
        <pt x="1042" y="1051" on="0"/>
        <pt x="1029" y="1007" on="0"/>
        <pt x="1023" y="988" on="1"/>
        <pt x="704" y="0" on="1"/>
        <pt x="461" y="0" on="1"/>
      </contour>
    </TTGlyph>
    <TTGlyph name="X" xMin="12" yMin="0" xMax="1346" yMax="1446">
      <contour>
        <pt x="493" y="744" on="1"/>
        <pt x="32" y="1446" on="1"/>
        <pt x="300" y="1446" on="1"/>
        <pt x="328" y="1446" on="0"/>
        <pt x="353" y="1431" on="0"/>
        <pt x="363" y="1414" on="1"/>
        <pt x="692" y="883" on="1"/>
        <pt x="697" y="896" on="0"/>
        <pt x="709" y="921" on="0"/>
        <pt x="717" y="934" on="1"/>
        <pt x="1018" y="1409" on="1"/>
        <pt x="1040" y="1446" on="0"/>
        <pt x="1075" y="1446" on="1"/>
        <pt x="1333" y="1446" on="1"/>
        <pt x="867" y="755" on="1"/>
        <pt x="1346" y="0" on="1"/>
        <pt x="1077" y="0" on="1"/>
        <pt x="1050" y="0" on="0"/>
        <pt x="1017" y="28" on="0"/>
        <pt x="1006" y="46" on="1"/>
        <pt x="671" y="600" on="1"/>
        <pt x="667" y="588" on="0"/>
        <pt x="657" y="567" on="0"/>
        <pt x="652" y="558" on="1"/>
        <pt x="331" y="46" on="1"/>
        <pt x="320" y="29" on="0"/>
        <pt x="288" y="0" on="0"/>
        <pt x="264" y="0" on="1"/>
        <pt x="12" y="0" on="1"/>
      </contour>
    </TTGlyph>
    <TTGlyph name="Y" xMin="-7" yMin="0" xMax="1315" yMax="1446">
      <contour>
        <pt x="789" y="562" on="1"/>
        <pt x="789" y="0" on="1"/>
        <pt x="520" y="0" on="1"/>
        <pt x="520" y="562" on="1"/>
        <pt x="-7" y="1446" on="1"/>
        <pt x="230" y="1446" on="1"/>
        <pt x="265" y="1446" on="0"/>
        <pt x="306" y="1412" on="0"/>
        <pt x="320" y="1386" on="1"/>
        <pt x="585" y="903" on="1"/>
        <pt x="608" y="860" on="0"/>
        <pt x="642" y="783" on="0"/>
        <pt x="656" y="746" on="1"/>
        <pt x="669" y="784" on="0"/>
        <pt x="702" y="861" on="0"/>
        <pt x="725" y="903" on="1"/>
        <pt x="988" y="1386" on="1"/>
        <pt x="999" y="1408" on="0"/>
        <pt x="1043" y="1446" on="0"/>
        <pt x="1077" y="1446" on="1"/>
        <pt x="1315" y="1446" on="1"/>
      </contour>
    </TTGlyph>
    <TTGlyph name="Yacute" xMin="-7" yMin="0" xMax="1315" yMax="1791">
      <component glyphName="Y" x="0" y="0" flags="0x204"/>
      <component glyphName="acute.case" x="322" y="0" flags="0x4"/>
    </TTGlyph>
    <TTGlyph name="Ydieresis" xMin="-7" yMin="0" xMax="1315" yMax="1802">
      <component glyphName="Y" x="0" y="0" flags="0x204"/>
      <component glyphName="dieresis.case" x="338" y="0" flags="0x4"/>
    </TTGlyph>
    <TTGlyph name="Z" xMin="62" yMin="0" xMax="1179" yMax="1446">
      <contour>
        <pt x="1179" y="1446" on="1"/>
        <pt x="1179" y="1347" on="1"/>
        <pt x="1179" y="1301" on="0"/>
        <pt x="1153" y="1263" on="1"/>
        <pt x="411" y="215" on="1"/>
        <pt x="1161" y="215" on="1"/>
        <pt x="1161" y="0" on="1"/>
        <pt x="62" y="0" on="1"/>
        <pt x="62" y="106" on="1"/>
        <pt x="62" y="126" on="0"/>
        <pt x="76" y="163" on="0"/>
        <pt x="87" y="179" on="1"/>
        <pt x="831" y="1232" on="1"/>
        <pt x="109" y="1232" on="1"/>
        <pt x="109" y="1446" on="1"/>
      </contour>
    </TTGlyph>
    <TTGlyph name="Zacute" xMin="62" yMin="0" xMax="1179" yMax="1791">
      <component glyphName="Z" x="0" y="0" flags="0x204"/>
      <component glyphName="acute.case" x="313" y="0" flags="0x4"/>
    </TTGlyph>
    <TTGlyph name="Zcaron" xMin="62" yMin="0" xMax="1179" yMax="1767">
      <component glyphName="Z" x="0" y="0" flags="0x204"/>
      <component glyphName="caron.case" x="329" y="-1" flags="0x4"/>
    </TTGlyph>
    <TTGlyph name="Zdotaccent" xMin="62" yMin="0" xMax="1179" yMax="1846">
      <component glyphName="Z" x="0" y="0" flags="0x204"/>
      <component glyphName="dotaccent.case" x="329" y="-1" flags="0x4"/>
    </TTGlyph>
    <TTGlyph name="a" xMin="81" yMin="-16" xMax="936" yMax="1045">
      <contour>
        <pt x="936" y="0" on="1"/>
        <pt x="825" y="0" on="1"/>
        <pt x="790" y="0" on="0"/>
        <pt x="750" y="21" on="0"/>
        <pt x="740" y="53" on="1"/>
        <pt x="718" y="126" on="1"/>
        <pt x="679" y="91" on="0"/>
        <pt x="604" y="38" on="0"/>
        <pt x="524" y="2" on="0"/>
        <pt x="434" y="-16" on="0"/>
        <pt x="379" y="-16" on="1"/>
        <pt x="314" y="-16" on="0"/>
        <pt x="204" y="19" on="0"/>
        <pt x="125" y="89" on="0"/>
        <pt x="81" y="193" on="0"/>
        <pt x="81" y="262" on="1"/>
        <pt x="81" y="320" on="0"/>
        <pt x="142" y="433" on="0"/>
        <pt x="284" y="524" on="0"/>
        <pt x="520" y="584" on="0"/>
        <pt x="695" y="588" on="1"/>
        <pt x="695" y="648" on="1"/>
        <pt x="695" y="751" on="0"/>
        <pt x="608" y="850" on="0"/>
        <pt x="525" y="850" on="1"/>
        <pt x="465" y="850" on="0"/>
        <pt x="385" y="822" on="0"/>
        <pt x="326" y="787" on="0"/>
        <pt x="276" y="759" on="0"/>
        <pt x="246" y="759" on="1"/>
        <pt x="221" y="759" on="0"/>
        <pt x="185" y="785" on="0"/>
        <pt x="174" y="804" on="1"/>
        <pt x="129" y="883" on="1"/>
        <pt x="306" y="1045" on="0"/>
        <pt x="556" y="1045" on="1"/>
        <pt x="646" y="1045" on="0"/>
        <pt x="787" y="986" on="0"/>
        <pt x="885" y="881" on="0"/>
        <pt x="936" y="735" on="0"/>
        <pt x="936" y="648" on="1"/>
      </contour>
      <contour>
        <pt x="456" y="154" on="1"/>
        <pt x="494" y="154" on="0"/>
        <pt x="558" y="168" on="0"/>
        <pt x="615" y="196" on="0"/>
        <pt x="668" y="237" on="0"/>
        <pt x="695" y="265" on="1"/>
        <pt x="695" y="438" on="1"/>
        <pt x="587" y="433" on="0"/>
        <pt x="442" y="406" on="0"/>
        <pt x="354" y="364" on="0"/>
        <pt x="317" y="308" on="0"/>
        <pt x="317" y="275" on="1"/>
        <pt x="317" y="210" on="0"/>
        <pt x="394" y="154" on="0"/>
      </contour>
    </TTGlyph>
    <TTGlyph name="aacute" xMin="81" yMin="-16" xMax="936" yMax="1462">
      <component glyphName="a" x="0" y="0" flags="0x204"/>
      <component glyphName="acute" x="227" y="0" flags="0x4"/>
    </TTGlyph>
    <TTGlyph name="acircumflex" xMin="81" yMin="-16" xMax="936" yMax="1446">
      <component glyphName="a" x="0" y="0" flags="0x204"/>
      <component glyphName="circumflex" x="227" y="0" flags="0x4"/>
    </TTGlyph>
    <TTGlyph name="acute" xMin="188" yMin="1166" xMax="665" yMax="1462">
      <contour>
        <pt x="665" y="1462" on="1"/>
        <pt x="418" y="1201" on="1"/>
        <pt x="399" y="1181" on="0"/>
        <pt x="364" y="1166" on="0"/>
        <pt x="336" y="1166" on="1"/>
        <pt x="188" y="1166" on="1"/>
        <pt x="330" y="1409" on="1"/>
        <pt x="345" y="1435" on="0"/>
        <pt x="385" y="1462" on="0"/>
        <pt x="425" y="1462" on="1"/>
      </contour>
    </TTGlyph>
    <TTGlyph name="acute.case" xMin="145" yMin="1549" xMax="719" yMax="1791">
      <contour>
        <pt x="719" y="1791" on="1"/>
        <pt x="423" y="1575" on="1"/>
        <pt x="412" y="1567" on="0"/>
        <pt x="393" y="1557" on="0"/>
        <pt x="374" y="1551" on="0"/>
        <pt x="353" y="1549" on="0"/>
        <pt x="339" y="1549" on="1"/>
        <pt x="145" y="1549" on="1"/>
        <pt x="341" y="1751" on="1"/>
        <pt x="353" y="1763" on="0"/>
        <pt x="374" y="1779" on="0"/>
        <pt x="396" y="1788" on="0"/>
        <pt x="424" y="1791" on="0"/>
        <pt x="444" y="1791" on="1"/>
      </contour>
    </TTGlyph>
    <TTGlyph name="adieresis" xMin="81" yMin="-16" xMax="936" yMax="1432">
      <component glyphName="a" x="0" y="0" flags="0x204"/>
      <component glyphName="dieresis" x="227" y="0" flags="0x4"/>
    </TTGlyph>
    <TTGlyph name="ae" xMin="81" yMin="-16" xMax="1582" yMax="1045">
      <contour>
        <pt x="1174" y="1042" on="1"/>
        <pt x="1261" y="1042" on="0"/>
        <pt x="1411" y="975" on="0"/>
        <pt x="1520" y="849" on="0"/>
        <pt x="1582" y="669" on="0"/>
        <pt x="1582" y="557" on="1"/>
        <pt x="1582" y="529" on="0"/>
        <pt x="1577" y="492" on="0"/>
        <pt x="1565" y="471" on="0"/>
        <pt x="1544" y="462" on="0"/>
        <pt x="1527" y="462" on="1"/>
        <pt x="929" y="462" on="1"/>
        <pt x="943" y="315" on="0"/>
        <pt x="1082" y="176" on="0"/>
        <pt x="1192" y="176" on="1"/>
        <pt x="1260" y="176" on="0"/>
        <pt x="1345" y="202" on="0"/>
        <pt x="1401" y="234" on="0"/>
        <pt x="1439" y="260" on="0"/>
        <pt x="1460" y="260" on="1"/>
        <pt x="1478" y="260" on="0"/>
        <pt x="1502" y="248" on="0"/>
        <pt x="1510" y="237" on="1"/>
        <pt x="1576" y="153" on="1"/>
        <pt x="1535" y="105" on="0"/>
        <pt x="1437" y="40" on="0"/>
        <pt x="1330" y="1" on="0"/>
        <pt x="1220" y="-15" on="0"/>
        <pt x="1168" y="-15" on="1"/>
        <pt x="1059" y="-15" on="0"/>
        <pt x="870" y="83" on="0"/>
        <pt x="809" y="187" on="1"/>
        <pt x="779" y="133" on="0"/>
        <pt x="691" y="57" on="0"/>
        <pt x="585" y="7" on="0"/>
        <pt x="465" y="-16" on="0"/>
        <pt x="404" y="-16" on="1"/>
        <pt x="329" y="-16" on="0"/>
        <pt x="210" y="22" on="0"/>
        <pt x="126" y="95" on="0"/>
        <pt x="81" y="204" on="0"/>
        <pt x="81" y="275" on="1"/>
        <pt x="81" y="333" on="0"/>
        <pt x="142" y="450" on="0"/>
        <pt x="284" y="546" on="0"/>
        <pt x="520" y="609" on="0"/>
        <pt x="695" y="613" on="1"/>
        <pt x="695" y="648" on="1"/>
        <pt x="695" y="751" on="0"/>
        <pt x="608" y="857" on="0"/>
        <pt x="525" y="857" on="1"/>
        <pt x="465" y="857" on="0"/>
        <pt x="385" y="826" on="0"/>
        <pt x="326" y="790" on="0"/>
        <pt x="276" y="759" on="0"/>
        <pt x="246" y="759" on="1"/>
        <pt x="221" y="759" on="0"/>
        <pt x="185" y="785" on="0"/>
        <pt x="174" y="804" on="1"/>
        <pt x="129" y="883" on="1"/>
        <pt x="218" y="964" on="0"/>
        <pt x="411" y="1045" on="0"/>
        <pt x="529" y="1045" on="1"/>
        <pt x="645" y="1045" on="0"/>
        <pt x="793" y="957" on="0"/>
        <pt x="832" y="880" on="1"/>
        <pt x="889" y="955" on="0"/>
        <pt x="1059" y="1042" on="0"/>
      </contour>
      <contour>
        <pt x="695" y="462" on="1"/>
        <pt x="587" y="457" on="0"/>
        <pt x="442" y="426" on="0"/>
        <pt x="354" y="380" on="0"/>
        <pt x="317" y="320" on="0"/>
        <pt x="317" y="287" on="1"/>
        <pt x="317" y="218" on="0"/>
        <pt x="395" y="154" on="0"/>
        <pt x="463" y="154" on="1"/>
        <pt x="512" y="154" on="0"/>
        <pt x="597" y="184" on="0"/>
        <pt x="659" y="247" on="0"/>
        <pt x="695" y="347" on="0"/>
        <pt x="695" y="416" on="1"/>
      </contour>
      <contour>
        <pt x="1163" y="865" on="1"/>
        <pt x="1058" y="865" on="0"/>
        <pt x="943" y="732" on="0"/>
        <pt x="930" y="611" on="1"/>
        <pt x="1363" y="611" on="1"/>
        <pt x="1363" y="660" on="0"/>
        <pt x="1339" y="752" on="0"/>
        <pt x="1290" y="823" on="0"/>
        <pt x="1214" y="865" on="0"/>
      </contour>
    </TTGlyph>
    <TTGlyph name="agrave" xMin="81" yMin="-16" xMax="936" yMax="1462">
      <component glyphName="a" x="0" y="0" flags="0x204"/>
      <component glyphName="grave" x="227" y="0" flags="0x4"/>
    </TTGlyph>
    <TTGlyph name="ampersand" xMin="64" yMin="-16" xMax="1432" yMax="1462">
      <contour>
        <pt x="663" y="1462" on="1"/>
        <pt x="751" y="1462" on="0"/>
        <pt x="890" y="1408" on="0"/>
        <pt x="989" y="1318" on="0"/>
        <pt x="1046" y="1202" on="0"/>
        <pt x="1051" y="1140" on="1"/>
        <pt x="894" y="1107" on="1"/>
        <pt x="891" y="1106" on="0"/>
        <pt x="884" y="1106" on="0"/>
        <pt x="881" y="1106" on="1"/>
        <pt x="864" y="1106" on="0"/>
        <pt x="837" y="1125" on="0"/>
        <pt x="829" y="1145" on="1"/>
        <pt x="820" y="1171" on="0"/>
        <pt x="792" y="1218" on="0"/>
        <pt x="752" y="1253" on="0"/>
        <pt x="698" y="1274" on="0"/>
        <pt x="663" y="1274" on="1"/>
        <pt x="621" y="1274" on="0"/>
        <pt x="555" y="1245" on="0"/>
        <pt x="509" y="1196" on="0"/>
        <pt x="485" y="1131" on="0"/>
        <pt x="485" y="1095" on="1"/>
        <pt x="485" y="1065" on="0"/>
        <pt x="498" y="1009" on="0"/>
        <pt x="526" y="953" on="0"/>
        <pt x="571" y="894" on="0"/>
        <pt x="604" y="860" on="1"/>
        <pt x="988" y="461" on="1"/>
        <pt x="1021" y="524" on="0"/>
        <pt x="1061" y="664" on="0"/>
        <pt x="1067" y="736" on="1"/>
        <pt x="1069" y="759" on="0"/>
        <pt x="1095" y="787" on="0"/>
        <pt x="1118" y="787" on="1"/>
        <pt x="1273" y="787" on="1"/>
        <pt x="1272" y="655" on="0"/>
        <pt x="1198" y="415" on="0"/>
        <pt x="1129" y="314" on="1"/>
        <pt x="1432" y="0" on="1"/>
        <pt x="1190" y="0" on="1"/>
        <pt x="1171" y="0" on="0"/>
        <pt x="1142" y="4" on="0"/>
        <pt x="1116" y="15" on="0"/>
        <pt x="1092" y="33" on="0"/>
        <pt x="1079" y="47" on="1"/>
        <pt x="979" y="150" on="1"/>
        <pt x="883" y="72" on="0"/>
        <pt x="648" y="-16" on="0"/>
        <pt x="511" y="-16" on="1"/>
        <pt x="427" y="-16" on="0"/>
        <pt x="267" y="41" on="0"/>
        <pt x="141" y="149" on="0"/>
        <pt x="64" y="302" on="0"/>
        <pt x="64" y="398" on="1"/>
        <pt x="64" y="465" on="0"/>
        <pt x="108" y="586" on="0"/>
        <pt x="186" y="690" on="0"/>
        <pt x="293" y="774" on="0"/>
        <pt x="357" y="804" on="1"/>
        <pt x="304" y="879" on="0"/>
        <pt x="255" y="1022" on="0"/>
        <pt x="255" y="1093" on="1"/>
        <pt x="255" y="1168" on="0"/>
        <pt x="310" y="1303" on="0"/>
        <pt x="415" y="1403" on="0"/>
        <pt x="567" y="1462" on="0"/>
      </contour>
      <contour>
        <pt x="315" y="418" on="1"/>
        <pt x="315" y="363" on="0"/>
        <pt x="353" y="275" on="0"/>
        <pt x="419" y="214" on="0"/>
        <pt x="506" y="181" on="0"/>
        <pt x="555" y="181" on="1"/>
        <pt x="643" y="181" on="0"/>
        <pt x="788" y="236" on="0"/>
        <pt x="848" y="285" on="1"/>
        <pt x="468" y="675" on="1"/>
        <pt x="388" y="623" on="0"/>
        <pt x="315" y="493" on="0"/>
      </contour>
    </TTGlyph>
    <TTGlyph name="aogonek" xMin="81" yMin="-345" xMax="1037" yMax="1045">
      <contour>
        <pt x="936" y="0" on="1"/>
        <pt x="916" y="-11" on="0"/>
        <pt x="878" y="-39" on="0"/>
        <pt x="848" y="-74" on="0"/>
        <pt x="830" y="-114" on="0"/>
        <pt x="830" y="-136" on="1"/>
        <pt x="830" y="-166" on="0"/>
        <pt x="868" y="-201" on="0"/>
        <pt x="902" y="-201" on="1"/>
        <pt x="921" y="-201" on="0"/>
        <pt x="945" y="-197" on="0"/>
        <pt x="960" y="-191" on="0"/>
        <pt x="971" y="-187" on="0"/>
        <pt x="976" y="-187" on="1"/>
        <pt x="994" y="-187" on="0"/>
        <pt x="999" y="-203" on="1"/>
        <pt x="1037" y="-294" on="1"/>
        <pt x="1004" y="-316" on="0"/>
        <pt x="905" y="-345" on="0"/>
        <pt x="850" y="-345" on="1"/>
        <pt x="752" y="-345" on="0"/>
        <pt x="646" y="-263" on="0"/>
        <pt x="646" y="-198" on="1"/>
        <pt x="646" y="-142" on="0"/>
        <pt x="722" y="-39" on="0"/>
        <pt x="792" y="3" on="1"/>
        <pt x="772" y="7" on="0"/>
        <pt x="747" y="30" on="0"/>
        <pt x="740" y="53" on="1"/>
        <pt x="718" y="126" on="1"/>
        <pt x="679" y="91" on="0"/>
        <pt x="604" y="38" on="0"/>
        <pt x="524" y="2" on="0"/>
        <pt x="434" y="-16" on="0"/>
        <pt x="379" y="-16" on="1"/>
        <pt x="314" y="-16" on="0"/>
        <pt x="204" y="19" on="0"/>
        <pt x="125" y="89" on="0"/>
        <pt x="81" y="193" on="0"/>
        <pt x="81" y="262" on="1"/>
        <pt x="81" y="320" on="0"/>
        <pt x="142" y="433" on="0"/>
        <pt x="284" y="524" on="0"/>
        <pt x="520" y="584" on="0"/>
        <pt x="695" y="588" on="1"/>
        <pt x="695" y="648" on="1"/>
        <pt x="695" y="751" on="0"/>
        <pt x="608" y="850" on="0"/>
        <pt x="525" y="850" on="1"/>
        <pt x="465" y="850" on="0"/>
        <pt x="385" y="822" on="0"/>
        <pt x="326" y="787" on="0"/>
        <pt x="276" y="759" on="0"/>
        <pt x="246" y="759" on="1"/>
        <pt x="221" y="759" on="0"/>
        <pt x="185" y="786" on="0"/>
        <pt x="174" y="804" on="1"/>
        <pt x="129" y="883" on="1"/>
        <pt x="306" y="1045" on="0"/>
        <pt x="556" y="1045" on="1"/>
        <pt x="646" y="1045" on="0"/>
        <pt x="787" y="986" on="0"/>
        <pt x="885" y="881" on="0"/>
        <pt x="936" y="735" on="0"/>
        <pt x="936" y="648" on="1"/>
      </contour>
      <contour>
        <pt x="456" y="154" on="1"/>
        <pt x="494" y="154" on="0"/>
        <pt x="558" y="168" on="0"/>
        <pt x="615" y="196" on="0"/>
        <pt x="668" y="237" on="0"/>
        <pt x="695" y="265" on="1"/>
        <pt x="695" y="438" on="1"/>
        <pt x="587" y="433" on="0"/>
        <pt x="442" y="406" on="0"/>
        <pt x="354" y="364" on="0"/>
        <pt x="317" y="308" on="0"/>
        <pt x="317" y="275" on="1"/>
        <pt x="317" y="210" on="0"/>
        <pt x="394" y="154" on="0"/>
      </contour>
    </TTGlyph>
    <TTGlyph name="approxequal" xMin="157" yMin="353" xMax="1003" yMax="995">
      <contour>
        <pt x="792" y="896" on="1"/>
        <pt x="823" y="896" on="0"/>
        <pt x="882" y="910" on="0"/>
        <pt x="931" y="931" on="0"/>
        <pt x="966" y="954" on="0"/>
        <pt x="973" y="963" on="1"/>
        <pt x="1003" y="806" on="1"/>
        <pt x="965" y="756" on="0"/>
        <pt x="841" y="709" on="0"/>
        <pt x="776" y="709" on="1"/>
        <pt x="723" y="709" on="0"/>
        <pt x="618" y="740" on="0"/>
        <pt x="517" y="778" on="0"/>
        <pt x="421" y="809" on="0"/>
        <pt x="378" y="809" on="1"/>
        <pt x="345" y="809" on="0"/>
        <pt x="285" y="794" on="0"/>
        <pt x="236" y="773" on="0"/>
        <pt x="200" y="748" on="0"/>
        <pt x="193" y="739" on="1"/>
        <pt x="157" y="889" on="1"/>
        <pt x="176" y="917" on="0"/>
        <pt x="228" y="957" on="0"/>
        <pt x="290" y="983" on="0"/>
        <pt x="358" y="995" on="0"/>
        <pt x="393" y="995" on="1"/>
        <pt x="446" y="995" on="0"/>
        <pt x="552" y="964" on="0"/>
        <pt x="653" y="927" on="0"/>
        <pt x="749" y="896" on="0"/>
      </contour>
      <contour>
        <pt x="792" y="540" on="1"/>
        <pt x="823" y="540" on="0"/>
        <pt x="882" y="554" on="0"/>
        <pt x="931" y="575" on="0"/>
        <pt x="966" y="598" on="0"/>
        <pt x="973" y="607" on="1"/>
        <pt x="1003" y="450" on="1"/>
        <pt x="965" y="400" on="0"/>
        <pt x="841" y="353" on="0"/>
        <pt x="776" y="353" on="1"/>
        <pt x="723" y="353" on="0"/>
        <pt x="618" y="384" on="0"/>
        <pt x="517" y="422" on="0"/>
        <pt x="421" y="453" on="0"/>
        <pt x="378" y="453" on="1"/>
        <pt x="345" y="453" on="0"/>
        <pt x="285" y="438" on="0"/>
        <pt x="236" y="417" on="0"/>
        <pt x="200" y="392" on="0"/>
        <pt x="193" y="383" on="1"/>
        <pt x="157" y="533" on="1"/>
        <pt x="176" y="561" on="0"/>
        <pt x="228" y="601" on="0"/>
        <pt x="290" y="627" on="0"/>
        <pt x="358" y="639" on="0"/>
        <pt x="393" y="639" on="1"/>
        <pt x="446" y="639" on="0"/>
        <pt x="552" y="608" on="0"/>
        <pt x="653" y="571" on="0"/>
        <pt x="749" y="540" on="0"/>
      </contour>
    </TTGlyph>
    <TTGlyph name="aring" xMin="81" yMin="-16" xMax="936" yMax="1531">
      <component glyphName="a" x="0" y="0" flags="0x204"/>
      <component glyphName="ring" x="228" y="0" flags="0x4"/>
    </TTGlyph>
    <TTGlyph name="asciicircum" xMin="122" yMin="777" xMax="1028" yMax="1446">
      <contour>
        <pt x="1028" y="777" on="1"/>
        <pt x="847" y="777" on="1"/>
        <pt x="824" y="777" on="0"/>
        <pt x="795" y="801" on="0"/>
        <pt x="785" y="818" on="1"/>
        <pt x="626" y="1107" on="1"/>
        <pt x="611" y="1135" on="0"/>
        <pt x="586" y="1185" on="0"/>
        <pt x="578" y="1211" on="1"/>
        <pt x="570" y="1185" on="0"/>
        <pt x="548" y="1134" on="0"/>
        <pt x="533" y="1107" on="1"/>
        <pt x="377" y="818" on="1"/>
        <pt x="368" y="801" on="0"/>
        <pt x="338" y="777" on="0"/>
        <pt x="312" y="777" on="1"/>
        <pt x="122" y="777" on="1"/>
        <pt x="495" y="1446" on="1"/>
        <pt x="655" y="1446" on="1"/>
      </contour>
    </TTGlyph>
    <TTGlyph name="asciitilde" xMin="98" yMin="398" xMax="1062" yMax="785">
      <contour>
        <pt x="745" y="648" on="1"/>
        <pt x="801" y="648" on="0"/>
        <pt x="863" y="720" on="0"/>
        <pt x="863" y="785" on="1"/>
        <pt x="1062" y="785" on="1"/>
        <pt x="1062" y="708" on="0"/>
        <pt x="1021" y="583" on="0"/>
        <pt x="944" y="494" on="0"/>
        <pt x="832" y="446" on="0"/>
        <pt x="760" y="446" on="1"/>
        <pt x="707" y="446" on="0"/>
        <pt x="610" y="474" on="0"/>
        <pt x="523" y="507" on="0"/>
        <pt x="447" y="535" on="0"/>
        <pt x="415" y="535" on="1"/>
        <pt x="359" y="535" on="0"/>
        <pt x="297" y="463" on="0"/>
        <pt x="297" y="398" on="1"/>
        <pt x="98" y="398" on="1"/>
        <pt x="98" y="475" on="0"/>
        <pt x="139" y="600" on="0"/>
        <pt x="216" y="689" on="0"/>
        <pt x="328" y="737" on="0"/>
        <pt x="400" y="737" on="1"/>
        <pt x="453" y="737" on="0"/>
        <pt x="550" y="709" on="0"/>
        <pt x="637" y="676" on="0"/>
        <pt x="713" y="648" on="0"/>
      </contour>
    </TTGlyph>
    <TTGlyph name="asterisk" xMin="76" yMin="837" xMax="722" yMax="1516">
      <contour>
        <pt x="340" y="837" on="1"/>
        <pt x="340" y="1020" on="1"/>
        <pt x="340" y="1040" on="0"/>
        <pt x="345" y="1078" on="0"/>
        <pt x="351" y="1095" on="1"/>
        <pt x="340" y="1081" on="0"/>
        <pt x="310" y="1059" on="0"/>
        <pt x="293" y="1048" on="1"/>
        <pt x="135" y="956" on="1"/>
        <pt x="76" y="1056" on="1"/>
        <pt x="235" y="1148" on="1"/>
        <pt x="253" y="1159" on="0"/>
        <pt x="288" y="1173" on="0"/>
        <pt x="307" y="1176" on="1"/>
        <pt x="288" y="1178" on="0"/>
        <pt x="253" y="1194" on="0"/>
        <pt x="235" y="1205" on="1"/>
        <pt x="76" y="1298" on="1"/>
        <pt x="134" y="1398" on="1"/>
        <pt x="293" y="1304" on="1"/>
        <pt x="310" y="1293" on="0"/>
        <pt x="341" y="1270" on="0"/>
        <pt x="352" y="1256" on="1"/>
        <pt x="345" y="1273" on="0"/>
        <pt x="340" y="1311" on="0"/>
        <pt x="340" y="1331" on="1"/>
        <pt x="340" y="1516" on="1"/>
        <pt x="458" y="1516" on="1"/>
        <pt x="458" y="1333" on="1"/>
        <pt x="458" y="1312" on="0"/>
        <pt x="453" y="1273" on="0"/>
        <pt x="446" y="1256" on="1"/>
        <pt x="457" y="1270" on="0"/>
        <pt x="487" y="1293" on="0"/>
        <pt x="505" y="1304" on="1"/>
        <pt x="663" y="1396" on="1"/>
        <pt x="722" y="1296" on="1"/>
        <pt x="563" y="1205" on="1"/>
        <pt x="545" y="1194" on="0"/>
        <pt x="510" y="1179" on="0"/>
        <pt x="491" y="1176" on="1"/>
        <pt x="525" y="1170" on="0"/>
        <pt x="563" y="1148" on="1"/>
        <pt x="722" y="1055" on="1"/>
        <pt x="664" y="955" on="1"/>
        <pt x="505" y="1048" on="1"/>
        <pt x="487" y="1059" on="0"/>
        <pt x="457" y="1081" on="0"/>
        <pt x="445" y="1095" on="1"/>
        <pt x="458" y="1063" on="0"/>
        <pt x="458" y="1021" on="1"/>
        <pt x="458" y="837" on="1"/>
      </contour>
    </TTGlyph>
    <TTGlyph name="at" xMin="67" yMin="-241" xMax="1585" yMax="1382">
      <contour>
        <pt x="1166" y="184" on="1"/>
        <pt x="1098" y="184" on="0"/>
        <pt x="991" y="248" on="0"/>
        <pt x="970" y="319" on="1"/>
        <pt x="911" y="247" on="0"/>
        <pt x="779" y="185" on="0"/>
        <pt x="703" y="185" on="1"/>
        <pt x="640" y="185" on="0"/>
        <pt x="547" y="229" on="0"/>
        <pt x="484" y="306" on="0"/>
        <pt x="453" y="411" on="0"/>
        <pt x="453" y="473" on="1"/>
        <pt x="453" y="530" on="0"/>
        <pt x="482" y="647" on="0"/>
        <pt x="540" y="756" on="0"/>
        <pt x="627" y="851" on="0"/>
        <pt x="745" y="922" on="0"/>
        <pt x="891" y="963" on="0"/>
        <pt x="980" y="963" on="1"/>
        <pt x="1057" y="963" on="0"/>
        <pt x="1167" y="939" on="0"/>
        <pt x="1218" y="917" on="1"/>
        <pt x="1122" y="546" on="1"/>
        <pt x="1106" y="482" on="0"/>
        <pt x="1106" y="439" on="1"/>
        <pt x="1106" y="409" on="0"/>
        <pt x="1121" y="369" on="0"/>
        <pt x="1146" y="345" on="0"/>
        <pt x="1182" y="336" on="0"/>
        <pt x="1203" y="336" on="1"/>
        <pt x="1245" y="336" on="0"/>
        <pt x="1320" y="389" on="0"/>
        <pt x="1376" y="485" on="0"/>
        <pt x="1409" y="617" on="0"/>
        <pt x="1409" y="695" on="1"/>
        <pt x="1409" y="825" on="0"/>
        <pt x="1328" y="1023" on="0"/>
        <pt x="1183" y="1156" on="0"/>
        <pt x="981" y="1223" on="0"/>
        <pt x="861" y="1223" on="1"/>
        <pt x="730" y="1223" on="0"/>
        <pt x="505" y="1124" on="0"/>
        <pt x="340" y="952" on="0"/>
        <pt x="247" y="718" on="0"/>
        <pt x="247" y="583" on="1"/>
        <pt x="247" y="419" on="0"/>
        <pt x="349" y="170" on="0"/>
        <pt x="527" y="3" on="0"/>
        <pt x="768" y="-81" on="0"/>
        <pt x="908" y="-81" on="1"/>
        <pt x="985" y="-81" on="0"/>
        <pt x="1119" y="-64" on="0"/>
        <pt x="1231" y="-35" on="0"/>
        <pt x="1323" y="2" on="0"/>
        <pt x="1359" y="23" on="1"/>
        <pt x="1379" y="34" on="0"/>
        <pt x="1393" y="34" on="1"/>
        <pt x="1422" y="34" on="0"/>
        <pt x="1434" y="2" on="1"/>
        <pt x="1468" y="-87" on="1"/>
        <pt x="1364" y="-155" on="0"/>
        <pt x="1086" y="-241" on="0"/>
        <pt x="908" y="-241" on="1"/>
        <pt x="727" y="-241" on="0"/>
        <pt x="419" y="-127" on="0"/>
        <pt x="194" y="86" on="0"/>
        <pt x="67" y="392" on="0"/>
        <pt x="67" y="583" on="1"/>
        <pt x="67" y="690" on="0"/>
        <pt x="122" y="892" on="0"/>
        <pt x="224" y="1069" on="0"/>
        <pt x="368" y="1217" on="0"/>
        <pt x="544" y="1323" on="0"/>
        <pt x="749" y="1382" on="0"/>
        <pt x="861" y="1382" on="1"/>
        <pt x="1003" y="1382" on="0"/>
        <pt x="1264" y="1287" on="0"/>
        <pt x="1465" y="1110" on="0"/>
        <pt x="1585" y="855" on="0"/>
        <pt x="1585" y="695" on="1"/>
        <pt x="1585" y="588" on="0"/>
        <pt x="1522" y="401" on="0"/>
        <pt x="1409" y="263" on="0"/>
        <pt x="1256" y="184" on="0"/>
      </contour>
      <contour>
        <pt x="752" y="344" on="1"/>
        <pt x="778" y="344" on="0"/>
        <pt x="831" y="360" on="0"/>
        <pt x="879" y="401" on="0"/>
        <pt x="919" y="469" on="0"/>
        <pt x="932" y="520" on="1"/>
        <pt x="1005" y="802" on="1"/>
        <pt x="973" y="808" on="0"/>
        <pt x="939" y="808" on="1"/>
        <pt x="877" y="808" on="0"/>
        <pt x="769" y="754" on="0"/>
        <pt x="690" y="662" on="0"/>
        <pt x="644" y="543" on="0"/>
        <pt x="644" y="479" on="1"/>
        <pt x="644" y="415" on="0"/>
        <pt x="699" y="344" on="0"/>
      </contour>
    </TTGlyph>
    <TTGlyph name="atilde" xMin="81" yMin="-16" xMax="936" yMax="1441">
      <component glyphName="a" x="0" y="0" flags="0x204"/>
      <component glyphName="tilde" x="227" y="0" flags="0x4"/>
    </TTGlyph>
    <TTGlyph name="b" xMin="135" yMin="-15" xMax="1079" yMax="1486">
      <contour>
        <pt x="135" y="0" on="1"/>
        <pt x="135" y="1486" on="1"/>
        <pt x="382" y="1486" on="1"/>
        <pt x="382" y="900" on="1"/>
        <pt x="443" y="965" on="0"/>
        <pt x="597" y="1042" on="0"/>
        <pt x="700" y="1042" on="1"/>
        <pt x="784" y="1042" on="0"/>
        <pt x="923" y="973" on="0"/>
        <pt x="1024" y="841" on="0"/>
        <pt x="1079" y="647" on="0"/>
        <pt x="1079" y="521" on="1"/>
        <pt x="1079" y="406" on="0"/>
        <pt x="1017" y="210" on="0"/>
        <pt x="902" y="66" on="0"/>
        <pt x="739" y="-15" on="0"/>
        <pt x="638" y="-15" on="1"/>
        <pt x="591" y="-15" on="0"/>
        <pt x="513" y="4" on="0"/>
        <pt x="449" y="38" on="0"/>
        <pt x="394" y="87" on="0"/>
        <pt x="369" y="117" on="1"/>
        <pt x="358" y="48" on="1"/>
        <pt x="352" y="22" on="0"/>
        <pt x="323" y="0" on="0"/>
        <pt x="298" y="0" on="1"/>
      </contour>
      <contour>
        <pt x="615" y="850" on="1"/>
        <pt x="538" y="850" on="0"/>
        <pt x="429" y="785" on="0"/>
        <pt x="382" y="726" on="1"/>
        <pt x="382" y="266" on="1"/>
        <pt x="424" y="214" on="0"/>
        <pt x="523" y="173" on="0"/>
        <pt x="581" y="173" on="1"/>
        <pt x="637" y="173" on="0"/>
        <pt x="727" y="215" on="0"/>
        <pt x="790" y="301" on="0"/>
        <pt x="824" y="432" on="0"/>
        <pt x="824" y="521" on="1"/>
        <pt x="824" y="611" on="0"/>
        <pt x="795" y="736" on="0"/>
        <pt x="741" y="814" on="0"/>
        <pt x="664" y="850" on="0"/>
      </contour>
    </TTGlyph>
    <TTGlyph name="backslash" xMin="-28" yMin="-95" xMax="787" yMax="1486">
      <contour>
        <pt x="-28" y="1486" on="1"/>
        <pt x="78" y="1486" on="1"/>
        <pt x="122" y="1486" on="0"/>
        <pt x="187" y="1441" on="0"/>
        <pt x="204" y="1399" on="1"/>
        <pt x="787" y="-95" on="1"/>
        <pt x="683" y="-95" on="1"/>
        <pt x="644" y="-95" on="0"/>
        <pt x="569" y="-49" on="0"/>
        <pt x="552" y="-3" on="1"/>
      </contour>
    </TTGlyph>
    <TTGlyph name="bar" xMin="204" yMin="-335" xMax="396" yMax="1547">
      <contour>
        <pt x="204" y="1547" on="1"/>
        <pt x="396" y="1547" on="1"/>
        <pt x="396" y="-335" on="1"/>
        <pt x="204" y="-335" on="1"/>
      </contour>
    </TTGlyph>
    <TTGlyph name="braceleft" xMin="29" yMin="-308" xMax="527" yMax="1547">
      <contour>
        <pt x="149" y="410" on="1"/>
        <pt x="149" y="471" on="0"/>
        <pt x="92" y="548" on="0"/>
        <pt x="29" y="548" on="1"/>
        <pt x="29" y="691" on="1"/>
        <pt x="92" y="691" on="0"/>
        <pt x="149" y="768" on="0"/>
        <pt x="149" y="829" on="1"/>
        <pt x="149" y="876" on="0"/>
        <pt x="136" y="969" on="0"/>
        <pt x="119" y="1063" on="0"/>
        <pt x="106" y="1158" on="0"/>
        <pt x="106" y="1207" on="1"/>
        <pt x="106" y="1283" on="0"/>
        <pt x="150" y="1408" on="0"/>
        <pt x="241" y="1498" on="0"/>
        <pt x="380" y="1547" on="0"/>
        <pt x="474" y="1547" on="1"/>
        <pt x="527" y="1547" on="1"/>
        <pt x="527" y="1437" on="1"/>
        <pt x="527" y="1424" on="0"/>
        <pt x="516" y="1405" on="0"/>
        <pt x="499" y="1393" on="0"/>
        <pt x="481" y="1387" on="0"/>
        <pt x="474" y="1387" on="1"/>
        <pt x="465" y="1387" on="1"/>
        <pt x="395" y="1387" on="0"/>
        <pt x="321" y="1299" on="0"/>
        <pt x="321" y="1222" on="1"/>
        <pt x="321" y="1167" on="0"/>
        <pt x="333" y="1066" on="0"/>
        <pt x="346" y="971" on="0"/>
        <pt x="358" y="879" on="0"/>
        <pt x="358" y="832" on="1"/>
        <pt x="358" y="794" on="0"/>
        <pt x="337" y="726" on="0"/>
        <pt x="296" y="671" on="0"/>
        <pt x="239" y="629" on="0"/>
        <pt x="203" y="619" on="1"/>
        <pt x="239" y="608" on="0"/>
        <pt x="296" y="567" on="0"/>
        <pt x="337" y="511" on="0"/>
        <pt x="358" y="443" on="0"/>
        <pt x="358" y="406" on="1"/>
        <pt x="358" y="359" on="0"/>
        <pt x="346" y="267" on="0"/>
        <pt x="333" y="172" on="0"/>
        <pt x="321" y="71" on="0"/>
        <pt x="321" y="16" on="1"/>
        <pt x="321" y="-60" on="0"/>
        <pt x="395" y="-148" on="0"/>
        <pt x="465" y="-148" on="1"/>
        <pt x="474" y="-148" on="1"/>
        <pt x="481" y="-148" on="0"/>
        <pt x="499" y="-154" on="0"/>
        <pt x="516" y="-166" on="0"/>
        <pt x="527" y="-186" on="0"/>
        <pt x="527" y="-199" on="1"/>
        <pt x="527" y="-308" on="1"/>
        <pt x="474" y="-308" on="1"/>
        <pt x="380" y="-308" on="0"/>
        <pt x="241" y="-259" on="0"/>
        <pt x="150" y="-170" on="0"/>
        <pt x="106" y="-45" on="0"/>
        <pt x="106" y="31" on="1"/>
        <pt x="106" y="80" on="0"/>
        <pt x="119" y="175" on="0"/>
        <pt x="136" y="269" on="0"/>
        <pt x="149" y="363" on="0"/>
      </contour>
    </TTGlyph>
    <TTGlyph name="braceright" xMin="73" yMin="-308" xMax="571" yMax="1547">
      <contour>
        <pt x="451" y="410" on="1"/>
        <pt x="451" y="363" on="0"/>
        <pt x="464" y="269" on="0"/>
        <pt x="481" y="175" on="0"/>
        <pt x="494" y="80" on="0"/>
        <pt x="494" y="31" on="1"/>
        <pt x="494" y="-45" on="0"/>
        <pt x="450" y="-170" on="0"/>
        <pt x="359" y="-259" on="0"/>
        <pt x="220" y="-308" on="0"/>
        <pt x="126" y="-308" on="1"/>
        <pt x="73" y="-308" on="1"/>
        <pt x="73" y="-199" on="1"/>
        <pt x="73" y="-186" on="0"/>
        <pt x="84" y="-166" on="0"/>
        <pt x="101" y="-154" on="0"/>
        <pt x="119" y="-148" on="0"/>
        <pt x="126" y="-148" on="1"/>
        <pt x="135" y="-148" on="1"/>
        <pt x="205" y="-148" on="0"/>
        <pt x="279" y="-60" on="0"/>
        <pt x="279" y="16" on="1"/>
        <pt x="279" y="71" on="0"/>
        <pt x="267" y="172" on="0"/>
        <pt x="254" y="267" on="0"/>
        <pt x="242" y="359" on="0"/>
        <pt x="242" y="406" on="1"/>
        <pt x="242" y="443" on="0"/>
        <pt x="263" y="511" on="0"/>
        <pt x="303" y="567" on="0"/>
        <pt x="361" y="608" on="0"/>
        <pt x="397" y="619" on="1"/>
        <pt x="361" y="629" on="0"/>
        <pt x="303" y="671" on="0"/>
        <pt x="263" y="726" on="0"/>
        <pt x="242" y="794" on="0"/>
        <pt x="242" y="832" on="1"/>
        <pt x="242" y="879" on="0"/>
        <pt x="254" y="971" on="0"/>
        <pt x="267" y="1066" on="0"/>
        <pt x="279" y="1167" on="0"/>
        <pt x="279" y="1222" on="1"/>
        <pt x="279" y="1299" on="0"/>
        <pt x="205" y="1387" on="0"/>
        <pt x="135" y="1387" on="1"/>
        <pt x="126" y="1387" on="1"/>
        <pt x="119" y="1387" on="0"/>
        <pt x="101" y="1393" on="0"/>
        <pt x="84" y="1405" on="0"/>
        <pt x="73" y="1424" on="0"/>
        <pt x="73" y="1437" on="1"/>
        <pt x="73" y="1547" on="1"/>
        <pt x="126" y="1547" on="1"/>
        <pt x="220" y="1547" on="0"/>
        <pt x="359" y="1498" on="0"/>
        <pt x="450" y="1408" on="0"/>
        <pt x="494" y="1283" on="0"/>
        <pt x="494" y="1207" on="1"/>
        <pt x="494" y="1158" on="0"/>
        <pt x="481" y="1063" on="0"/>
        <pt x="464" y="969" on="0"/>
        <pt x="451" y="876" on="0"/>
        <pt x="451" y="829" on="1"/>
        <pt x="451" y="768" on="0"/>
        <pt x="508" y="691" on="0"/>
        <pt x="571" y="691" on="1"/>
        <pt x="571" y="548" on="1"/>
        <pt x="508" y="548" on="0"/>
        <pt x="451" y="471" on="0"/>
      </contour>
    </TTGlyph>
    <TTGlyph name="bracketleft" xMin="115" yMin="-308" xMax="525" yMax="1547">
      <contour>
        <pt x="115" y="-308" on="1"/>
        <pt x="115" y="1547" on="1"/>
        <pt x="525" y="1547" on="1"/>
        <pt x="525" y="1450" on="1"/>
        <pt x="525" y="1424" on="0"/>
        <pt x="488" y="1387" on="0"/>
        <pt x="459" y="1387" on="1"/>
        <pt x="321" y="1387" on="1"/>
        <pt x="321" y="-148" on="1"/>
        <pt x="459" y="-148" on="1"/>
        <pt x="488" y="-148" on="0"/>
        <pt x="525" y="-185" on="0"/>
        <pt x="525" y="-211" on="1"/>
        <pt x="525" y="-308" on="1"/>
      </contour>
    </TTGlyph>
    <TTGlyph name="bracketright" xMin="75" yMin="-308" xMax="485" yMax="1547">
      <contour>
        <pt x="75" y="-308" on="1"/>
        <pt x="75" y="-211" on="1"/>
        <pt x="75" y="-185" on="0"/>
        <pt x="112" y="-148" on="0"/>
        <pt x="141" y="-148" on="1"/>
        <pt x="279" y="-148" on="1"/>
        <pt x="279" y="1387" on="1"/>
        <pt x="141" y="1387" on="1"/>
        <pt x="112" y="1387" on="0"/>
        <pt x="75" y="1424" on="0"/>
        <pt x="75" y="1450" on="1"/>
        <pt x="75" y="1547" on="1"/>
        <pt x="485" y="1547" on="1"/>
        <pt x="485" y="-308" on="1"/>
      </contour>
    </TTGlyph>
    <TTGlyph name="breve" xMin="17" yMin="1161" xMax="621" yMax="1446">
      <contour>
        <pt x="319" y="1161" on="1"/>
        <pt x="233" y="1161" on="0"/>
        <pt x="118" y="1206" on="0"/>
        <pt x="47" y="1284" on="0"/>
        <pt x="17" y="1388" on="0"/>
        <pt x="17" y="1446" on="1"/>
        <pt x="190" y="1446" on="1"/>
        <pt x="190" y="1416" on="0"/>
        <pt x="201" y="1368" on="0"/>
        <pt x="230" y="1335" on="0"/>
        <pt x="280" y="1317" on="0"/>
        <pt x="319" y="1317" on="1"/>
        <pt x="358" y="1317" on="0"/>
        <pt x="408" y="1335" on="0"/>
        <pt x="437" y="1368" on="0"/>
        <pt x="448" y="1416" on="0"/>
        <pt x="448" y="1446" on="1"/>
        <pt x="621" y="1446" on="1"/>
        <pt x="621" y="1388" on="0"/>
        <pt x="591" y="1284" on="0"/>
        <pt x="520" y="1206" on="0"/>
        <pt x="404" y="1161" on="0"/>
      </contour>
    </TTGlyph>
    <TTGlyph name="breve.case" xMin="9" yMin="1526" xMax="629" yMax="1768">
      <contour>
        <pt x="319" y="1526" on="1"/>
        <pt x="170" y="1526" on="0"/>
        <pt x="9" y="1646" on="0"/>
        <pt x="9" y="1768" on="1"/>
        <pt x="166" y="1768" on="1"/>
        <pt x="166" y="1718" on="0"/>
        <pt x="241" y="1673" on="0"/>
        <pt x="319" y="1673" on="1"/>
        <pt x="397" y="1673" on="0"/>
        <pt x="472" y="1718" on="0"/>
        <pt x="472" y="1768" on="1"/>
        <pt x="629" y="1768" on="1"/>
        <pt x="629" y="1713" on="0"/>
        <pt x="588" y="1623" on="0"/>
        <pt x="508" y="1560" on="0"/>
        <pt x="393" y="1526" on="0"/>
      </contour>
    </TTGlyph>
    <TTGlyph name="brokenbar" xMin="204" yMin="-335" xMax="396" yMax="1547">
      <contour>
        <pt x="204" y="1547" on="1"/>
        <pt x="396" y="1547" on="1"/>
        <pt x="396" y="738" on="1"/>
        <pt x="204" y="738" on="1"/>
      </contour>
      <contour>
        <pt x="204" y="473" on="1"/>
        <pt x="396" y="473" on="1"/>
        <pt x="396" y="-335" on="1"/>
        <pt x="204" y="-335" on="1"/>
      </contour>
    </TTGlyph>
    <TTGlyph name="bullet" xMin="143" yMin="161" xMax="1015" yMax="1028">
      <contour>
        <pt x="143" y="593" on="1"/>
        <pt x="143" y="683" on="0"/>
        <pt x="212" y="841" on="0"/>
        <pt x="330" y="960" on="0"/>
        <pt x="488" y="1028" on="0"/>
        <pt x="578" y="1028" on="1"/>
        <pt x="668" y="1028" on="0"/>
        <pt x="828" y="960" on="0"/>
        <pt x="946" y="841" on="0"/>
        <pt x="1015" y="683" on="0"/>
        <pt x="1015" y="593" on="1"/>
        <pt x="1015" y="504" on="0"/>
        <pt x="946" y="347" on="0"/>
        <pt x="828" y="229" on="0"/>
        <pt x="668" y="161" on="0"/>
        <pt x="578" y="161" on="1"/>
        <pt x="488" y="161" on="0"/>
        <pt x="330" y="229" on="0"/>
        <pt x="212" y="347" on="0"/>
        <pt x="143" y="504" on="0"/>
      </contour>
    </TTGlyph>
    <TTGlyph name="c" xMin="63" yMin="-15" xMax="928" yMax="1042">
      <contour>
        <pt x="853" y="809" on="1"/>
        <pt x="842" y="795" on="0"/>
        <pt x="821" y="779" on="0"/>
        <pt x="801" y="779" on="1"/>
        <pt x="782" y="779" on="0"/>
        <pt x="746" y="802" on="0"/>
        <pt x="696" y="831" on="0"/>
        <pt x="627" y="854" on="0"/>
        <pt x="576" y="854" on="1"/>
        <pt x="511" y="854" on="0"/>
        <pt x="413" y="807" on="0"/>
        <pt x="348" y="719" on="0"/>
        <pt x="316" y="594" on="0"/>
        <pt x="316" y="515" on="1"/>
        <pt x="316" y="433" on="0"/>
        <pt x="351" y="305" on="0"/>
        <pt x="417" y="218" on="0"/>
        <pt x="511" y="173" on="0"/>
        <pt x="570" y="173" on="1"/>
        <pt x="629" y="173" on="0"/>
        <pt x="702" y="202" on="0"/>
        <pt x="752" y="237" on="0"/>
        <pt x="789" y="266" on="0"/>
        <pt x="812" y="266" on="1"/>
        <pt x="842" y="266" on="0"/>
        <pt x="857" y="243" on="1"/>
        <pt x="928" y="153" on="1"/>
        <pt x="887" y="105" on="0"/>
        <pt x="791" y="40" on="0"/>
        <pt x="688" y="1" on="0"/>
        <pt x="578" y="-15" on="0"/>
        <pt x="524" y="-15" on="1"/>
        <pt x="429" y="-15" on="0"/>
        <pt x="261" y="56" on="0"/>
        <pt x="136" y="192" on="0"/>
        <pt x="63" y="389" on="0"/>
        <pt x="63" y="515" on="1"/>
        <pt x="63" y="628" on="0"/>
        <pt x="128" y="821" on="0"/>
        <pt x="254" y="962" on="0"/>
        <pt x="440" y="1042" on="0"/>
        <pt x="561" y="1042" on="1"/>
        <pt x="676" y="1042" on="0"/>
        <pt x="849" y="968" on="0"/>
        <pt x="918" y="899" on="1"/>
      </contour>
    </TTGlyph>
    <TTGlyph name="cacute" xMin="63" yMin="-15" xMax="928" yMax="1462">
      <component glyphName="c" x="0" y="0" flags="0x204"/>
      <component glyphName="acute" x="240" y="0" flags="0x4"/>
    </TTGlyph>
    <TTGlyph name="caron" xMin="-26" yMin="1168" xMax="664" yMax="1446">
      <contour>
        <pt x="435" y="1168" on="1"/>
        <pt x="203" y="1168" on="1"/>
        <pt x="-26" y="1446" on="1"/>
        <pt x="145" y="1446" on="1"/>
        <pt x="160" y="1446" on="0"/>
        <pt x="187" y="1436" on="0"/>
        <pt x="195" y="1429" on="1"/>
        <pt x="301" y="1333" on="1"/>
        <pt x="310" y="1325" on="0"/>
        <pt x="322" y="1310" on="1"/>
        <pt x="327" y="1317" on="0"/>
        <pt x="339" y="1328" on="0"/>
        <pt x="344" y="1333" on="1"/>
        <pt x="449" y="1429" on="1"/>
        <pt x="457" y="1436" on="0"/>
        <pt x="485" y="1446" on="0"/>
        <pt x="499" y="1446" on="1"/>
        <pt x="664" y="1446" on="1"/>
      </contour>
    </TTGlyph>
    <TTGlyph name="caron.case" xMin="-46" yMin="1549" xMax="684" yMax="1768">
      <contour>
        <pt x="-46" y="1768" on="1"/>
        <pt x="141" y="1768" on="1"/>
        <pt x="156" y="1768" on="0"/>
        <pt x="192" y="1760" on="0"/>
        <pt x="203" y="1752" on="1"/>
        <pt x="304" y="1685" on="1"/>
        <pt x="308" y="1683" on="0"/>
        <pt x="315" y="1678" on="0"/>
        <pt x="319" y="1675" on="1"/>
        <pt x="323" y="1678" on="0"/>
        <pt x="330" y="1683" on="0"/>
        <pt x="334" y="1685" on="1"/>
        <pt x="435" y="1752" on="1"/>
        <pt x="446" y="1760" on="0"/>
        <pt x="482" y="1768" on="0"/>
        <pt x="497" y="1768" on="1"/>
        <pt x="684" y="1768" on="1"/>
        <pt x="442" y="1549" on="1"/>
        <pt x="196" y="1549" on="1"/>
      </contour>
    </TTGlyph>
    <TTGlyph name="caron.salt" xMin="193" yMin="1142" xMax="462" yMax="1488">
      <contour>
        <pt x="421" y="1488" on="1"/>
        <pt x="449" y="1488" on="0"/>
        <pt x="462" y="1463" on="0"/>
        <pt x="462" y="1451" on="1"/>
        <pt x="462" y="1442" on="0"/>
        <pt x="454" y="1411" on="0"/>
        <pt x="433" y="1352" on="0"/>
        <pt x="396" y="1258" on="0"/>
        <pt x="366" y="1187" on="1"/>
        <pt x="354" y="1158" on="0"/>
        <pt x="313" y="1142" on="0"/>
        <pt x="281" y="1142" on="1"/>
        <pt x="193" y="1142" on="1"/>
        <pt x="255" y="1488" on="1"/>
      </contour>
    </TTGlyph>
    <TTGlyph name="ccedilla" xMin="63" yMin="-349" xMax="928" yMax="1042">
      <contour>
        <pt x="405" y="-227" on="1"/>
        <pt x="412" y="-227" on="0"/>
        <pt x="427" y="-231" on="0"/>
        <pt x="446" y="-237" on="0"/>
        <pt x="469" y="-241" on="0"/>
        <pt x="485" y="-241" on="1"/>
        <pt x="518" y="-241" on="0"/>
        <pt x="551" y="-216" on="0"/>
        <pt x="551" y="-198" on="1"/>
        <pt x="551" y="-169" on="0"/>
        <pt x="479" y="-144" on="0"/>
        <pt x="404" y="-134" on="1"/>
        <pt x="442" y="-8" on="1"/>
        <pt x="362" y="6" on="0"/>
        <pt x="223" y="89" on="0"/>
        <pt x="121" y="222" on="0"/>
        <pt x="63" y="403" on="0"/>
        <pt x="63" y="515" on="1"/>
        <pt x="63" y="628" on="0"/>
        <pt x="128" y="821" on="0"/>
        <pt x="254" y="962" on="0"/>
        <pt x="440" y="1042" on="0"/>
        <pt x="561" y="1042" on="1"/>
        <pt x="676" y="1042" on="0"/>
        <pt x="849" y="968" on="0"/>
        <pt x="918" y="899" on="1"/>
        <pt x="853" y="809" on="1"/>
        <pt x="842" y="795" on="0"/>
        <pt x="821" y="779" on="0"/>
        <pt x="801" y="779" on="1"/>
        <pt x="782" y="779" on="0"/>
        <pt x="746" y="802" on="0"/>
        <pt x="696" y="831" on="0"/>
        <pt x="627" y="854" on="0"/>
        <pt x="576" y="854" on="1"/>
        <pt x="511" y="854" on="0"/>
        <pt x="413" y="807" on="0"/>
        <pt x="348" y="719" on="0"/>
        <pt x="316" y="594" on="0"/>
        <pt x="316" y="515" on="1"/>
        <pt x="316" y="433" on="0"/>
        <pt x="351" y="305" on="0"/>
        <pt x="417" y="218" on="0"/>
        <pt x="511" y="173" on="0"/>
        <pt x="570" y="173" on="1"/>
        <pt x="629" y="173" on="0"/>
        <pt x="702" y="202" on="0"/>
        <pt x="752" y="237" on="0"/>
        <pt x="789" y="266" on="0"/>
        <pt x="812" y="266" on="1"/>
        <pt x="839" y="266" on="0"/>
        <pt x="857" y="243" on="1"/>
        <pt x="928" y="153" on="1"/>
        <pt x="859" y="72" on="0"/>
        <pt x="687" y="-3" on="0"/>
        <pt x="595" y="-11" on="1"/>
        <pt x="583" y="-55" on="1"/>
        <pt x="672" y="-77" on="0"/>
        <pt x="744" y="-152" on="0"/>
        <pt x="744" y="-203" on="1"/>
        <pt x="744" y="-236" on="0"/>
        <pt x="709" y="-290" on="0"/>
        <pt x="645" y="-328" on="0"/>
        <pt x="555" y="-349" on="0"/>
        <pt x="501" y="-349" on="1"/>
        <pt x="460" y="-349" on="0"/>
        <pt x="389" y="-337" on="0"/>
        <pt x="354" y="-326" on="1"/>
        <pt x="377" y="-250" on="1"/>
        <pt x="383" y="-227" on="0"/>
      </contour>
    </TTGlyph>
    <TTGlyph name="cedilla" xMin="132" yMin="-349" xMax="522" yMax="14">
      <contour>
        <pt x="183" y="-227" on="1"/>
        <pt x="190" y="-227" on="0"/>
        <pt x="205" y="-231" on="0"/>
        <pt x="224" y="-237" on="0"/>
        <pt x="247" y="-241" on="0"/>
        <pt x="263" y="-241" on="1"/>
        <pt x="296" y="-241" on="0"/>
        <pt x="329" y="-216" on="0"/>
        <pt x="329" y="-198" on="1"/>
        <pt x="329" y="-169" on="0"/>
        <pt x="257" y="-144" on="0"/>
        <pt x="182" y="-134" on="1"/>
        <pt x="227" y="14" on="1"/>
        <pt x="381" y="14" on="1"/>
        <pt x="361" y="-55" on="1"/>
        <pt x="450" y="-77" on="0"/>
        <pt x="522" y="-152" on="0"/>
        <pt x="522" y="-203" on="1"/>
        <pt x="522" y="-236" on="0"/>
        <pt x="487" y="-290" on="0"/>
        <pt x="423" y="-328" on="0"/>
        <pt x="333" y="-349" on="0"/>
        <pt x="279" y="-349" on="1"/>
        <pt x="238" y="-349" on="0"/>
        <pt x="167" y="-337" on="0"/>
        <pt x="132" y="-326" on="1"/>
        <pt x="155" y="-250" on="1"/>
        <pt x="161" y="-227" on="0"/>
      </contour>
    </TTGlyph>
    <TTGlyph name="cent" xMin="123" yMin="-222" xMax="1054" yMax="1259">
      <contour>
        <pt x="539" y="-8" on="1"/>
        <pt x="450" y="5" on="0"/>
        <pt x="298" y="86" on="0"/>
        <pt x="186" y="219" on="0"/>
        <pt x="123" y="400" on="0"/>
        <pt x="123" y="513" on="1"/>
        <pt x="123" y="622" on="0"/>
        <pt x="189" y="811" on="0"/>
        <pt x="318" y="951" on="0"/>
        <pt x="507" y="1035" on="0"/>
        <pt x="629" y="1040" on="1"/>
        <pt x="643" y="1197" on="1"/>
        <pt x="645" y="1220" on="0"/>
        <pt x="681" y="1259" on="0"/>
        <pt x="710" y="1259" on="1"/>
        <pt x="801" y="1259" on="1"/>
        <pt x="781" y="1030" on="1"/>
        <pt x="860" y="1016" on="0"/>
        <pt x="988" y="949" on="0"/>
        <pt x="1042" y="899" on="1"/>
        <pt x="978" y="812" on="1"/>
        <pt x="968" y="798" on="0"/>
        <pt x="948" y="784" on="0"/>
        <pt x="928" y="784" on="1"/>
        <pt x="914" y="784" on="0"/>
        <pt x="884" y="797" on="0"/>
        <pt x="845" y="817" on="0"/>
        <pt x="797" y="837" on="0"/>
        <pt x="765" y="845" on="1"/>
        <pt x="707" y="172" on="1"/>
        <pt x="760" y="177" on="0"/>
        <pt x="831" y="206" on="0"/>
        <pt x="882" y="236" on="0"/>
        <pt x="920" y="260" on="0"/>
        <pt x="940" y="260" on="1"/>
        <pt x="970" y="260" on="0"/>
        <pt x="986" y="239" on="1"/>
        <pt x="1054" y="151" on="1"/>
        <pt x="1019" y="110" on="0"/>
        <pt x="935" y="52" on="0"/>
        <pt x="843" y="13" on="0"/>
        <pt x="743" y="-8" on="0"/>
        <pt x="691" y="-12" on="1"/>
        <pt x="679" y="-159" on="1"/>
        <pt x="677" y="-183" on="0"/>
        <pt x="641" y="-222" on="0"/>
        <pt x="612" y="-222" on="1"/>
        <pt x="521" y="-222" on="1"/>
      </contour>
      <contour>
        <pt x="367" y="513" on="1"/>
        <pt x="367" y="379" on="0"/>
        <pt x="465" y="214" on="0"/>
        <pt x="556" y="185" on="1"/>
        <pt x="613" y="852" on="1"/>
        <pt x="487" y="836" on="0"/>
        <pt x="367" y="660" on="0"/>
      </contour>
    </TTGlyph>
    <TTGlyph name="circumflex" xMin="-26" yMin="1168" xMax="664" yMax="1446">
      <contour>
        <pt x="664" y="1168" on="1"/>
        <pt x="499" y="1168" on="1"/>
        <pt x="468" y="1168" on="0"/>
        <pt x="449" y="1186" on="1"/>
        <pt x="344" y="1281" on="1"/>
        <pt x="339" y="1286" on="0"/>
        <pt x="328" y="1296" on="0"/>
        <pt x="323" y="1303" on="1"/>
        <pt x="318" y="1296" on="0"/>
        <pt x="307" y="1286" on="0"/>
        <pt x="302" y="1281" on="1"/>
        <pt x="195" y="1186" on="1"/>
        <pt x="187" y="1179" on="0"/>
        <pt x="160" y="1168" on="0"/>
        <pt x="145" y="1168" on="1"/>
        <pt x="-26" y="1168" on="1"/>
        <pt x="203" y="1446" on="1"/>
        <pt x="435" y="1446" on="1"/>
      </contour>
    </TTGlyph>
    <TTGlyph name="circumflex.case" xMin="-46" yMin="1549" xMax="684" yMax="1768">
      <contour>
        <pt x="684" y="1549" on="1"/>
        <pt x="497" y="1549" on="1"/>
        <pt x="482" y="1549" on="0"/>
        <pt x="446" y="1557" on="0"/>
        <pt x="435" y="1565" on="1"/>
        <pt x="334" y="1632" on="1"/>
        <pt x="330" y="1634" on="0"/>
        <pt x="323" y="1640" on="0"/>
        <pt x="319" y="1643" on="1"/>
        <pt x="317" y="1641" on="0"/>
        <pt x="309" y="1635" on="0"/>
        <pt x="304" y="1632" on="1"/>
        <pt x="203" y="1565" on="1"/>
        <pt x="192" y="1557" on="0"/>
        <pt x="156" y="1549" on="0"/>
        <pt x="141" y="1549" on="1"/>
        <pt x="-46" y="1549" on="1"/>
        <pt x="196" y="1768" on="1"/>
        <pt x="442" y="1768" on="1"/>
      </contour>
    </TTGlyph>
    <TTGlyph name="colon" xMin="113" yMin="-14" xMax="416" yMax="1000">
      <contour>
        <pt x="113" y="136" on="1"/>
        <pt x="113" y="167" on="0"/>
        <pt x="136" y="223" on="0"/>
        <pt x="177" y="263" on="0"/>
        <pt x="233" y="287" on="0"/>
        <pt x="265" y="287" on="1"/>
        <pt x="296" y="287" on="0"/>
        <pt x="352" y="263" on="0"/>
        <pt x="392" y="223" on="0"/>
        <pt x="416" y="167" on="0"/>
        <pt x="416" y="136" on="1"/>
        <pt x="416" y="104" on="0"/>
        <pt x="392" y="49" on="0"/>
        <pt x="352" y="9" on="0"/>
        <pt x="296" y="-14" on="0"/>
        <pt x="265" y="-14" on="1"/>
        <pt x="233" y="-14" on="0"/>
        <pt x="177" y="9" on="0"/>
        <pt x="136" y="49" on="0"/>
        <pt x="113" y="104" on="0"/>
      </contour>
      <contour>
        <pt x="113" y="849" on="1"/>
        <pt x="113" y="880" on="0"/>
        <pt x="136" y="936" on="0"/>
        <pt x="177" y="976" on="0"/>
        <pt x="233" y="1000" on="0"/>
        <pt x="265" y="1000" on="1"/>
        <pt x="296" y="1000" on="0"/>
        <pt x="352" y="976" on="0"/>
        <pt x="392" y="936" on="0"/>
        <pt x="416" y="880" on="0"/>
        <pt x="416" y="849" on="1"/>
        <pt x="416" y="817" on="0"/>
        <pt x="392" y="762" on="0"/>
        <pt x="352" y="722" on="0"/>
        <pt x="296" y="699" on="0"/>
        <pt x="265" y="699" on="1"/>
        <pt x="233" y="699" on="0"/>
        <pt x="177" y="722" on="0"/>
        <pt x="136" y="762" on="0"/>
        <pt x="113" y="817" on="0"/>
      </contour>
    </TTGlyph>
    <TTGlyph name="comma" xMin="80" yMin="-284" xMax="375" yMax="287">
      <contour>
        <pt x="80" y="152" on="1"/>
        <pt x="80" y="180" on="0"/>
        <pt x="101" y="229" on="0"/>
        <pt x="139" y="266" on="0"/>
        <pt x="193" y="287" on="0"/>
        <pt x="225" y="287" on="1"/>
        <pt x="263" y="287" on="0"/>
        <pt x="319" y="260" on="0"/>
        <pt x="357" y="213" on="0"/>
        <pt x="375" y="152" on="0"/>
        <pt x="375" y="118" on="1"/>
        <pt x="375" y="70" on="0"/>
        <pt x="346" y="-36" on="0"/>
        <pt x="290" y="-142" on="0"/>
        <pt x="208" y="-242" on="0"/>
        <pt x="155" y="-284" on="1"/>
        <pt x="112" y="-245" on="1"/>
        <pt x="94" y="-230" on="0"/>
        <pt x="94" y="-208" on="1"/>
        <pt x="94" y="-200" on="0"/>
        <pt x="105" y="-180" on="0"/>
        <pt x="113" y="-172" on="1"/>
        <pt x="124" y="-160" on="0"/>
        <pt x="156" y="-125" on="0"/>
        <pt x="188" y="-80" on="0"/>
        <pt x="215" y="-27" on="0"/>
        <pt x="221" y="3" on="1"/>
        <pt x="190" y="3" on="0"/>
        <pt x="138" y="26" on="0"/>
        <pt x="101" y="66" on="0"/>
        <pt x="80" y="120" on="0"/>
      </contour>
    </TTGlyph>
    <TTGlyph name="copyright" xMin="53" yMin="-14" xMax="1530" yMax="1462">
      <contour>
        <pt x="1017" y="512" on="1"/>
        <pt x="1028" y="512" on="0"/>
        <pt x="1046" y="503" on="0"/>
        <pt x="1052" y="495" on="1"/>
        <pt x="1134" y="408" on="1"/>
        <pt x="1078" y="337" on="0"/>
        <pt x="908" y="262" on="0"/>
        <pt x="793" y="262" on="1"/>
        <pt x="693" y="262" on="0"/>
        <pt x="531" y="333" on="0"/>
        <pt x="416" y="458" on="0"/>
        <pt x="354" y="627" on="0"/>
        <pt x="354" y="726" on="1"/>
        <pt x="354" y="828" on="0"/>
        <pt x="424" y="998" on="0"/>
        <pt x="548" y="1121" on="0"/>
        <pt x="715" y="1189" on="0"/>
        <pt x="813" y="1189" on="1"/>
        <pt x="925" y="1189" on="0"/>
        <pt x="1084" y="1115" on="0"/>
        <pt x="1138" y="1056" on="1"/>
        <pt x="1073" y="967" on="1"/>
        <pt x="1067" y="959" on="0"/>
        <pt x="1047" y="943" on="0"/>
        <pt x="1030" y="943" on="1"/>
        <pt x="1013" y="943" on="0"/>
        <pt x="983" y="963" on="0"/>
        <pt x="941" y="987" on="0"/>
        <pt x="877" y="1007" on="0"/>
        <pt x="826" y="1007" on="1"/>
        <pt x="766" y="1007" on="0"/>
        <pt x="672" y="968" on="0"/>
        <pt x="607" y="895" on="0"/>
        <pt x="573" y="791" on="0"/>
        <pt x="573" y="726" on="1"/>
        <pt x="573" y="658" on="0"/>
        <pt x="608" y="554" on="0"/>
        <pt x="670" y="483" on="0"/>
        <pt x="755" y="446" on="0"/>
        <pt x="805" y="446" on="1"/>
        <pt x="854" y="446" on="0"/>
        <pt x="917" y="462" on="0"/>
        <pt x="961" y="484" on="0"/>
        <pt x="995" y="506" on="0"/>
      </contour>
      <contour>
        <pt x="53" y="723" on="1"/>
        <pt x="53" y="825" on="0"/>
        <pt x="106" y="1014" on="0"/>
        <pt x="202" y="1178" on="0"/>
        <pt x="337" y="1313" on="0"/>
        <pt x="501" y="1409" on="0"/>
        <pt x="689" y="1462" on="0"/>
        <pt x="791" y="1462" on="1"/>
        <pt x="893" y="1462" on="0"/>
        <pt x="1082" y="1409" on="0"/>
        <pt x="1246" y="1313" on="0"/>
        <pt x="1381" y="1178" on="0"/>
        <pt x="1477" y="1014" on="0"/>
        <pt x="1530" y="825" on="0"/>
        <pt x="1530" y="723" on="1"/>
        <pt x="1530" y="622" on="0"/>
        <pt x="1477" y="433" on="0"/>
        <pt x="1381" y="270" on="0"/>
        <pt x="1246" y="135" on="0"/>
        <pt x="1082" y="39" on="0"/>
        <pt x="893" y="-14" on="0"/>
        <pt x="791" y="-14" on="1"/>
        <pt x="689" y="-14" on="0"/>
        <pt x="501" y="39" on="0"/>
        <pt x="337" y="135" on="0"/>
        <pt x="202" y="270" on="0"/>
        <pt x="106" y="433" on="0"/>
        <pt x="53" y="621" on="0"/>
      </contour>
      <contour>
        <pt x="188" y="723" on="1"/>
        <pt x="188" y="593" on="0"/>
        <pt x="281" y="367" on="0"/>
        <pt x="444" y="200" on="0"/>
        <pt x="664" y="104" on="0"/>
        <pt x="791" y="104" on="1"/>
        <pt x="918" y="104" on="0"/>
        <pt x="1140" y="200" on="0"/>
        <pt x="1304" y="367" on="0"/>
        <pt x="1398" y="593" on="0"/>
        <pt x="1398" y="723" on="1"/>
        <pt x="1398" y="810" on="0"/>
        <pt x="1355" y="970" on="0"/>
        <pt x="1277" y="1109" on="0"/>
        <pt x="1166" y="1222" on="0"/>
        <pt x="1032" y="1303" on="0"/>
        <pt x="876" y="1347" on="0"/>
        <pt x="791" y="1347" on="1"/>
        <pt x="706" y="1347" on="0"/>
        <pt x="551" y="1303" on="0"/>
        <pt x="417" y="1222" on="0"/>
        <pt x="308" y="1109" on="0"/>
        <pt x="230" y="970" on="0"/>
        <pt x="188" y="810" on="0"/>
      </contour>
    </TTGlyph>
    <TTGlyph name="currency" xMin="110" yMin="204" xMax="1050" yMax="1142">
      <contour>
        <pt x="211" y="673" on="1"/>
        <pt x="211" y="726" on="0"/>
        <pt x="238" y="821" on="0"/>
        <pt x="263" y="863" on="1"/>
        <pt x="110" y="1015" on="1"/>
        <pt x="235" y="1137" on="1"/>
        <pt x="385" y="987" on="1"/>
        <pt x="428" y="1013" on="0"/>
        <pt x="526" y="1042" on="0"/>
        <pt x="580" y="1042" on="1"/>
        <pt x="632" y="1042" on="0"/>
        <pt x="728" y="1015" on="0"/>
        <pt x="770" y="990" on="1"/>
        <pt x="922" y="1142" on="1"/>
        <pt x="1045" y="1019" on="1"/>
        <pt x="894" y="868" on="1"/>
        <pt x="920" y="825" on="0"/>
        <pt x="949" y="727" on="0"/>
        <pt x="949" y="673" on="1"/>
        <pt x="949" y="620" on="0"/>
        <pt x="922" y="526" on="0"/>
        <pt x="897" y="484" on="1"/>
        <pt x="1050" y="332" on="1"/>
        <pt x="925" y="209" on="1"/>
        <pt x="774" y="359" on="1"/>
        <pt x="732" y="333" on="0"/>
        <pt x="634" y="305" on="0"/>
        <pt x="580" y="305" on="1"/>
        <pt x="528" y="305" on="0"/>
        <pt x="433" y="331" on="0"/>
        <pt x="391" y="356" on="1"/>
        <pt x="238" y="204" on="1"/>
        <pt x="115" y="328" on="1"/>
        <pt x="266" y="478" on="1"/>
        <pt x="240" y="521" on="0"/>
        <pt x="211" y="619" on="0"/>
      </contour>
      <contour>
        <pt x="393" y="673" on="1"/>
        <pt x="393" y="635" on="0"/>
        <pt x="422" y="566" on="0"/>
        <pt x="473" y="515" on="0"/>
        <pt x="541" y="485" on="0"/>
        <pt x="580" y="485" on="1"/>
        <pt x="619" y="485" on="0"/>
        <pt x="688" y="515" on="0"/>
        <pt x="739" y="566" on="0"/>
        <pt x="769" y="635" on="0"/>
        <pt x="769" y="673" on="1"/>
        <pt x="769" y="713" on="0"/>
        <pt x="739" y="782" on="0"/>
        <pt x="688" y="833" on="0"/>
        <pt x="619" y="863" on="0"/>
        <pt x="580" y="863" on="1"/>
        <pt x="541" y="863" on="0"/>
        <pt x="473" y="833" on="0"/>
        <pt x="422" y="782" on="0"/>
        <pt x="393" y="713" on="0"/>
      </contour>
    </TTGlyph>
    <TTGlyph name="d" xMin="61" yMin="-15" xMax="1005" yMax="1486">
      <contour>
        <pt x="854" y="0" on="1"/>
        <pt x="806" y="0" on="0"/>
        <pt x="791" y="45" on="1"/>
        <pt x="771" y="144" on="1"/>
        <pt x="739" y="108" on="0"/>
        <pt x="669" y="50" on="0"/>
        <pt x="588" y="8" on="0"/>
        <pt x="495" y="-15" on="0"/>
        <pt x="441" y="-15" on="1"/>
        <pt x="357" y="-15" on="0"/>
        <pt x="217" y="55" on="0"/>
        <pt x="116" y="188" on="0"/>
        <pt x="61" y="384" on="0"/>
        <pt x="61" y="510" on="1"/>
        <pt x="61" y="624" on="0"/>
        <pt x="123" y="820" on="0"/>
        <pt x="239" y="964" on="0"/>
        <pt x="401" y="1045" on="0"/>
        <pt x="502" y="1045" on="1"/>
        <pt x="588" y="1045" on="0"/>
        <pt x="710" y="990" on="0"/>
        <pt x="758" y="944" on="1"/>
        <pt x="758" y="1486" on="1"/>
        <pt x="1005" y="1486" on="1"/>
        <pt x="1005" y="0" on="1"/>
      </contour>
      <contour>
        <pt x="525" y="181" on="1"/>
        <pt x="602" y="181" on="0"/>
        <pt x="710" y="245" on="0"/>
        <pt x="758" y="304" on="1"/>
        <pt x="758" y="764" on="1"/>
        <pt x="716" y="815" on="0"/>
        <pt x="617" y="857" on="0"/>
        <pt x="560" y="857" on="1"/>
        <pt x="504" y="857" on="0"/>
        <pt x="413" y="815" on="0"/>
        <pt x="350" y="730" on="0"/>
        <pt x="316" y="599" on="0"/>
        <pt x="316" y="510" on="1"/>
        <pt x="316" y="420" on="0"/>
        <pt x="345" y="295" on="0"/>
        <pt x="399" y="216" on="0"/>
        <pt x="477" y="181" on="0"/>
      </contour>
    </TTGlyph>
    <TTGlyph name="dagger" xMin="84" yMin="-355" xMax="1081" yMax="1497">
      <contour>
        <pt x="84" y="913" on="1"/>
        <pt x="84" y="934" on="0"/>
        <pt x="97" y="972" on="0"/>
        <pt x="126" y="1002" on="0"/>
        <pt x="169" y="1020" on="0"/>
        <pt x="199" y="1020" on="1"/>
        <pt x="262" y="1019" on="0"/>
        <pt x="410" y="987" on="0"/>
        <pt x="485" y="976" on="1"/>
        <pt x="454" y="1465" on="1"/>
        <pt x="509" y="1497" on="0"/>
        <pt x="582" y="1497" on="1"/>
        <pt x="618" y="1497" on="0"/>
        <pt x="684" y="1481" on="0"/>
        <pt x="710" y="1465" on="1"/>
        <pt x="678" y="976" on="1"/>
        <pt x="753" y="987" on="0"/>
        <pt x="902" y="1019" on="0"/>
        <pt x="965" y="1020" on="1"/>
        <pt x="995" y="1020" on="0"/>
        <pt x="1039" y="1002" on="0"/>
        <pt x="1067" y="972" on="0"/>
        <pt x="1081" y="934" on="0"/>
        <pt x="1081" y="913" on="1"/>
        <pt x="1081" y="831" on="1"/>
        <pt x="678" y="831" on="1"/>
        <pt x="678" y="477" on="1"/>
        <pt x="710" y="-323" on="1"/>
        <pt x="684" y="-339" on="0"/>
        <pt x="618" y="-355" on="0"/>
        <pt x="582" y="-355" on="1"/>
        <pt x="509" y="-355" on="0"/>
        <pt x="454" y="-323" on="1"/>
        <pt x="486" y="477" on="1"/>
        <pt x="486" y="831" on="1"/>
        <pt x="84" y="831" on="1"/>
      </contour>
    </TTGlyph>
    <TTGlyph name="daggerdbl" xMin="84" yMin="-355" xMax="1081" yMax="1497">
      <contour>
        <pt x="84" y="913" on="1"/>
        <pt x="84" y="934" on="0"/>
        <pt x="97" y="972" on="0"/>
        <pt x="126" y="1002" on="0"/>
        <pt x="169" y="1020" on="0"/>
        <pt x="199" y="1020" on="1"/>
        <pt x="262" y="1019" on="0"/>
        <pt x="410" y="987" on="0"/>
        <pt x="485" y="976" on="1"/>
        <pt x="454" y="1465" on="1"/>
        <pt x="509" y="1497" on="0"/>
        <pt x="582" y="1497" on="1"/>
        <pt x="618" y="1497" on="0"/>
        <pt x="684" y="1481" on="0"/>
        <pt x="710" y="1465" on="1"/>
        <pt x="678" y="976" on="1"/>
        <pt x="753" y="987" on="0"/>
        <pt x="902" y="1019" on="0"/>
        <pt x="965" y="1020" on="1"/>
        <pt x="995" y="1020" on="0"/>
        <pt x="1039" y="1002" on="0"/>
        <pt x="1067" y="972" on="0"/>
        <pt x="1081" y="934" on="0"/>
        <pt x="1081" y="913" on="1"/>
        <pt x="1081" y="831" on="1"/>
        <pt x="678" y="831" on="1"/>
        <pt x="678" y="311" on="1"/>
        <pt x="1081" y="311" on="1"/>
        <pt x="1081" y="229" on="1"/>
        <pt x="1081" y="208" on="0"/>
        <pt x="1067" y="170" on="0"/>
        <pt x="1039" y="140" on="0"/>
        <pt x="995" y="122" on="0"/>
        <pt x="965" y="122" on="1"/>
        <pt x="902" y="123" on="0"/>
        <pt x="753" y="154" on="0"/>
        <pt x="678" y="165" on="1"/>
        <pt x="710" y="-323" on="1"/>
        <pt x="684" y="-339" on="0"/>
        <pt x="618" y="-355" on="0"/>
        <pt x="582" y="-355" on="1"/>
        <pt x="509" y="-355" on="0"/>
        <pt x="454" y="-323" on="1"/>
        <pt x="485" y="165" on="1"/>
        <pt x="410" y="154" on="0"/>
        <pt x="262" y="123" on="0"/>
        <pt x="199" y="122" on="1"/>
        <pt x="169" y="122" on="0"/>
        <pt x="126" y="140" on="0"/>
        <pt x="97" y="170" on="0"/>
        <pt x="84" y="208" on="0"/>
        <pt x="84" y="229" on="1"/>
        <pt x="84" y="311" on="1"/>
        <pt x="486" y="311" on="1"/>
        <pt x="486" y="831" on="1"/>
        <pt x="84" y="831" on="1"/>
      </contour>
    </TTGlyph>
    <TTGlyph name="degree" xMin="55" yMin="783" xMax="748" yMax="1464">
      <contour>
        <pt x="55" y="1123" on="1"/>
        <pt x="55" y="1194" on="0"/>
        <pt x="108" y="1319" on="0"/>
        <pt x="201" y="1411" on="0"/>
        <pt x="327" y="1464" on="0"/>
        <pt x="400" y="1464" on="1"/>
        <pt x="473" y="1464" on="0"/>
        <pt x="600" y="1411" on="0"/>
        <pt x="694" y="1319" on="0"/>
        <pt x="748" y="1194" on="0"/>
        <pt x="748" y="1123" on="1"/>
        <pt x="748" y="1054" on="0"/>
        <pt x="694" y="930" on="0"/>
        <pt x="600" y="837" on="0"/>
        <pt x="473" y="783" on="0"/>
        <pt x="400" y="783" on="1"/>
        <pt x="327" y="783" on="0"/>
        <pt x="201" y="837" on="0"/>
        <pt x="108" y="930" on="0"/>
        <pt x="55" y="1054" on="0"/>
      </contour>
      <contour>
        <pt x="227" y="1121" on="1"/>
        <pt x="227" y="1084" on="0"/>
        <pt x="253" y="1020" on="0"/>
        <pt x="300" y="973" on="0"/>
        <pt x="363" y="946" on="0"/>
        <pt x="400" y="946" on="1"/>
        <pt x="437" y="946" on="0"/>
        <pt x="501" y="973" on="0"/>
        <pt x="548" y="1020" on="0"/>
        <pt x="574" y="1084" on="0"/>
        <pt x="574" y="1121" on="1"/>
        <pt x="574" y="1159" on="0"/>
        <pt x="548" y="1224" on="0"/>
        <pt x="501" y="1272" on="0"/>
        <pt x="437" y="1300" on="0"/>
        <pt x="400" y="1300" on="1"/>
        <pt x="363" y="1300" on="0"/>
        <pt x="300" y="1272" on="0"/>
        <pt x="253" y="1224" on="0"/>
        <pt x="227" y="1159" on="0"/>
      </contour>
    </TTGlyph>
    <TTGlyph name="dieresis" xMin="-6" yMin="1158" xMax="644" yMax="1432">
      <contour>
        <pt x="270" y="1292" on="1"/>
        <pt x="270" y="1264" on="0"/>
        <pt x="248" y="1215" on="0"/>
        <pt x="209" y="1179" on="0"/>
        <pt x="158" y="1158" on="0"/>
        <pt x="130" y="1158" on="1"/>
        <pt x="103" y="1158" on="0"/>
        <pt x="54" y="1179" on="0"/>
        <pt x="16" y="1215" on="0"/>
        <pt x="-6" y="1264" on="0"/>
        <pt x="-6" y="1292" on="1"/>
        <pt x="-6" y="1321" on="0"/>
        <pt x="16" y="1372" on="0"/>
        <pt x="54" y="1410" on="0"/>
        <pt x="103" y="1432" on="0"/>
        <pt x="130" y="1432" on="1"/>
        <pt x="158" y="1432" on="0"/>
        <pt x="209" y="1410" on="0"/>
        <pt x="248" y="1372" on="0"/>
        <pt x="270" y="1321" on="0"/>
      </contour>
      <contour>
        <pt x="644" y="1292" on="1"/>
        <pt x="644" y="1264" on="0"/>
        <pt x="622" y="1215" on="0"/>
        <pt x="584" y="1179" on="0"/>
        <pt x="533" y="1158" on="0"/>
        <pt x="505" y="1158" on="1"/>
        <pt x="477" y="1158" on="0"/>
        <pt x="427" y="1179" on="0"/>
        <pt x="390" y="1215" on="0"/>
        <pt x="368" y="1264" on="0"/>
        <pt x="368" y="1292" on="1"/>
        <pt x="368" y="1321" on="0"/>
        <pt x="390" y="1372" on="0"/>
        <pt x="427" y="1410" on="0"/>
        <pt x="477" y="1432" on="0"/>
        <pt x="505" y="1432" on="1"/>
        <pt x="533" y="1432" on="0"/>
        <pt x="584" y="1410" on="0"/>
        <pt x="622" y="1372" on="0"/>
        <pt x="644" y="1321" on="0"/>
      </contour>
    </TTGlyph>
    <TTGlyph name="dieresis.case" xMin="-31" yMin="1536" xMax="669" yMax="1802">
      <contour>
        <pt x="237" y="1667" on="1"/>
        <pt x="237" y="1640" on="0"/>
        <pt x="215" y="1592" on="0"/>
        <pt x="177" y="1556" on="0"/>
        <pt x="127" y="1536" on="0"/>
        <pt x="99" y="1536" on="1"/>
        <pt x="73" y="1536" on="0"/>
        <pt x="26" y="1556" on="0"/>
        <pt x="-10" y="1592" on="0"/>
        <pt x="-31" y="1640" on="0"/>
        <pt x="-31" y="1667" on="1"/>
        <pt x="-31" y="1694" on="0"/>
        <pt x="-10" y="1743" on="0"/>
        <pt x="26" y="1780" on="0"/>
        <pt x="73" y="1802" on="0"/>
        <pt x="99" y="1802" on="1"/>
        <pt x="127" y="1802" on="0"/>
        <pt x="177" y="1780" on="0"/>
        <pt x="215" y="1743" on="0"/>
        <pt x="237" y="1694" on="0"/>
      </contour>
      <contour>
        <pt x="669" y="1667" on="1"/>
        <pt x="669" y="1640" on="0"/>
        <pt x="648" y="1592" on="0"/>
        <pt x="612" y="1556" on="0"/>
        <pt x="563" y="1536" on="0"/>
        <pt x="535" y="1536" on="1"/>
        <pt x="508" y="1536" on="0"/>
        <pt x="459" y="1556" on="0"/>
        <pt x="422" y="1592" on="0"/>
        <pt x="401" y="1640" on="0"/>
        <pt x="401" y="1667" on="1"/>
        <pt x="401" y="1694" on="0"/>
        <pt x="422" y="1743" on="0"/>
        <pt x="459" y="1780" on="0"/>
        <pt x="508" y="1802" on="0"/>
        <pt x="535" y="1802" on="1"/>
        <pt x="563" y="1802" on="0"/>
        <pt x="612" y="1780" on="0"/>
        <pt x="648" y="1743" on="0"/>
        <pt x="669" y="1694" on="0"/>
      </contour>
    </TTGlyph>
    <TTGlyph name="divide" xMin="91" yMin="165" xMax="1067" yMax="1178">
      <contour>
        <pt x="91" y="763" on="1"/>
        <pt x="1067" y="763" on="1"/>
        <pt x="1067" y="580" on="1"/>
        <pt x="91" y="580" on="1"/>
      </contour>
      <contour>
        <pt x="427" y="1027" on="1"/>
        <pt x="427" y="1058" on="0"/>
        <pt x="450" y="1114" on="0"/>
        <pt x="490" y="1154" on="0"/>
        <pt x="546" y="1178" on="0"/>
        <pt x="578" y="1178" on="1"/>
        <pt x="609" y="1178" on="0"/>
        <pt x="665" y="1154" on="0"/>
        <pt x="706" y="1114" on="0"/>
        <pt x="730" y="1058" on="0"/>
        <pt x="730" y="1027" on="1"/>
        <pt x="730" y="995" on="0"/>
        <pt x="706" y="940" on="0"/>
        <pt x="665" y="900" on="0"/>
        <pt x="609" y="877" on="0"/>
        <pt x="578" y="877" on="1"/>
        <pt x="546" y="877" on="0"/>
        <pt x="490" y="900" on="0"/>
        <pt x="450" y="940" on="0"/>
        <pt x="427" y="995" on="0"/>
      </contour>
      <contour>
        <pt x="427" y="315" on="1"/>
        <pt x="427" y="346" on="0"/>
        <pt x="450" y="402" on="0"/>
        <pt x="490" y="442" on="0"/>
        <pt x="546" y="466" on="0"/>
        <pt x="578" y="466" on="1"/>
        <pt x="609" y="466" on="0"/>
        <pt x="665" y="442" on="0"/>
        <pt x="706" y="402" on="0"/>
        <pt x="730" y="346" on="0"/>
        <pt x="730" y="315" on="1"/>
        <pt x="730" y="283" on="0"/>
        <pt x="706" y="228" on="0"/>
        <pt x="665" y="188" on="0"/>
        <pt x="609" y="165" on="0"/>
        <pt x="578" y="165" on="1"/>
        <pt x="546" y="165" on="0"/>
        <pt x="490" y="188" on="0"/>
        <pt x="450" y="228" on="0"/>
        <pt x="427" y="283" on="0"/>
      </contour>
    </TTGlyph>
    <TTGlyph name="dollar" xMin="69" yMin="-223" xMax="1082" yMax="1647">
      <contour>
        <pt x="463" y="-9" on="1"/>
        <pt x="346" y="7" on="0"/>
        <pt x="141" y="103" on="0"/>
        <pt x="69" y="174" on="1"/>
        <pt x="145" y="287" on="1"/>
        <pt x="155" y="302" on="0"/>
        <pt x="188" y="321" on="0"/>
        <pt x="206" y="321" on="1"/>
        <pt x="228" y="321" on="0"/>
        <pt x="278" y="290" on="0"/>
        <pt x="342" y="248" on="0"/>
        <pt x="424" y="206" on="0"/>
        <pt x="480" y="196" on="1"/>
        <pt x="518" y="644" on="1"/>
        <pt x="447" y="664" on="0"/>
        <pt x="308" y="718" on="0"/>
        <pt x="197" y="807" on="0"/>
        <pt x="129" y="943" on="0"/>
        <pt x="129" y="1045" on="1"/>
        <pt x="129" y="1121" on="0"/>
        <pt x="190" y="1266" on="0"/>
        <pt x="306" y="1380" on="0"/>
        <pt x="476" y="1454" on="0"/>
        <pt x="586" y="1459" on="1"/>
        <pt x="597" y="1585" on="1"/>
        <pt x="599" y="1609" on="0"/>
        <pt x="635" y="1647" on="0"/>
        <pt x="664" y="1647" on="1"/>
        <pt x="755" y="1647" on="1"/>
        <pt x="738" y="1450" on="1"/>
        <pt x="844" y="1433" on="0"/>
        <pt x="998" y="1347" on="0"/>
        <pt x="1055" y="1293" on="1"/>
        <pt x="995" y="1202" on="1"/>
        <pt x="981" y="1182" on="0"/>
        <pt x="953" y="1162" on="0"/>
        <pt x="933" y="1162" on="1"/>
        <pt x="918" y="1162" on="0"/>
        <pt x="877" y="1181" on="0"/>
        <pt x="824" y="1208" on="0"/>
        <pt x="760" y="1236" on="0"/>
        <pt x="721" y="1245" on="1"/>
        <pt x="686" y="831" on="1"/>
        <pt x="758" y="809" on="0"/>
        <pt x="899" y="756" on="0"/>
        <pt x="1012" y="672" on="0"/>
        <pt x="1082" y="547" on="0"/>
        <pt x="1082" y="453" on="1"/>
        <pt x="1082" y="360" on="0"/>
        <pt x="1020" y="197" on="0"/>
        <pt x="901" y="72" on="0"/>
        <pt x="727" y="-6" on="0"/>
        <pt x="615" y="-14" on="1"/>
        <pt x="603" y="-161" on="1"/>
        <pt x="601" y="-184" on="0"/>
        <pt x="565" y="-223" on="0"/>
        <pt x="536" y="-223" on="1"/>
        <pt x="445" y="-223" on="1"/>
      </contour>
      <contour>
        <pt x="848" y="415" on="1"/>
        <pt x="848" y="453" on="0"/>
        <pt x="821" y="510" on="0"/>
        <pt x="772" y="554" on="0"/>
        <pt x="706" y="586" on="0"/>
        <pt x="667" y="599" on="1"/>
        <pt x="633" y="193" on="1"/>
        <pt x="739" y="207" on="0"/>
        <pt x="848" y="322" on="0"/>
      </contour>
      <contour>
        <pt x="362" y="1069" on="1"/>
        <pt x="362" y="1031" on="0"/>
        <pt x="388" y="973" on="0"/>
        <pt x="435" y="928" on="0"/>
        <pt x="499" y="893" on="0"/>
        <pt x="537" y="879" on="1"/>
        <pt x="568" y="1249" on="1"/>
        <pt x="513" y="1242" on="0"/>
        <pt x="435" y="1209" on="0"/>
        <pt x="385" y="1161" on="0"/>
        <pt x="362" y="1102" on="0"/>
      </contour>
    </TTGlyph>
    <TTGlyph name="dotaccent" xMin="162" yMin="1173" xMax="478" yMax="1487">
      <contour>
        <pt x="478" y="1329" on="1"/>
        <pt x="478" y="1297" on="0"/>
        <pt x="452" y="1240" on="0"/>
        <pt x="409" y="1198" on="0"/>
        <pt x="350" y="1173" on="0"/>
        <pt x="317" y="1173" on="1"/>
        <pt x="285" y="1173" on="0"/>
        <pt x="229" y="1198" on="0"/>
        <pt x="187" y="1240" on="0"/>
        <pt x="162" y="1297" on="0"/>
        <pt x="162" y="1329" on="1"/>
        <pt x="162" y="1362" on="0"/>
        <pt x="187" y="1419" on="0"/>
        <pt x="229" y="1462" on="0"/>
        <pt x="285" y="1487" on="0"/>
        <pt x="317" y="1487" on="1"/>
        <pt x="350" y="1487" on="0"/>
        <pt x="409" y="1462" on="0"/>
        <pt x="452" y="1419" on="0"/>
        <pt x="478" y="1362" on="0"/>
      </contour>
    </TTGlyph>
    <TTGlyph name="dotaccent.case" xMin="168" yMin="1548" xMax="470" yMax="1847">
      <contour>
        <pt x="470" y="1696" on="1"/>
        <pt x="470" y="1666" on="0"/>
        <pt x="445" y="1613" on="0"/>
        <pt x="403" y="1572" on="0"/>
        <pt x="347" y="1548" on="0"/>
        <pt x="316" y="1548" on="1"/>
        <pt x="287" y="1548" on="0"/>
        <pt x="233" y="1572" on="0"/>
        <pt x="192" y="1613" on="0"/>
        <pt x="168" y="1666" on="0"/>
        <pt x="168" y="1696" on="1"/>
        <pt x="168" y="1727" on="0"/>
        <pt x="192" y="1782" on="0"/>
        <pt x="233" y="1823" on="0"/>
        <pt x="287" y="1847" on="0"/>
        <pt x="316" y="1847" on="1"/>
        <pt x="347" y="1847" on="0"/>
        <pt x="403" y="1823" on="0"/>
        <pt x="445" y="1782" on="0"/>
        <pt x="470" y="1727" on="0"/>
      </contour>
    </TTGlyph>
    <TTGlyph name="dotlessi" xMin="148" yMin="0" xMax="395" yMax="1026">
      <contour>
        <pt x="395" y="1026" on="1"/>
        <pt x="395" y="0" on="1"/>
        <pt x="148" y="0" on="1"/>
        <pt x="148" y="1026" on="1"/>
      </contour>
    </TTGlyph>
    <TTGlyph name="e" xMin="63" yMin="-15" xMax="1000" yMax="1042">
      <contour>
        <pt x="556" y="1042" on="1"/>
        <pt x="653" y="1042" on="0"/>
        <pt x="816" y="980" on="0"/>
        <pt x="934" y="861" on="0"/>
        <pt x="1000" y="688" on="0"/>
        <pt x="1000" y="577" on="1"/>
        <pt x="1000" y="549" on="0"/>
        <pt x="995" y="512" on="0"/>
        <pt x="982" y="491" on="0"/>
        <pt x="960" y="482" on="0"/>
        <pt x="943" y="482" on="1"/>
        <pt x="309" y="482" on="1"/>
        <pt x="320" y="324" on="0"/>
        <pt x="468" y="176" on="0"/>
        <pt x="590" y="176" on="1"/>
        <pt x="650" y="176" on="0"/>
        <pt x="737" y="204" on="0"/>
        <pt x="802" y="238" on="0"/>
        <pt x="851" y="266" on="0"/>
        <pt x="874" y="266" on="1"/>
        <pt x="889" y="266" on="0"/>
        <pt x="911" y="254" on="0"/>
        <pt x="919" y="243" on="1"/>
        <pt x="991" y="153" on="1"/>
        <pt x="950" y="105" on="0"/>
        <pt x="848" y="40" on="0"/>
        <pt x="737" y="1" on="0"/>
        <pt x="622" y="-15" on="0"/>
        <pt x="568" y="-15" on="1"/>
        <pt x="461" y="-15" on="0"/>
        <pt x="277" y="56" on="0"/>
        <pt x="141" y="195" on="0"/>
        <pt x="63" y="400" on="0"/>
        <pt x="63" y="535" on="1"/>
        <pt x="63" y="640" on="0"/>
        <pt x="131" y="825" on="0"/>
        <pt x="258" y="962" on="0"/>
        <pt x="441" y="1042" on="0"/>
      </contour>
      <contour>
        <pt x="561" y="865" on="1"/>
        <pt x="453" y="865" on="0"/>
        <pt x="331" y="743" on="0"/>
        <pt x="314" y="631" on="1"/>
        <pt x="778" y="631" on="1"/>
        <pt x="778" y="679" on="0"/>
        <pt x="752" y="764" on="0"/>
        <pt x="698" y="828" on="0"/>
        <pt x="616" y="865" on="0"/>
      </contour>
    </TTGlyph>
    <TTGlyph name="eacute" xMin="63" yMin="-15" xMax="1000" yMax="1462">
      <component glyphName="e" x="0" y="0" flags="0x204"/>
      <component glyphName="acute" x="243" y="0" flags="0x4"/>
    </TTGlyph>
    <TTGlyph name="ecircumflex" xMin="63" yMin="-15" xMax="1000" yMax="1446">
      <component glyphName="e" x="0" y="0" flags="0x204"/>
      <component glyphName="circumflex" x="243" y="0" flags="0x4"/>
    </TTGlyph>
    <TTGlyph name="edieresis" xMin="63" yMin="-15" xMax="1000" yMax="1432">
      <component glyphName="e" x="0" y="0" flags="0x204"/>
      <component glyphName="dieresis" x="243" y="0" flags="0x4"/>
    </TTGlyph>
    <TTGlyph name="egrave" xMin="63" yMin="-15" xMax="1000" yMax="1462">
      <component glyphName="e" x="0" y="0" flags="0x204"/>
      <component glyphName="grave" x="243" y="0" flags="0x4"/>
    </TTGlyph>
    <TTGlyph name="eight" xMin="78" yMin="-16" xMax="1082" yMax="1462">
      <contour>
        <pt x="580" y="-16" on="1"/>
        <pt x="468" y="-16" on="0"/>
        <pt x="283" y="44" on="0"/>
        <pt x="151" y="154" on="0"/>
        <pt x="78" y="310" on="0"/>
        <pt x="78" y="406" on="1"/>
        <pt x="78" y="534" on="0"/>
        <pt x="204" y="711" on="0"/>
        <pt x="337" y="754" on="1"/>
        <pt x="231" y="798" on="0"/>
        <pt x="126" y="960" on="0"/>
        <pt x="126" y="1074" on="1"/>
        <pt x="126" y="1156" on="0"/>
        <pt x="193" y="1298" on="0"/>
        <pt x="313" y="1403" on="0"/>
        <pt x="480" y="1462" on="0"/>
        <pt x="580" y="1462" on="1"/>
        <pt x="680" y="1462" on="0"/>
        <pt x="847" y="1403" on="0"/>
        <pt x="967" y="1298" on="0"/>
        <pt x="1034" y="1156" on="0"/>
        <pt x="1034" y="1074" on="1"/>
        <pt x="1034" y="960" on="0"/>
        <pt x="928" y="798" on="0"/>
        <pt x="823" y="754" on="1"/>
        <pt x="956" y="711" on="0"/>
        <pt x="1082" y="534" on="0"/>
        <pt x="1082" y="406" on="1"/>
        <pt x="1082" y="310" on="0"/>
        <pt x="1009" y="154" on="0"/>
        <pt x="877" y="44" on="0"/>
        <pt x="692" y="-16" on="0"/>
      </contour>
      <contour>
        <pt x="580" y="177" on="1"/>
        <pt x="641" y="177" on="0"/>
        <pt x="733" y="212" on="0"/>
        <pt x="796" y="274" on="0"/>
        <pt x="828" y="360" on="0"/>
        <pt x="828" y="410" on="1"/>
        <pt x="828" y="529" on="0"/>
        <pt x="696" y="651" on="0"/>
        <pt x="580" y="651" on="1"/>
        <pt x="464" y="651" on="0"/>
        <pt x="332" y="529" on="0"/>
        <pt x="332" y="410" on="1"/>
        <pt x="332" y="360" on="0"/>
        <pt x="364" y="274" on="0"/>
        <pt x="427" y="212" on="0"/>
        <pt x="519" y="177" on="0"/>
      </contour>
      <contour>
        <pt x="580" y="845" on="1"/>
        <pt x="640" y="845" on="0"/>
        <pt x="722" y="883" on="0"/>
        <pt x="772" y="946" on="0"/>
        <pt x="793" y="1027" on="0"/>
        <pt x="793" y="1070" on="1"/>
        <pt x="793" y="1111" on="0"/>
        <pt x="767" y="1185" on="0"/>
        <pt x="715" y="1242" on="0"/>
        <pt x="635" y="1276" on="0"/>
        <pt x="580" y="1276" on="1"/>
        <pt x="525" y="1276" on="0"/>
        <pt x="445" y="1242" on="0"/>
        <pt x="392" y="1185" on="0"/>
        <pt x="367" y="1111" on="0"/>
        <pt x="367" y="1070" on="1"/>
        <pt x="367" y="1027" on="0"/>
        <pt x="388" y="946" on="0"/>
        <pt x="438" y="883" on="0"/>
        <pt x="520" y="845" on="0"/>
      </contour>
    </TTGlyph>
    <TTGlyph name="ellipsis" xMin="73" yMin="-14" xMax="1444" yMax="287">
      <contour>
        <pt x="73" y="136" on="1"/>
        <pt x="73" y="167" on="0"/>
        <pt x="96" y="223" on="0"/>
        <pt x="137" y="263" on="0"/>
        <pt x="193" y="287" on="0"/>
        <pt x="225" y="287" on="1"/>
        <pt x="256" y="287" on="0"/>
        <pt x="312" y="263" on="0"/>
        <pt x="352" y="223" on="0"/>
        <pt x="376" y="167" on="0"/>
        <pt x="376" y="136" on="1"/>
        <pt x="376" y="104" on="0"/>
        <pt x="352" y="49" on="0"/>
        <pt x="312" y="9" on="0"/>
        <pt x="256" y="-14" on="0"/>
        <pt x="225" y="-14" on="1"/>
        <pt x="193" y="-14" on="0"/>
        <pt x="137" y="9" on="0"/>
        <pt x="96" y="49" on="0"/>
        <pt x="73" y="104" on="0"/>
      </contour>
      <contour>
        <pt x="1141" y="136" on="1"/>
        <pt x="1141" y="167" on="0"/>
        <pt x="1164" y="223" on="0"/>
        <pt x="1205" y="263" on="0"/>
        <pt x="1261" y="287" on="0"/>
        <pt x="1293" y="287" on="1"/>
        <pt x="1324" y="287" on="0"/>
        <pt x="1380" y="263" on="0"/>
        <pt x="1420" y="223" on="0"/>
        <pt x="1444" y="167" on="0"/>
        <pt x="1444" y="136" on="1"/>
        <pt x="1444" y="104" on="0"/>
        <pt x="1420" y="49" on="0"/>
        <pt x="1380" y="9" on="0"/>
        <pt x="1324" y="-14" on="0"/>
        <pt x="1293" y="-14" on="1"/>
        <pt x="1261" y="-14" on="0"/>
        <pt x="1205" y="9" on="0"/>
        <pt x="1164" y="49" on="0"/>
        <pt x="1141" y="104" on="0"/>
      </contour>
      <contour>
        <pt x="607" y="136" on="1"/>
        <pt x="607" y="167" on="0"/>
        <pt x="630" y="223" on="0"/>
        <pt x="671" y="263" on="0"/>
        <pt x="727" y="287" on="0"/>
        <pt x="759" y="287" on="1"/>
        <pt x="790" y="287" on="0"/>
        <pt x="846" y="263" on="0"/>
        <pt x="886" y="223" on="0"/>
        <pt x="910" y="167" on="0"/>
        <pt x="910" y="136" on="1"/>
        <pt x="910" y="104" on="0"/>
        <pt x="886" y="49" on="0"/>
        <pt x="846" y="9" on="0"/>
        <pt x="790" y="-14" on="0"/>
        <pt x="759" y="-14" on="1"/>
        <pt x="727" y="-14" on="0"/>
        <pt x="671" y="9" on="0"/>
        <pt x="630" y="49" on="0"/>
        <pt x="607" y="104" on="0"/>
      </contour>
    </TTGlyph>
    <TTGlyph name="emdash" xMin="163" yMin="512" xMax="1520" yMax="687">
      <contour>
        <pt x="163" y="687" on="1"/>
        <pt x="1520" y="687" on="1"/>
        <pt x="1520" y="512" on="1"/>
        <pt x="163" y="512" on="1"/>
      </contour>
    </TTGlyph>
    <TTGlyph name="endash" xMin="163" yMin="512" xMax="974" yMax="687">
      <contour>
        <pt x="163" y="687" on="1"/>
        <pt x="974" y="687" on="1"/>
        <pt x="974" y="512" on="1"/>
        <pt x="163" y="512" on="1"/>
      </contour>
    </TTGlyph>
    <TTGlyph name="eogonek" xMin="63" yMin="-345" xMax="1000" yMax="1042">
      <contour>
        <pt x="745" y="-187" on="1"/>
        <pt x="763" y="-187" on="0"/>
        <pt x="768" y="-203" on="1"/>
        <pt x="806" y="-294" on="1"/>
        <pt x="773" y="-316" on="0"/>
        <pt x="674" y="-345" on="0"/>
        <pt x="619" y="-345" on="1"/>
        <pt x="521" y="-345" on="0"/>
        <pt x="415" y="-263" on="0"/>
        <pt x="415" y="-198" on="1"/>
        <pt x="415" y="-147" on="0"/>
        <pt x="477" y="-53" on="0"/>
        <pt x="534" y="-14" on="1"/>
        <pt x="433" y="-9" on="0"/>
        <pt x="261" y="67" on="0"/>
        <pt x="135" y="206" on="0"/>
        <pt x="63" y="406" on="0"/>
        <pt x="63" y="535" on="1"/>
        <pt x="63" y="640" on="0"/>
        <pt x="131" y="825" on="0"/>
        <pt x="258" y="962" on="0"/>
        <pt x="441" y="1042" on="0"/>
        <pt x="556" y="1042" on="1"/>
        <pt x="653" y="1042" on="0"/>
        <pt x="816" y="980" on="0"/>
        <pt x="934" y="861" on="0"/>
        <pt x="1000" y="688" on="0"/>
        <pt x="1000" y="577" on="1"/>
        <pt x="1000" y="549" on="0"/>
        <pt x="995" y="512" on="0"/>
        <pt x="982" y="491" on="0"/>
        <pt x="960" y="482" on="0"/>
        <pt x="943" y="482" on="1"/>
        <pt x="309" y="482" on="1"/>
        <pt x="320" y="324" on="0"/>
        <pt x="468" y="176" on="0"/>
        <pt x="590" y="176" on="1"/>
        <pt x="650" y="176" on="0"/>
        <pt x="737" y="204" on="0"/>
        <pt x="802" y="238" on="0"/>
        <pt x="851" y="266" on="0"/>
        <pt x="874" y="266" on="1"/>
        <pt x="905" y="266" on="0"/>
        <pt x="919" y="243" on="1"/>
        <pt x="991" y="153" on="1"/>
        <pt x="932" y="85" on="0"/>
        <pt x="778" y="11" on="0"/>
        <pt x="698" y="-3" on="1"/>
        <pt x="679" y="-14" on="0"/>
        <pt x="643" y="-42" on="0"/>
        <pt x="616" y="-76" on="0"/>
        <pt x="599" y="-115" on="0"/>
        <pt x="599" y="-136" on="1"/>
        <pt x="599" y="-166" on="0"/>
        <pt x="637" y="-201" on="0"/>
        <pt x="671" y="-201" on="1"/>
        <pt x="690" y="-201" on="0"/>
        <pt x="714" y="-197" on="0"/>
        <pt x="729" y="-191" on="0"/>
        <pt x="740" y="-187" on="0"/>
      </contour>
      <contour>
        <pt x="561" y="865" on="1"/>
        <pt x="453" y="865" on="0"/>
        <pt x="331" y="743" on="0"/>
        <pt x="314" y="631" on="1"/>
        <pt x="778" y="631" on="1"/>
        <pt x="778" y="679" on="0"/>
        <pt x="752" y="764" on="0"/>
        <pt x="698" y="828" on="0"/>
        <pt x="616" y="865" on="0"/>
      </contour>
    </TTGlyph>
    <TTGlyph name="equal" xMin="136" yMin="404" xMax="1022" yMax="940">
      <contour>
        <pt x="136" y="588" on="1"/>
        <pt x="1022" y="588" on="1"/>
        <pt x="1022" y="404" on="1"/>
        <pt x="136" y="404" on="1"/>
      </contour>
      <contour>
        <pt x="136" y="940" on="1"/>
        <pt x="1022" y="940" on="1"/>
        <pt x="1022" y="757" on="1"/>
        <pt x="136" y="757" on="1"/>
      </contour>
    </TTGlyph>
    <TTGlyph name="eth" xMin="66" yMin="-15" xMax="1066" yMax="1432">
      <contour>
        <pt x="386" y="1062" on="1"/>
        <pt x="376" y="1078" on="0"/>
        <pt x="376" y="1095" on="1"/>
        <pt x="376" y="1125" on="0"/>
        <pt x="408" y="1143" on="1"/>
        <pt x="483" y="1186" on="1"/>
        <pt x="451" y="1199" on="0"/>
        <pt x="380" y="1221" on="0"/>
        <pt x="341" y="1232" on="1"/>
        <pt x="316" y="1239" on="0"/>
        <pt x="283" y="1275" on="0"/>
        <pt x="283" y="1305" on="1"/>
        <pt x="283" y="1321" on="0"/>
        <pt x="291" y="1347" on="1"/>
        <pt x="320" y="1432" on="1"/>
        <pt x="421" y="1415" on="0"/>
        <pt x="608" y="1353" on="0"/>
        <pt x="691" y="1304" on="1"/>
        <pt x="867" y="1418" on="1"/>
        <pt x="916" y="1338" on="1"/>
        <pt x="926" y="1321" on="0"/>
        <pt x="926" y="1307" on="1"/>
        <pt x="926" y="1293" on="0"/>
        <pt x="911" y="1269" on="0"/>
        <pt x="897" y="1261" on="1"/>
        <pt x="816" y="1215" on="1"/>
        <pt x="873" y="1164" on="0"/>
        <pt x="965" y="1039" on="0"/>
        <pt x="1031" y="889" on="0"/>
        <pt x="1066" y="711" on="0"/>
        <pt x="1066" y="608" on="1"/>
        <pt x="1066" y="461" on="0"/>
        <pt x="999" y="230" on="0"/>
        <pt x="869" y="69" on="0"/>
        <pt x="677" y="-15" on="0"/>
        <pt x="553" y="-15" on="1"/>
        <pt x="449" y="-15" on="0"/>
        <pt x="271" y="52" on="0"/>
        <pt x="141" y="178" on="0"/>
        <pt x="66" y="359" on="0"/>
        <pt x="66" y="474" on="1"/>
        <pt x="66" y="566" on="0"/>
        <pt x="131" y="732" on="0"/>
        <pt x="250" y="857" on="0"/>
        <pt x="418" y="931" on="0"/>
        <pt x="522" y="931" on="1"/>
        <pt x="617" y="931" on="0"/>
        <pt x="775" y="862" on="0"/>
        <pt x="836" y="796" on="1"/>
        <pt x="815" y="902" on="0"/>
        <pt x="715" y="1055" on="0"/>
        <pt x="630" y="1112" on="1"/>
        <pt x="432" y="984" on="1"/>
      </contour>
      <contour>
        <pt x="559" y="173" on="1"/>
        <pt x="617" y="173" on="0"/>
        <pt x="715" y="215" on="0"/>
        <pt x="787" y="308" on="0"/>
        <pt x="830" y="456" on="0"/>
        <pt x="833" y="562" on="1"/>
        <pt x="818" y="599" on="0"/>
        <pt x="771" y="665" on="0"/>
        <pt x="707" y="714" on="0"/>
        <pt x="624" y="743" on="0"/>
        <pt x="572" y="743" on="1"/>
        <pt x="508" y="743" on="0"/>
        <pt x="411" y="701" on="0"/>
        <pt x="345" y="627" on="0"/>
        <pt x="311" y="529" on="0"/>
        <pt x="311" y="472" on="1"/>
        <pt x="311" y="399" on="0"/>
        <pt x="350" y="288" on="0"/>
        <pt x="417" y="212" on="0"/>
        <pt x="507" y="173" on="0"/>
      </contour>
    </TTGlyph>
    <TTGlyph name="exclam" xMin="209" yMin="-14" xMax="512" yMax="1446">
      <contour>
        <pt x="480" y="1446" on="1"/>
        <pt x="480" y="874" on="1"/>
        <pt x="480" y="783" on="0"/>
        <pt x="462" y="608" on="0"/>
        <pt x="447" y="510" on="1"/>
        <pt x="280" y="510" on="1"/>
        <pt x="265" y="608" on="0"/>
        <pt x="247" y="783" on="0"/>
        <pt x="247" y="874" on="1"/>
        <pt x="247" y="1446" on="1"/>
      </contour>
      <contour>
        <pt x="209" y="136" on="1"/>
        <pt x="209" y="167" on="0"/>
        <pt x="232" y="223" on="0"/>
        <pt x="273" y="263" on="0"/>
        <pt x="329" y="287" on="0"/>
        <pt x="361" y="287" on="1"/>
        <pt x="392" y="287" on="0"/>
        <pt x="448" y="263" on="0"/>
        <pt x="488" y="223" on="0"/>
        <pt x="512" y="167" on="0"/>
        <pt x="512" y="136" on="1"/>
        <pt x="512" y="104" on="0"/>
        <pt x="488" y="49" on="0"/>
        <pt x="448" y="9" on="0"/>
        <pt x="392" y="-14" on="0"/>
        <pt x="361" y="-14" on="1"/>
        <pt x="329" y="-14" on="0"/>
        <pt x="273" y="9" on="0"/>
        <pt x="232" y="49" on="0"/>
        <pt x="209" y="104" on="0"/>
      </contour>
    </TTGlyph>
    <TTGlyph name="exclamdown" xMin="209" yMin="-335" xMax="512" yMax="1042">
      <contour>
        <pt x="247" y="-335" on="1"/>
        <pt x="247" y="198" on="1"/>
        <pt x="247" y="289" on="0"/>
        <pt x="265" y="464" on="0"/>
        <pt x="280" y="562" on="1"/>
        <pt x="447" y="562" on="1"/>
        <pt x="462" y="464" on="0"/>
        <pt x="480" y="289" on="0"/>
        <pt x="480" y="198" on="1"/>
        <pt x="480" y="-335" on="1"/>
      </contour>
      <contour>
        <pt x="209" y="892" on="1"/>
        <pt x="209" y="924" on="0"/>
        <pt x="232" y="979" on="0"/>
        <pt x="272" y="1019" on="0"/>
        <pt x="328" y="1042" on="0"/>
        <pt x="360" y="1042" on="1"/>
        <pt x="392" y="1042" on="0"/>
        <pt x="447" y="1019" on="0"/>
        <pt x="488" y="979" on="0"/>
        <pt x="512" y="924" on="0"/>
        <pt x="512" y="892" on="1"/>
        <pt x="512" y="860" on="0"/>
        <pt x="488" y="805" on="0"/>
        <pt x="447" y="765" on="0"/>
        <pt x="392" y="741" on="0"/>
        <pt x="360" y="741" on="1"/>
        <pt x="328" y="741" on="0"/>
        <pt x="272" y="765" on="0"/>
        <pt x="232" y="805" on="0"/>
        <pt x="209" y="860" on="0"/>
      </contour>
    </TTGlyph>
    <TTGlyph name="f" xMin="23" yMin="0" xMax="691" yMax="1471">
      <contour>
        <pt x="176" y="0" on="1"/>
        <pt x="176" y="840" on="1"/>
        <pt x="87" y="854" on="1"/>
        <pt x="58" y="859" on="0"/>
        <pt x="23" y="889" on="0"/>
        <pt x="23" y="916" on="1"/>
        <pt x="23" y="1017" on="1"/>
        <pt x="176" y="1017" on="1"/>
        <pt x="176" y="1093" on="1"/>
        <pt x="176" y="1181" on="0"/>
        <pt x="229" y="1321" on="0"/>
        <pt x="328" y="1419" on="0"/>
        <pt x="470" y="1471" on="0"/>
        <pt x="559" y="1471" on="1"/>
        <pt x="630" y="1471" on="0"/>
        <pt x="691" y="1452" on="1"/>
        <pt x="686" y="1328" on="1"/>
        <pt x="684" y="1299" on="0"/>
        <pt x="634" y="1285" on="0"/>
        <pt x="601" y="1285" on="1"/>
        <pt x="557" y="1285" on="0"/>
        <pt x="488" y="1266" on="0"/>
        <pt x="440" y="1219" on="0"/>
        <pt x="415" y="1142" on="0"/>
        <pt x="415" y="1085" on="1"/>
        <pt x="415" y="1017" on="1"/>
        <pt x="682" y="1017" on="1"/>
        <pt x="682" y="841" on="1"/>
        <pt x="423" y="841" on="1"/>
        <pt x="423" y="0" on="1"/>
      </contour>
    </TTGlyph>
    <TTGlyph name="fi" xMin="23" yMin="0" xMax="1051" yMax="1490">
      <contour>
        <pt x="176" y="0" on="1"/>
        <pt x="176" y="840" on="1"/>
        <pt x="87" y="854" on="1"/>
        <pt x="58" y="859" on="0"/>
        <pt x="23" y="889" on="0"/>
        <pt x="23" y="916" on="1"/>
        <pt x="23" y="1017" on="1"/>
        <pt x="176" y="1017" on="1"/>
        <pt x="176" y="1050" on="1"/>
        <pt x="176" y="1144" on="0"/>
        <pt x="238" y="1305" on="0"/>
        <pt x="364" y="1423" on="0"/>
        <pt x="556" y="1490" on="0"/>
        <pt x="687" y="1490" on="1"/>
        <pt x="729" y="1490" on="0"/>
        <pt x="817" y="1481" on="0"/>
        <pt x="849" y="1471" on="1"/>
        <pt x="841" y="1343" on="1"/>
        <pt x="839" y="1320" on="0"/>
        <pt x="793" y="1311" on="0"/>
        <pt x="759" y="1311" on="1"/>
        <pt x="662" y="1311" on="0"/>
        <pt x="531" y="1277" on="0"/>
        <pt x="450" y="1210" on="0"/>
        <pt x="415" y="1109" on="0"/>
        <pt x="415" y="1042" on="1"/>
        <pt x="415" y="1017" on="1"/>
        <pt x="1051" y="1017" on="1"/>
        <pt x="1051" y="0" on="1"/>
        <pt x="804" y="0" on="1"/>
        <pt x="804" y="841" on="1"/>
        <pt x="423" y="841" on="1"/>
        <pt x="423" y="0" on="1"/>
      </contour>
    </TTGlyph>
    <TTGlyph name="five" xMin="76" yMin="-16" xMax="1038" yMax="1446">
      <contour>
        <pt x="989" y="1341" on="1"/>
        <pt x="989" y="1288" on="0"/>
        <pt x="922" y="1222" on="0"/>
        <pt x="844" y="1222" on="1"/>
        <pt x="446" y="1222" on="1"/>
        <pt x="394" y="920" on="1"/>
        <pt x="492" y="940" on="0"/>
        <pt x="573" y="940" on="1"/>
        <pt x="687" y="940" on="0"/>
        <pt x="860" y="872" on="0"/>
        <pt x="978" y="752" on="0"/>
        <pt x="1038" y="591" on="0"/>
        <pt x="1038" y="498" on="1"/>
        <pt x="1038" y="383" on="0"/>
        <pt x="957" y="193" on="0"/>
        <pt x="813" y="58" on="0"/>
        <pt x="616" y="-16" on="0"/>
        <pt x="500" y="-16" on="1"/>
        <pt x="432" y="-16" on="0"/>
        <pt x="310" y="12" on="0"/>
        <pt x="203" y="59" on="0"/>
        <pt x="112" y="120" on="0"/>
        <pt x="76" y="154" on="1"/>
        <pt x="152" y="259" on="1"/>
        <pt x="176" y="293" on="0"/>
        <pt x="216" y="293" on="1"/>
        <pt x="241" y="293" on="0"/>
        <pt x="292" y="261" on="0"/>
        <pt x="360" y="223" on="0"/>
        <pt x="450" y="191" on="0"/>
        <pt x="514" y="191" on="1"/>
        <pt x="582" y="191" on="0"/>
        <pt x="686" y="235" on="0"/>
        <pt x="755" y="314" on="0"/>
        <pt x="790" y="423" on="0"/>
        <pt x="790" y="487" on="1"/>
        <pt x="790" y="605" on="0"/>
        <pt x="653" y="738" on="0"/>
        <pt x="520" y="738" on="1"/>
        <pt x="415" y="738" on="0"/>
        <pt x="309" y="700" on="1"/>
        <pt x="155" y="744" on="1"/>
        <pt x="275" y="1446" on="1"/>
        <pt x="989" y="1446" on="1"/>
      </contour>
    </TTGlyph>
    <TTGlyph name="fl" xMin="23" yMin="0" xMax="1080" yMax="1476">
      <contour>
        <pt x="176" y="0" on="1"/>
        <pt x="176" y="840" on="1"/>
        <pt x="87" y="854" on="1"/>
        <pt x="58" y="859" on="0"/>
        <pt x="23" y="889" on="0"/>
        <pt x="23" y="916" on="1"/>
        <pt x="23" y="1017" on="1"/>
        <pt x="176" y="1017" on="1"/>
        <pt x="176" y="1060" on="1"/>
        <pt x="176" y="1142" on="0"/>
        <pt x="227" y="1292" on="0"/>
        <pt x="333" y="1407" on="0"/>
        <pt x="495" y="1476" on="0"/>
        <pt x="606" y="1476" on="1"/>
        <pt x="697" y="1476" on="0"/>
        <pt x="860" y="1464" on="0"/>
        <pt x="941" y="1464" on="1"/>
        <pt x="1080" y="1464" on="1"/>
        <pt x="1080" y="0" on="1"/>
        <pt x="834" y="0" on="1"/>
        <pt x="834" y="1292" on="1"/>
        <pt x="781" y="1294" on="0"/>
        <pt x="680" y="1300" on="0"/>
        <pt x="645" y="1300" on="1"/>
        <pt x="533" y="1300" on="0"/>
        <pt x="415" y="1175" on="0"/>
        <pt x="415" y="1060" on="1"/>
        <pt x="415" y="1017" on="1"/>
        <pt x="658" y="1017" on="1"/>
        <pt x="658" y="841" on="1"/>
        <pt x="423" y="841" on="1"/>
        <pt x="423" y="0" on="1"/>
      </contour>
    </TTGlyph>
    <TTGlyph name="florin" xMin="98" yMin="-345" xMax="1026" yMax="1471">
      <contour>
        <pt x="706" y="745" on="1"/>
        <pt x="623" y="57" on="1"/>
        <pt x="610" y="-49" on="0"/>
        <pt x="535" y="-201" on="0"/>
        <pt x="406" y="-299" on="0"/>
        <pt x="221" y="-345" on="0"/>
        <pt x="98" y="-345" on="1"/>
        <pt x="98" y="-216" on="1"/>
        <pt x="98" y="-140" on="0"/>
        <pt x="177" y="-140" on="1"/>
        <pt x="217" y="-140" on="0"/>
        <pt x="285" y="-118" on="0"/>
        <pt x="337" y="-70" on="0"/>
        <pt x="371" y="8" on="0"/>
        <pt x="378" y="64" on="1"/>
        <pt x="461" y="740" on="1"/>
        <pt x="338" y="758" on="1"/>
        <pt x="282" y="770" on="0"/>
        <pt x="282" y="820" on="1"/>
        <pt x="282" y="921" on="1"/>
        <pt x="483" y="921" on="1"/>
        <pt x="501" y="1069" on="1"/>
        <pt x="526" y="1269" on="0"/>
        <pt x="780" y="1471" on="0"/>
        <pt x="1026" y="1471" on="1"/>
        <pt x="1026" y="1336" on="1"/>
        <pt x="1026" y="1297" on="0"/>
        <pt x="989" y="1266" on="0"/>
        <pt x="948" y="1266" on="1"/>
        <pt x="907" y="1266" on="0"/>
        <pt x="838" y="1244" on="0"/>
        <pt x="784" y="1196" on="0"/>
        <pt x="748" y="1118" on="0"/>
        <pt x="741" y="1062" on="1"/>
        <pt x="722" y="921" on="1"/>
        <pt x="1016" y="921" on="1"/>
        <pt x="1016" y="745" on="1"/>
      </contour>
    </TTGlyph>
    <TTGlyph name="four" xMin="23" yMin="0" xMax="1124" yMax="1447">
      <contour>
        <pt x="942" y="545" on="1"/>
        <pt x="1124" y="545" on="1"/>
        <pt x="1124" y="402" on="1"/>
        <pt x="1124" y="382" on="0"/>
        <pt x="1098" y="353" on="0"/>
        <pt x="1073" y="353" on="1"/>
        <pt x="942" y="353" on="1"/>
        <pt x="942" y="0" on="1"/>
        <pt x="726" y="0" on="1"/>
        <pt x="726" y="353" on="1"/>
        <pt x="116" y="353" on="1"/>
        <pt x="91" y="353" on="0"/>
        <pt x="53" y="384" on="0"/>
        <pt x="48" y="407" on="1"/>
        <pt x="23" y="532" on="1"/>
        <pt x="708" y="1447" on="1"/>
        <pt x="942" y="1447" on="1"/>
      </contour>
      <contour>
        <pt x="726" y="1018" on="1"/>
        <pt x="726" y="1050" on="0"/>
        <pt x="730" y="1124" on="0"/>
        <pt x="735" y="1164" on="1"/>
        <pt x="286" y="545" on="1"/>
        <pt x="726" y="545" on="1"/>
      </contour>
    </TTGlyph>
    <TTGlyph name="fraction" xMin="-177" yMin="0" xMax="892" yMax="1446">
      <contour>
        <pt x="52" y="71" on="1"/>
        <pt x="26" y="30" on="0"/>
        <pt x="-33" y="0" on="0"/>
        <pt x="-71" y="0" on="1"/>
        <pt x="-177" y="0" on="1"/>
        <pt x="657" y="1365" on="1"/>
        <pt x="680" y="1403" on="0"/>
        <pt x="742" y="1446" on="0"/>
        <pt x="787" y="1446" on="1"/>
        <pt x="892" y="1446" on="1"/>
      </contour>
    </TTGlyph>
    <TTGlyph name="g" xMin="32" yMin="-361" xMax="1012" yMax="1044">
      <contour>
        <pt x="487" y="1044" on="1"/>
        <pt x="553" y="1044" on="0"/>
        <pt x="669" y="1017" on="0"/>
        <pt x="717" y="991" on="1"/>
        <pt x="1012" y="991" on="1"/>
        <pt x="1012" y="899" on="1"/>
        <pt x="1012" y="876" on="0"/>
        <pt x="988" y="850" on="0"/>
        <pt x="959" y="845" on="1"/>
        <pt x="867" y="828" on="1"/>
        <pt x="877" y="802" on="0"/>
        <pt x="888" y="744" on="0"/>
        <pt x="888" y="712" on="1"/>
        <pt x="888" y="636" on="0"/>
        <pt x="827" y="513" on="0"/>
        <pt x="720" y="427" on="0"/>
        <pt x="573" y="380" on="0"/>
        <pt x="487" y="380" on="1"/>
        <pt x="429" y="380" on="0"/>
        <pt x="374" y="391" on="1"/>
        <pt x="326" y="362" on="0"/>
        <pt x="326" y="326" on="1"/>
        <pt x="326" y="295" on="0"/>
        <pt x="383" y="266" on="0"/>
        <pt x="476" y="254" on="0"/>
        <pt x="594" y="251" on="0"/>
        <pt x="718" y="241" on="0"/>
        <pt x="836" y="216" on="0"/>
        <pt x="929" y="162" on="0"/>
        <pt x="986" y="69" on="0"/>
        <pt x="986" y="-4" on="1"/>
        <pt x="986" y="-72" on="0"/>
        <pt x="919" y="-200" on="0"/>
        <pt x="792" y="-300" on="0"/>
        <pt x="608" y="-361" on="0"/>
        <pt x="490" y="-361" on="1"/>
        <pt x="373" y="-361" on="0"/>
        <pt x="201" y="-316" on="0"/>
        <pt x="88" y="-241" on="0"/>
        <pt x="32" y="-143" on="0"/>
        <pt x="32" y="-90" on="1"/>
        <pt x="32" y="-18" on="0"/>
        <pt x="120" y="80" on="0"/>
        <pt x="198" y="109" on="1"/>
        <pt x="160" y="130" on="0"/>
        <pt x="114" y="200" on="0"/>
        <pt x="114" y="256" on="1"/>
        <pt x="114" y="279" on="0"/>
        <pt x="130" y="328" on="0"/>
        <pt x="163" y="376" on="0"/>
        <pt x="213" y="419" on="0"/>
        <pt x="247" y="436" on="1"/>
        <pt x="169" y="478" on="0"/>
        <pt x="80" y="618" on="0"/>
        <pt x="80" y="712" on="1"/>
        <pt x="80" y="788" on="0"/>
        <pt x="141" y="911" on="0"/>
        <pt x="250" y="998" on="0"/>
        <pt x="399" y="1044" on="0"/>
      </contour>
      <contour>
        <pt x="758" y="-46" on="1"/>
        <pt x="758" y="-16" on="0"/>
        <pt x="722" y="22" on="0"/>
        <pt x="660" y="43" on="0"/>
        <pt x="577" y="53" on="0"/>
        <pt x="484" y="58" on="0"/>
        <pt x="385" y="63" on="0"/>
        <pt x="339" y="69" on="1"/>
        <pt x="297" y="46" on="0"/>
        <pt x="246" y="-17" on="0"/>
        <pt x="246" y="-58" on="1"/>
        <pt x="246" y="-85" on="0"/>
        <pt x="273" y="-132" on="0"/>
        <pt x="332" y="-166" on="0"/>
        <pt x="426" y="-185" on="0"/>
        <pt x="494" y="-185" on="1"/>
        <pt x="563" y="-185" on="0"/>
        <pt x="663" y="-164" on="0"/>
        <pt x="728" y="-127" on="0"/>
        <pt x="758" y="-76" on="0"/>
      </contour>
      <contour>
        <pt x="487" y="538" on="1"/>
        <pt x="533" y="538" on="0"/>
        <pt x="601" y="563" on="0"/>
        <pt x="646" y="607" on="0"/>
        <pt x="669" y="669" on="0"/>
        <pt x="669" y="706" on="1"/>
        <pt x="669" y="782" on="0"/>
        <pt x="578" y="871" on="0"/>
        <pt x="487" y="871" on="1"/>
        <pt x="396" y="871" on="0"/>
        <pt x="305" y="782" on="0"/>
        <pt x="305" y="706" on="1"/>
        <pt x="305" y="670" on="0"/>
        <pt x="328" y="608" on="0"/>
        <pt x="373" y="563" on="0"/>
        <pt x="442" y="538" on="0"/>
      </contour>
    </TTGlyph>
    <TTGlyph name="germandbls" xMin="176" yMin="-16" xMax="1207" yMax="1471">
      <contour>
        <pt x="700" y="1471" on="1"/>
        <pt x="817" y="1471" on="0"/>
        <pt x="983" y="1403" on="0"/>
        <pt x="1087" y="1301" on="0"/>
        <pt x="1135" y="1183" on="0"/>
        <pt x="1135" y="1132" on="1"/>
        <pt x="1135" y="1074" on="0"/>
        <pt x="1096" y="992" on="0"/>
        <pt x="1037" y="930" on="0"/>
        <pt x="969" y="884" on="0"/>
        <pt x="910" y="842" on="0"/>
        <pt x="871" y="797" on="0"/>
        <pt x="871" y="768" on="1"/>
        <pt x="871" y="735" on="0"/>
        <pt x="921" y="687" on="0"/>
        <pt x="995" y="641" on="0"/>
        <pt x="1083" y="589" on="0"/>
        <pt x="1157" y="514" on="0"/>
        <pt x="1207" y="408" on="0"/>
        <pt x="1207" y="331" on="1"/>
        <pt x="1207" y="246" on="0"/>
        <pt x="1144" y="117" on="0"/>
        <pt x="1036" y="29" on="0"/>
        <pt x="893" y="-16" on="0"/>
        <pt x="813" y="-16" on="1"/>
        <pt x="767" y="-16" on="0"/>
        <pt x="677" y="3" on="0"/>
        <pt x="594" y="37" on="0"/>
        <pt x="520" y="83" on="0"/>
        <pt x="490" y="110" on="1"/>
        <pt x="548" y="204" on="1"/>
        <pt x="558" y="221" on="0"/>
        <pt x="588" y="239" on="0"/>
        <pt x="611" y="239" on="1"/>
        <pt x="634" y="239" on="0"/>
        <pt x="676" y="213" on="0"/>
        <pt x="726" y="183" on="0"/>
        <pt x="790" y="157" on="0"/>
        <pt x="835" y="157" on="1"/>
        <pt x="898" y="157" on="0"/>
        <pt x="976" y="232" on="0"/>
        <pt x="976" y="292" on="1"/>
        <pt x="976" y="339" on="0"/>
        <pt x="922" y="401" on="0"/>
        <pt x="841" y="450" on="0"/>
        <pt x="747" y="497" on="0"/>
        <pt x="666" y="560" on="0"/>
        <pt x="612" y="650" on="0"/>
        <pt x="612" y="719" on="1"/>
        <pt x="612" y="776" on="0"/>
        <pt x="654" y="858" on="0"/>
        <pt x="717" y="922" on="0"/>
        <pt x="791" y="973" on="0"/>
        <pt x="854" y="1027" on="0"/>
        <pt x="896" y="1089" on="0"/>
        <pt x="896" y="1131" on="1"/>
        <pt x="896" y="1164" on="0"/>
        <pt x="873" y="1223" on="0"/>
        <pt x="823" y="1266" on="0"/>
        <pt x="744" y="1292" on="0"/>
        <pt x="689" y="1292" on="1"/>
        <pt x="558" y="1292" on="0"/>
        <pt x="423" y="1131" on="0"/>
        <pt x="423" y="976" on="1"/>
        <pt x="423" y="0" on="1"/>
        <pt x="176" y="0" on="1"/>
        <pt x="176" y="984" on="1"/>
        <pt x="176" y="1090" on="0"/>
        <pt x="249" y="1268" on="0"/>
        <pt x="384" y="1398" on="0"/>
        <pt x="578" y="1471" on="0"/>
      </contour>
    </TTGlyph>
    <TTGlyph name="grave" xMin="-1" yMin="1166" xMax="468" yMax="1462">
      <contour>
        <pt x="230" y="1462" on="1"/>
        <pt x="271" y="1462" on="0"/>
        <pt x="310" y="1435" on="0"/>
        <pt x="325" y="1409" on="1"/>
        <pt x="468" y="1166" on="1"/>
        <pt x="327" y="1166" on="1"/>
        <pt x="299" y="1166" on="0"/>
        <pt x="264" y="1181" on="0"/>
        <pt x="246" y="1201" on="1"/>
        <pt x="-1" y="1462" on="1"/>
      </contour>
    </TTGlyph>
    <TTGlyph name="grave.case" xMin="-82" yMin="1549" xMax="492" yMax="1791">
      <contour>
        <pt x="192" y="1791" on="1"/>
        <pt x="212" y="1791" on="0"/>
        <pt x="240" y="1788" on="0"/>
        <pt x="263" y="1779" on="0"/>
        <pt x="283" y="1763" on="0"/>
        <pt x="295" y="1751" on="1"/>
        <pt x="492" y="1549" on="1"/>
        <pt x="297" y="1549" on="1"/>
        <pt x="283" y="1549" on="0"/>
        <pt x="262" y="1550" on="0"/>
        <pt x="244" y="1555" on="0"/>
        <pt x="226" y="1565" on="0"/>
        <pt x="215" y="1573" on="1"/>
        <pt x="-82" y="1791" on="1"/>
      </contour>
    </TTGlyph>
    <TTGlyph name="greater" xMin="229" yMin="210" xMax="1021" yMax="1137">
      <contour>
        <pt x="229" y="210" on="1"/>
        <pt x="229" y="386" on="1"/>
        <pt x="229" y="406" on="0"/>
        <pt x="249" y="439" on="0"/>
        <pt x="272" y="451" on="1"/>
        <pt x="635" y="638" on="1"/>
        <pt x="679" y="660" on="0"/>
        <pt x="738" y="674" on="1"/>
        <pt x="709" y="681" on="0"/>
        <pt x="658" y="698" on="0"/>
        <pt x="635" y="710" on="1"/>
        <pt x="272" y="896" on="1"/>
        <pt x="249" y="908" on="0"/>
        <pt x="229" y="941" on="0"/>
        <pt x="229" y="961" on="1"/>
        <pt x="229" y="1137" on="1"/>
        <pt x="1021" y="724" on="1"/>
        <pt x="1021" y="624" on="1"/>
      </contour>
    </TTGlyph>
    <TTGlyph name="greaterequal" xMin="229" yMin="80" xMax="1021" yMax="1218">
      <contour>
        <pt x="1021" y="839" on="1"/>
        <pt x="1021" y="740" on="1"/>
        <pt x="229" y="358" on="1"/>
        <pt x="229" y="526" on="1"/>
        <pt x="229" y="546" on="0"/>
        <pt x="252" y="580" on="0"/>
        <pt x="284" y="595" on="1"/>
        <pt x="635" y="756" on="1"/>
        <pt x="660" y="767" on="0"/>
        <pt x="716" y="783" on="0"/>
        <pt x="748" y="790" on="1"/>
        <pt x="717" y="797" on="0"/>
        <pt x="660" y="812" on="0"/>
        <pt x="635" y="823" on="1"/>
        <pt x="283" y="981" on="1"/>
        <pt x="251" y="995" on="0"/>
        <pt x="229" y="1030" on="0"/>
        <pt x="229" y="1050" on="1"/>
        <pt x="229" y="1218" on="1"/>
      </contour>
      <contour>
        <pt x="1021" y="80" on="1"/>
        <pt x="229" y="80" on="1"/>
        <pt x="229" y="263" on="1"/>
        <pt x="1021" y="263" on="1"/>
      </contour>
    </TTGlyph>
    <TTGlyph name="guillemotleft" xMin="123" yMin="126" xMax="827" yMax="950">
      <contour>
        <pt x="123" y="522" on="1"/>
        <pt x="123" y="554" on="1"/>
        <pt x="379" y="950" on="1"/>
        <pt x="460" y="912" on="1"/>
        <pt x="480" y="903" on="0"/>
        <pt x="498" y="875" on="0"/>
        <pt x="498" y="858" on="1"/>
        <pt x="498" y="837" on="0"/>
        <pt x="485" y="815" on="1"/>
        <pt x="347" y="580" on="1"/>
        <pt x="333" y="554" on="0"/>
        <pt x="315" y="538" on="1"/>
        <pt x="331" y="524" on="0"/>
        <pt x="347" y="496" on="1"/>
        <pt x="485" y="260" on="1"/>
        <pt x="498" y="238" on="0"/>
        <pt x="498" y="216" on="1"/>
        <pt x="498" y="182" on="0"/>
        <pt x="460" y="164" on="1"/>
        <pt x="379" y="126" on="1"/>
      </contour>
      <contour>
        <pt x="452" y="522" on="1"/>
        <pt x="452" y="554" on="1"/>
        <pt x="708" y="950" on="1"/>
        <pt x="789" y="912" on="1"/>
        <pt x="809" y="903" on="0"/>
        <pt x="827" y="875" on="0"/>
        <pt x="827" y="858" on="1"/>
        <pt x="827" y="837" on="0"/>
        <pt x="814" y="815" on="1"/>
        <pt x="676" y="580" on="1"/>
        <pt x="662" y="554" on="0"/>
        <pt x="644" y="538" on="1"/>
        <pt x="660" y="524" on="0"/>
        <pt x="676" y="496" on="1"/>
        <pt x="814" y="260" on="1"/>
        <pt x="827" y="238" on="0"/>
        <pt x="827" y="216" on="1"/>
        <pt x="827" y="182" on="0"/>
        <pt x="789" y="164" on="1"/>
        <pt x="708" y="126" on="1"/>
      </contour>
    </TTGlyph>
    <TTGlyph name="guillemotright" xMin="144" yMin="126" xMax="848" yMax="950">
      <contour>
        <pt x="263" y="126" on="1"/>
        <pt x="182" y="164" on="1"/>
        <pt x="162" y="173" on="0"/>
        <pt x="144" y="201" on="0"/>
        <pt x="144" y="218" on="1"/>
        <pt x="144" y="238" on="0"/>
        <pt x="157" y="260" on="1"/>
        <pt x="295" y="496" on="1"/>
        <pt x="311" y="524" on="0"/>
        <pt x="327" y="538" on="1"/>
        <pt x="309" y="554" on="0"/>
        <pt x="295" y="580" on="1"/>
        <pt x="157" y="815" on="1"/>
        <pt x="144" y="837" on="0"/>
        <pt x="144" y="858" on="1"/>
        <pt x="144" y="894" on="0"/>
        <pt x="182" y="912" on="1"/>
        <pt x="263" y="950" on="1"/>
        <pt x="519" y="554" on="1"/>
        <pt x="519" y="522" on="1"/>
      </contour>
      <contour>
        <pt x="592" y="126" on="1"/>
        <pt x="511" y="164" on="1"/>
        <pt x="491" y="173" on="0"/>
        <pt x="473" y="201" on="0"/>
        <pt x="473" y="218" on="1"/>
        <pt x="473" y="238" on="0"/>
        <pt x="486" y="260" on="1"/>
        <pt x="624" y="496" on="1"/>
        <pt x="640" y="524" on="0"/>
        <pt x="656" y="538" on="1"/>
        <pt x="638" y="554" on="0"/>
        <pt x="624" y="580" on="1"/>
        <pt x="486" y="815" on="1"/>
        <pt x="473" y="837" on="0"/>
        <pt x="473" y="858" on="1"/>
        <pt x="473" y="894" on="0"/>
        <pt x="511" y="912" on="1"/>
        <pt x="592" y="950" on="1"/>
        <pt x="848" y="554" on="1"/>
        <pt x="848" y="522" on="1"/>
      </contour>
    </TTGlyph>
    <TTGlyph name="guilsinglleft" xMin="123" yMin="126" xMax="498" yMax="950">
      <contour>
        <pt x="123" y="522" on="1"/>
        <pt x="123" y="554" on="1"/>
        <pt x="379" y="950" on="1"/>
        <pt x="460" y="912" on="1"/>
        <pt x="480" y="903" on="0"/>
        <pt x="498" y="875" on="0"/>
        <pt x="498" y="858" on="1"/>
        <pt x="498" y="837" on="0"/>
        <pt x="485" y="815" on="1"/>
        <pt x="347" y="580" on="1"/>
        <pt x="333" y="554" on="0"/>
        <pt x="315" y="538" on="1"/>
        <pt x="331" y="524" on="0"/>
        <pt x="347" y="496" on="1"/>
        <pt x="485" y="260" on="1"/>
        <pt x="498" y="238" on="0"/>
        <pt x="498" y="217" on="1"/>
        <pt x="498" y="182" on="0"/>
        <pt x="460" y="164" on="1"/>
        <pt x="379" y="126" on="1"/>
      </contour>
    </TTGlyph>
    <TTGlyph name="guilsinglright" xMin="144" yMin="126" xMax="519" yMax="950">
      <contour>
        <pt x="263" y="126" on="1"/>
        <pt x="182" y="164" on="1"/>
        <pt x="162" y="173" on="0"/>
        <pt x="144" y="201" on="0"/>
        <pt x="144" y="218" on="1"/>
        <pt x="144" y="238" on="0"/>
        <pt x="157" y="260" on="1"/>
        <pt x="295" y="496" on="1"/>
        <pt x="311" y="524" on="0"/>
        <pt x="327" y="538" on="1"/>
        <pt x="309" y="554" on="0"/>
        <pt x="295" y="580" on="1"/>
        <pt x="157" y="815" on="1"/>
        <pt x="144" y="837" on="0"/>
        <pt x="144" y="858" on="1"/>
        <pt x="144" y="894" on="0"/>
        <pt x="182" y="912" on="1"/>
        <pt x="263" y="950" on="1"/>
        <pt x="519" y="554" on="1"/>
        <pt x="519" y="522" on="1"/>
      </contour>
    </TTGlyph>
    <TTGlyph name="h" xMin="132" yMin="0" xMax="1026" yMax="1486">
      <contour>
        <pt x="132" y="0" on="1"/>
        <pt x="132" y="1486" on="1"/>
        <pt x="379" y="1486" on="1"/>
        <pt x="379" y="915" on="1"/>
        <pt x="439" y="972" on="0"/>
        <pt x="583" y="1042" on="0"/>
        <pt x="680" y="1042" on="1"/>
        <pt x="764" y="1042" on="0"/>
        <pt x="894" y="985" on="0"/>
        <pt x="981" y="882" on="0"/>
        <pt x="1026" y="739" on="0"/>
        <pt x="1026" y="653" on="1"/>
        <pt x="1026" y="0" on="1"/>
        <pt x="779" y="0" on="1"/>
        <pt x="779" y="653" on="1"/>
        <pt x="779" y="747" on="0"/>
        <pt x="692" y="850" on="0"/>
        <pt x="605" y="850" on="1"/>
        <pt x="541" y="850" on="0"/>
        <pt x="429" y="792" on="0"/>
        <pt x="379" y="742" on="1"/>
        <pt x="379" y="0" on="1"/>
      </contour>
    </TTGlyph>
    <TTGlyph name="hungarumlaut" xMin="69" yMin="1166" xMax="800" yMax="1462">
      <contour>
        <pt x="451" y="1462" on="1"/>
        <pt x="252" y="1201" on="1"/>
        <pt x="236" y="1181" on="0"/>
        <pt x="198" y="1166" on="0"/>
        <pt x="170" y="1166" on="1"/>
        <pt x="69" y="1166" on="1"/>
        <pt x="195" y="1409" on="1"/>
        <pt x="209" y="1435" on="0"/>
        <pt x="250" y="1462" on="0"/>
        <pt x="290" y="1462" on="1"/>
      </contour>
      <contour>
        <pt x="800" y="1462" on="1"/>
        <pt x="548" y="1201" on="1"/>
        <pt x="529" y="1182" on="0"/>
        <pt x="495" y="1166" on="0"/>
        <pt x="466" y="1166" on="1"/>
        <pt x="350" y="1166" on="1"/>
        <pt x="527" y="1409" on="1"/>
        <pt x="536" y="1422" on="0"/>
        <pt x="553" y="1441" on="0"/>
        <pt x="574" y="1455" on="0"/>
        <pt x="602" y="1462" on="0"/>
        <pt x="622" y="1462" on="1"/>
      </contour>
    </TTGlyph>
    <TTGlyph name="hungarumlaut.case" xMin="57" yMin="1549" xMax="821" yMax="1775">
      <contour>
        <pt x="456" y="1775" on="1"/>
        <pt x="255" y="1585" on="1"/>
        <pt x="236" y="1567" on="0"/>
        <pt x="202" y="1549" on="0"/>
        <pt x="174" y="1549" on="1"/>
        <pt x="57" y="1549" on="1"/>
        <pt x="189" y="1723" on="1"/>
        <pt x="206" y="1746" on="0"/>
        <pt x="255" y="1775" on="0"/>
        <pt x="295" y="1775" on="1"/>
      </contour>
      <contour>
        <pt x="821" y="1775" on="1"/>
        <pt x="568" y="1585" on="1"/>
        <pt x="546" y="1568" on="0"/>
        <pt x="507" y="1549" on="0"/>
        <pt x="479" y="1549" on="1"/>
        <pt x="346" y="1549" on="1"/>
        <pt x="523" y="1723" on="1"/>
        <pt x="545" y="1745" on="0"/>
        <pt x="596" y="1775" on="0"/>
        <pt x="636" y="1775" on="1"/>
      </contour>
    </TTGlyph>
    <TTGlyph name="hyphen" xMin="100" yMin="501" xMax="618" yMax="707">
      <contour>
        <pt x="100" y="707" on="1"/>
        <pt x="618" y="707" on="1"/>
        <pt x="618" y="501" on="1"/>
        <pt x="100" y="501" on="1"/>
      </contour>
    </TTGlyph>
    <TTGlyph name="i" xMin="116" yMin="0" xMax="432" yMax="1483">
      <contour>
        <pt x="395" y="1026" on="1"/>
        <pt x="395" y="0" on="1"/>
        <pt x="148" y="0" on="1"/>
        <pt x="148" y="1026" on="1"/>
      </contour>
      <contour>
        <pt x="432" y="1325" on="1"/>
        <pt x="432" y="1293" on="0"/>
        <pt x="406" y="1237" on="0"/>
        <pt x="363" y="1195" on="0"/>
        <pt x="305" y="1170" on="0"/>
        <pt x="272" y="1170" on="1"/>
        <pt x="240" y="1170" on="0"/>
        <pt x="183" y="1195" on="0"/>
        <pt x="141" y="1237" on="0"/>
        <pt x="116" y="1293" on="0"/>
        <pt x="116" y="1325" on="1"/>
        <pt x="116" y="1358" on="0"/>
        <pt x="141" y="1416" on="0"/>
        <pt x="183" y="1458" on="0"/>
        <pt x="240" y="1483" on="0"/>
        <pt x="272" y="1483" on="1"/>
        <pt x="305" y="1483" on="0"/>
        <pt x="363" y="1458" on="0"/>
        <pt x="406" y="1416" on="0"/>
        <pt x="432" y="1358" on="0"/>
      </contour>
    </TTGlyph>
    <TTGlyph name="iacute" xMin="148" yMin="0" xMax="625" yMax="1462">
      <component glyphName="dotlessi" x="0" y="0" flags="0x204"/>
      <component glyphName="acute" x="-40" y="0" flags="0x4"/>
    </TTGlyph>
    <TTGlyph name="icircumflex" xMin="-66" yMin="0" xMax="624" yMax="1446">
      <component glyphName="dotlessi" x="0" y="0" flags="0x204"/>
      <component glyphName="circumflex" x="-40" y="0" flags="0x4"/>
    </TTGlyph>
    <TTGlyph name="idieresis" xMin="-46" yMin="0" xMax="604" yMax="1432">
      <component glyphName="dotlessi" x="0" y="0" flags="0x204"/>
      <component glyphName="dieresis" x="-40" y="0" flags="0x4"/>
    </TTGlyph>
    <TTGlyph name="igrave" xMin="-41" yMin="0" xMax="428" yMax="1462">
      <component glyphName="dotlessi" x="0" y="0" flags="0x204"/>
      <component glyphName="grave" x="-40" y="0" flags="0x4"/>
    </TTGlyph>
    <TTGlyph name="infinity" xMin="46" yMin="232" xMax="1329" yMax="951">
      <contour>
        <pt x="1000" y="232" on="1"/>
        <pt x="945" y="232" on="0"/>
        <pt x="854" y="262" on="0"/>
        <pt x="778" y="313" on="0"/>
        <pt x="715" y="381" on="0"/>
        <pt x="688" y="419" on="1"/>
        <pt x="661" y="381" on="0"/>
        <pt x="597" y="313" on="0"/>
        <pt x="521" y="262" on="0"/>
        <pt x="430" y="232" on="0"/>
        <pt x="375" y="232" on="1"/>
        <pt x="309" y="232" on="0"/>
        <pt x="189" y="285" on="0"/>
        <pt x="99" y="380" on="0"/>
        <pt x="46" y="512" on="0"/>
        <pt x="46" y="592" on="1"/>
        <pt x="46" y="671" on="0"/>
        <pt x="99" y="803" on="0"/>
        <pt x="189" y="898" on="0"/>
        <pt x="309" y="951" on="0"/>
        <pt x="375" y="951" on="1"/>
        <pt x="430" y="951" on="0"/>
        <pt x="521" y="921" on="0"/>
        <pt x="597" y="870" on="0"/>
        <pt x="661" y="802" on="0"/>
        <pt x="688" y="764" on="1"/>
        <pt x="715" y="802" on="0"/>
        <pt x="778" y="870" on="0"/>
        <pt x="854" y="921" on="0"/>
        <pt x="945" y="951" on="0"/>
        <pt x="1000" y="951" on="1"/>
        <pt x="1066" y="951" on="0"/>
        <pt x="1186" y="898" on="0"/>
        <pt x="1276" y="803" on="0"/>
        <pt x="1329" y="671" on="0"/>
        <pt x="1329" y="592" on="1"/>
        <pt x="1329" y="512" on="0"/>
        <pt x="1276" y="380" on="0"/>
        <pt x="1186" y="285" on="0"/>
        <pt x="1066" y="232" on="0"/>
      </contour>
      <contour>
        <pt x="385" y="431" on="1"/>
        <pt x="415" y="431" on="0"/>
        <pt x="468" y="456" on="0"/>
        <pt x="515" y="499" on="0"/>
        <pt x="558" y="558" on="0"/>
        <pt x="579" y="591" on="1"/>
        <pt x="558" y="625" on="0"/>
        <pt x="515" y="683" on="0"/>
        <pt x="468" y="727" on="0"/>
        <pt x="415" y="752" on="0"/>
        <pt x="385" y="752" on="1"/>
        <pt x="356" y="752" on="0"/>
        <pt x="304" y="734" on="0"/>
        <pt x="264" y="695" on="0"/>
        <pt x="240" y="634" on="0"/>
        <pt x="240" y="592" on="1"/>
        <pt x="240" y="549" on="0"/>
        <pt x="264" y="488" on="0"/>
        <pt x="304" y="449" on="0"/>
        <pt x="356" y="431" on="0"/>
      </contour>
      <contour>
        <pt x="990" y="431" on="1"/>
        <pt x="1019" y="431" on="0"/>
        <pt x="1072" y="449" on="0"/>
        <pt x="1112" y="488" on="0"/>
        <pt x="1135" y="549" on="0"/>
        <pt x="1135" y="592" on="1"/>
        <pt x="1135" y="634" on="0"/>
        <pt x="1111" y="695" on="0"/>
        <pt x="1071" y="734" on="0"/>
        <pt x="1019" y="752" on="0"/>
        <pt x="990" y="752" on="1"/>
        <pt x="959" y="752" on="0"/>
        <pt x="907" y="727" on="0"/>
        <pt x="860" y="683" on="0"/>
        <pt x="818" y="625" on="0"/>
        <pt x="797" y="591" on="1"/>
        <pt x="818" y="558" on="0"/>
        <pt x="860" y="499" on="0"/>
        <pt x="907" y="456" on="0"/>
        <pt x="959" y="431" on="0"/>
      </contour>
    </TTGlyph>
    <TTGlyph name="integral" xMin="-89" yMin="-342" xMax="875" yMax="1462">
      <contour>
        <pt x="359" y="1094" on="1"/>
        <pt x="380" y="1268" on="0"/>
        <pt x="561" y="1462" on="0"/>
        <pt x="720" y="1462" on="1"/>
        <pt x="758" y="1462" on="0"/>
        <pt x="839" y="1447" on="0"/>
        <pt x="875" y="1428" on="1"/>
        <pt x="863" y="1309" on="1"/>
        <pt x="862" y="1299" on="0"/>
        <pt x="855" y="1279" on="0"/>
        <pt x="839" y="1263" on="0"/>
        <pt x="812" y="1253" on="0"/>
        <pt x="791" y="1253" on="1"/>
        <pt x="743" y="1253" on="0"/>
        <pt x="674" y="1230" on="0"/>
        <pt x="628" y="1182" on="0"/>
        <pt x="600" y="1110" on="0"/>
        <pt x="594" y="1062" on="1"/>
        <pt x="466" y="57" on="1"/>
        <pt x="453" y="-47" on="0"/>
        <pt x="384" y="-198" on="0"/>
        <pt x="281" y="-295" on="0"/>
        <pt x="145" y="-342" on="0"/>
        <pt x="65" y="-342" on="1"/>
        <pt x="29" y="-342" on="0"/>
        <pt x="-54" y="-327" on="0"/>
        <pt x="-89" y="-308" on="1"/>
        <pt x="-76" y="-205" on="1"/>
        <pt x="-74" y="-192" on="0"/>
        <pt x="-66" y="-173" on="0"/>
        <pt x="-48" y="-161" on="0"/>
        <pt x="-18" y="-155" on="0"/>
        <pt x="7" y="-155" on="1"/>
        <pt x="65" y="-155" on="0"/>
        <pt x="144" y="-132" on="0"/>
        <pt x="196" y="-83" on="0"/>
        <pt x="224" y="-6" on="0"/>
        <pt x="230" y="49" on="1"/>
      </contour>
    </TTGlyph>
    <TTGlyph name="j" xMin="-58" yMin="-360" xMax="432" yMax="1483">
      <contour>
        <pt x="395" y="1026" on="1"/>
        <pt x="395" y="-35" on="1"/>
        <pt x="395" y="-102" on="0"/>
        <pt x="360" y="-220" on="0"/>
        <pt x="283" y="-309" on="0"/>
        <pt x="158" y="-360" on="0"/>
        <pt x="68" y="-360" on="1"/>
        <pt x="33" y="-360" on="0"/>
        <pt x="-27" y="-351" on="0"/>
        <pt x="-58" y="-341" on="1"/>
        <pt x="-50" y="-208" on="1"/>
        <pt x="-47" y="-188" on="0"/>
        <pt x="-21" y="-177" on="0"/>
        <pt x="16" y="-177" on="1"/>
        <pt x="53" y="-177" on="0"/>
        <pt x="104" y="-162" on="0"/>
        <pt x="135" y="-129" on="0"/>
        <pt x="148" y="-75" on="0"/>
        <pt x="148" y="-35" on="1"/>
        <pt x="148" y="1026" on="1"/>
      </contour>
      <contour>
        <pt x="432" y="1325" on="1"/>
        <pt x="432" y="1293" on="0"/>
        <pt x="406" y="1237" on="0"/>
        <pt x="363" y="1195" on="0"/>
        <pt x="305" y="1170" on="0"/>
        <pt x="272" y="1170" on="1"/>
        <pt x="240" y="1170" on="0"/>
        <pt x="183" y="1195" on="0"/>
        <pt x="141" y="1237" on="0"/>
        <pt x="116" y="1293" on="0"/>
        <pt x="116" y="1325" on="1"/>
        <pt x="116" y="1358" on="0"/>
        <pt x="141" y="1416" on="0"/>
        <pt x="183" y="1458" on="0"/>
        <pt x="240" y="1483" on="0"/>
        <pt x="272" y="1483" on="1"/>
        <pt x="305" y="1483" on="0"/>
        <pt x="363" y="1458" on="0"/>
        <pt x="406" y="1416" on="0"/>
        <pt x="432" y="1358" on="0"/>
      </contour>
    </TTGlyph>
    <TTGlyph name="k" xMin="135" yMin="0" xMax="1082" yMax="1486">
      <contour>
        <pt x="382" y="1486" on="1"/>
        <pt x="382" y="635" on="1"/>
        <pt x="428" y="635" on="1"/>
        <pt x="453" y="635" on="0"/>
        <pt x="481" y="649" on="0"/>
        <pt x="497" y="668" on="1"/>
        <pt x="752" y="983" on="1"/>
        <pt x="769" y="1003" on="0"/>
        <pt x="807" y="1026" on="0"/>
        <pt x="838" y="1026" on="1"/>
        <pt x="1064" y="1026" on="1"/>
        <pt x="745" y="645" on="1"/>
        <pt x="728" y="624" on="0"/>
        <pt x="692" y="589" on="0"/>
        <pt x="671" y="576" on="1"/>
        <pt x="692" y="561" on="0"/>
        <pt x="724" y="521" on="0"/>
        <pt x="740" y="498" on="1"/>
        <pt x="1082" y="0" on="1"/>
        <pt x="859" y="0" on="1"/>
        <pt x="830" y="0" on="0"/>
        <pt x="790" y="20" on="0"/>
        <pt x="774" y="44" on="1"/>
        <pt x="513" y="433" on="1"/>
        <pt x="498" y="456" on="0"/>
        <pt x="468" y="470" on="0"/>
        <pt x="438" y="470" on="1"/>
        <pt x="382" y="470" on="1"/>
        <pt x="382" y="0" on="1"/>
        <pt x="135" y="0" on="1"/>
        <pt x="135" y="1486" on="1"/>
      </contour>
    </TTGlyph>
    <TTGlyph name="l" xMin="148" yMin="0" xMax="395" yMax="1486">
      <contour>
        <pt x="395" y="1486" on="1"/>
        <pt x="395" y="0" on="1"/>
        <pt x="148" y="0" on="1"/>
        <pt x="148" y="1486" on="1"/>
      </contour>
    </TTGlyph>
    <TTGlyph name="less" xMin="139" yMin="210" xMax="931" yMax="1137">
      <contour>
        <pt x="139" y="724" on="1"/>
        <pt x="931" y="1137" on="1"/>
        <pt x="931" y="961" on="1"/>
        <pt x="931" y="941" on="0"/>
        <pt x="911" y="908" on="0"/>
        <pt x="888" y="896" on="1"/>
        <pt x="525" y="710" on="1"/>
        <pt x="502" y="698" on="0"/>
        <pt x="451" y="681" on="0"/>
        <pt x="422" y="674" on="1"/>
        <pt x="451" y="667" on="0"/>
        <pt x="502" y="650" on="0"/>
        <pt x="525" y="638" on="1"/>
        <pt x="888" y="451" on="1"/>
        <pt x="911" y="439" on="0"/>
        <pt x="931" y="406" on="0"/>
        <pt x="931" y="386" on="1"/>
        <pt x="931" y="210" on="1"/>
        <pt x="139" y="624" on="1"/>
      </contour>
    </TTGlyph>
    <TTGlyph name="lessequal" xMin="139" yMin="80" xMax="931" yMax="1218">
      <contour>
        <pt x="139" y="839" on="1"/>
        <pt x="931" y="1218" on="1"/>
        <pt x="931" y="1050" on="1"/>
        <pt x="931" y="1030" on="0"/>
        <pt x="909" y="995" on="0"/>
        <pt x="877" y="981" on="1"/>
        <pt x="525" y="823" on="1"/>
        <pt x="499" y="812" on="0"/>
        <pt x="443" y="797" on="0"/>
        <pt x="411" y="790" on="1"/>
        <pt x="443" y="783" on="0"/>
        <pt x="500" y="767" on="0"/>
        <pt x="525" y="756" on="1"/>
        <pt x="876" y="595" on="1"/>
        <pt x="908" y="580" on="0"/>
        <pt x="931" y="546" on="0"/>
        <pt x="931" y="526" on="1"/>
        <pt x="931" y="358" on="1"/>
        <pt x="139" y="740" on="1"/>
      </contour>
      <contour>
        <pt x="139" y="263" on="1"/>
        <pt x="931" y="263" on="1"/>
        <pt x="931" y="80" on="1"/>
        <pt x="139" y="80" on="1"/>
      </contour>
    </TTGlyph>
    <TTGlyph name="logicalnot" xMin="136" yMin="297" xMax="1022" yMax="763">
      <contour>
        <pt x="136" y="763" on="1"/>
        <pt x="1022" y="763" on="1"/>
        <pt x="1022" y="297" on="1"/>
        <pt x="813" y="297" on="1"/>
        <pt x="813" y="580" on="1"/>
        <pt x="136" y="580" on="1"/>
      </contour>
    </TTGlyph>
    <TTGlyph name="lozenge" xMin="113" yMin="-91" xMax="1047" yMax="1531">
      <contour>
        <pt x="113" y="720" on="1"/>
        <pt x="494" y="1531" on="1"/>
        <pt x="666" y="1531" on="1"/>
        <pt x="1047" y="720" on="1"/>
        <pt x="666" y="-91" on="1"/>
        <pt x="494" y="-91" on="1"/>
      </contour>
      <contour>
        <pt x="315" y="720" on="1"/>
        <pt x="546" y="219" on="1"/>
        <pt x="558" y="193" on="0"/>
        <pt x="574" y="146" on="0"/>
        <pt x="580" y="124" on="1"/>
        <pt x="586" y="146" on="0"/>
        <pt x="602" y="193" on="0"/>
        <pt x="614" y="219" on="1"/>
        <pt x="849" y="720" on="1"/>
        <pt x="614" y="1221" on="1"/>
        <pt x="602" y="1247" on="0"/>
        <pt x="587" y="1294" on="0"/>
        <pt x="580" y="1316" on="1"/>
        <pt x="573" y="1294" on="0"/>
        <pt x="558" y="1247" on="0"/>
        <pt x="546" y="1221" on="1"/>
      </contour>
    </TTGlyph>
    <TTGlyph name="lslash" xMin="52" yMin="0" xMax="626" yMax="1486">
      <contour>
        <pt x="463" y="1486" on="1"/>
        <pt x="463" y="929" on="1"/>
        <pt x="626" y="995" on="1"/>
        <pt x="626" y="853" on="1"/>
        <pt x="626" y="812" on="0"/>
        <pt x="592" y="799" on="1"/>
        <pt x="463" y="744" on="1"/>
        <pt x="463" y="0" on="1"/>
        <pt x="216" y="0" on="1"/>
        <pt x="216" y="657" on="1"/>
        <pt x="52" y="591" on="1"/>
        <pt x="52" y="737" on="1"/>
        <pt x="52" y="772" on="0"/>
        <pt x="83" y="785" on="1"/>
        <pt x="216" y="841" on="1"/>
        <pt x="216" y="1486" on="1"/>
      </contour>
    </TTGlyph>
    <TTGlyph name="m" xMin="132" yMin="0" xMax="1573" yMax="1042">
      <contour>
        <pt x="132" y="0" on="1"/>
        <pt x="132" y="1026" on="1"/>
        <pt x="283" y="1026" on="1"/>
        <pt x="331" y="1026" on="0"/>
        <pt x="346" y="981" on="1"/>
        <pt x="362" y="905" on="1"/>
        <pt x="389" y="935" on="0"/>
        <pt x="448" y="985" on="0"/>
        <pt x="515" y="1021" on="0"/>
        <pt x="592" y="1042" on="0"/>
        <pt x="638" y="1042" on="1"/>
        <pt x="735" y="1042" on="0"/>
        <pt x="860" y="937" on="0"/>
        <pt x="891" y="850" on="1"/>
        <pt x="915" y="901" on="0"/>
        <pt x="987" y="974" on="0"/>
        <pt x="1073" y="1020" on="0"/>
        <pt x="1170" y="1042" on="0"/>
        <pt x="1219" y="1042" on="1"/>
        <pt x="1304" y="1042" on="0"/>
        <pt x="1436" y="990" on="0"/>
        <pt x="1526" y="890" on="0"/>
        <pt x="1573" y="746" on="0"/>
        <pt x="1573" y="653" on="1"/>
        <pt x="1573" y="0" on="1"/>
        <pt x="1326" y="0" on="1"/>
        <pt x="1326" y="653" on="1"/>
        <pt x="1326" y="751" on="0"/>
        <pt x="1240" y="850" on="0"/>
        <pt x="1157" y="850" on="1"/>
        <pt x="1119" y="850" on="0"/>
        <pt x="1054" y="824" on="0"/>
        <pt x="1005" y="775" on="0"/>
        <pt x="977" y="701" on="0"/>
        <pt x="977" y="653" on="1"/>
        <pt x="977" y="0" on="1"/>
        <pt x="729" y="0" on="1"/>
        <pt x="729" y="653" on="1"/>
        <pt x="729" y="756" on="0"/>
        <pt x="646" y="850" on="0"/>
        <pt x="565" y="850" on="1"/>
        <pt x="512" y="850" on="0"/>
        <pt x="419" y="797" on="0"/>
        <pt x="379" y="751" on="1"/>
        <pt x="379" y="0" on="1"/>
      </contour>
    </TTGlyph>
    <TTGlyph name="macron" xMin="20" yMin="1214" xMax="618" yMax="1372">
      <contour>
        <pt x="20" y="1372" on="1"/>
        <pt x="618" y="1372" on="1"/>
        <pt x="618" y="1214" on="1"/>
        <pt x="20" y="1214" on="1"/>
      </contour>
    </TTGlyph>
    <TTGlyph name="macron.case" xMin="53" yMin="1563" xMax="585" yMax="1705">
      <contour>
        <pt x="53" y="1705" on="1"/>
        <pt x="585" y="1705" on="1"/>
        <pt x="585" y="1563" on="1"/>
        <pt x="53" y="1563" on="1"/>
      </contour>
    </TTGlyph>
    <TTGlyph name="minus" xMin="136" yMin="580" xMax="1022" yMax="763">
      <contour>
        <pt x="136" y="763" on="1"/>
        <pt x="1022" y="763" on="1"/>
        <pt x="1022" y="580" on="1"/>
        <pt x="136" y="580" on="1"/>
      </contour>
    </TTGlyph>
    <TTGlyph name="mu" xMin="111" yMin="-335" xMax="1005" yMax="1026">
      <contour>
        <pt x="358" y="1026" on="1"/>
        <pt x="358" y="374" on="1"/>
        <pt x="358" y="280" on="0"/>
        <pt x="445" y="177" on="0"/>
        <pt x="532" y="177" on="1"/>
        <pt x="596" y="177" on="0"/>
        <pt x="708" y="234" on="0"/>
        <pt x="758" y="284" on="1"/>
        <pt x="758" y="1026" on="1"/>
        <pt x="1005" y="1026" on="1"/>
        <pt x="1005" y="0" on="1"/>
        <pt x="854" y="0" on="1"/>
        <pt x="806" y="0" on="0"/>
        <pt x="791" y="45" on="1"/>
        <pt x="774" y="128" on="1"/>
        <pt x="743" y="97" on="0"/>
        <pt x="683" y="54" on="0"/>
        <pt x="621" y="27" on="0"/>
        <pt x="554" y="15" on="0"/>
        <pt x="516" y="15" on="1"/>
        <pt x="457" y="15" on="0"/>
        <pt x="361" y="51" on="0"/>
        <pt x="324" y="84" on="1"/>
        <pt x="335" y="40" on="0"/>
        <pt x="342" y="-54" on="0"/>
        <pt x="342" y="-95" on="1"/>
        <pt x="342" y="-335" on="1"/>
        <pt x="220" y="-335" on="1"/>
        <pt x="168" y="-335" on="0"/>
        <pt x="111" y="-282" on="0"/>
        <pt x="111" y="-232" on="1"/>
        <pt x="111" y="1026" on="1"/>
      </contour>
    </TTGlyph>
    <TTGlyph name="multiply" xMin="106" yMin="200" xMax="1049" yMax="1128">
      <contour>
        <pt x="1033" y="996" on="1"/>
        <pt x="708" y="671" on="1"/>
        <pt x="1049" y="331" on="1"/>
        <pt x="918" y="202" on="1"/>
        <pt x="578" y="541" on="1"/>
        <pt x="237" y="200" on="1"/>
        <pt x="106" y="329" on="1"/>
        <pt x="448" y="671" on="1"/>
        <pt x="121" y="998" on="1"/>
        <pt x="251" y="1128" on="1"/>
        <pt x="578" y="801" on="1"/>
        <pt x="902" y="1126" on="1"/>
      </contour>
    </TTGlyph>
    <TTGlyph name="n" xMin="132" yMin="0" xMax="1026" yMax="1042">
      <contour>
        <pt x="132" y="0" on="1"/>
        <pt x="132" y="1026" on="1"/>
        <pt x="283" y="1026" on="1"/>
        <pt x="331" y="1026" on="0"/>
        <pt x="346" y="981" on="1"/>
        <pt x="363" y="900" on="1"/>
        <pt x="394" y="932" on="0"/>
        <pt x="463" y="984" on="0"/>
        <pt x="540" y="1022" on="0"/>
        <pt x="628" y="1042" on="0"/>
        <pt x="680" y="1042" on="1"/>
        <pt x="764" y="1042" on="0"/>
        <pt x="894" y="985" on="0"/>
        <pt x="981" y="882" on="0"/>
        <pt x="1026" y="739" on="0"/>
        <pt x="1026" y="653" on="1"/>
        <pt x="1026" y="0" on="1"/>
        <pt x="779" y="0" on="1"/>
        <pt x="779" y="653" on="1"/>
        <pt x="779" y="747" on="0"/>
        <pt x="692" y="850" on="0"/>
        <pt x="605" y="850" on="1"/>
        <pt x="541" y="850" on="0"/>
        <pt x="429" y="792" on="0"/>
        <pt x="379" y="742" on="1"/>
        <pt x="379" y="0" on="1"/>
      </contour>
    </TTGlyph>
    <TTGlyph name="nacute" xMin="132" yMin="0" xMax="1026" yMax="1462">
      <component glyphName="n" x="0" y="0" flags="0x204"/>
      <component glyphName="acute" x="265" y="0" flags="0x4"/>
    </TTGlyph>
</ttFont>
